<svg width="433" height="418" xmlns="http://www.w3.org/2000/svg" xmlns:xlink="http://www.w3.org/1999/xlink" xml:space="preserve" overflow="hidden"><g transform="translate(-765 -180)"><path d="M2895.16 42.625 3327.5 42.625 3327.5 460.036 2895.16 460.036Z" fill="#FFFFFF" transform="matrix(1.00016 0 0 1 -2130.44 137.571)"/><path d="M2947.12 378.039 3308.35 378.039M2947.12 334.824 3308.35 334.824M2947.12 291.412 3308.35 291.412M2947.12 248.195 3308.35 248.195M2947.12 204.783 3308.35 204.783M2947.12 161.568 3308.35 161.568M2947.12 118.156 3308.35 118.156M2947.12 74.9375 3308.35 74.9375" stroke="#D9D9D9" stroke-width="0.675223" stroke-linejoin="round" stroke-miterlimit="10" fill="none" transform="matrix(1.00016 0 0 1 -2130.44 137.571)"/><path d="M2983.16 66.0982 2983.16 421.438M3019.3 66.0982 3019.3 421.438M3055.45 66.0982 3055.45 421.438M3091.59 66.0982 3091.59 421.438M3127.73 66.0982 3127.73 421.438M3163.68 66.0982 3163.68 421.438M3199.82 66.0982 3199.82 421.438M3235.96 66.0982 3235.96 421.438M3272.11 66.0982 3272.11 421.438M3308.35 66.0982 3308.35 421.438" stroke="#D9D9D9" stroke-width="0.675223" stroke-linejoin="round" stroke-miterlimit="10" fill="none" transform="matrix(1.00016 0 0 1 -2130.44 137.571)"/><path d="M2947.12 66.0982 3308.35 66.0982 3308.35 421.438 2947.12 421.438Z" stroke="#000000" stroke-width="0.675223" stroke-linejoin="round" stroke-miterlimit="10" fill="none" transform="matrix(1.00016 0 0 1 -2130.44 137.571)"/><path d="M0 0 7.08895e-05 355.339" stroke="#000000" stroke-width="0.675223" stroke-linejoin="round" stroke-miterlimit="10" fill="none" fill-rule="evenodd" transform="matrix(1.00016 0 0 -1 817.16 559.009)"/><path d="M2947.12 421.438 3308.35 421.438" stroke="#000000" stroke-width="0.675223" stroke-linejoin="round" stroke-miterlimit="10" fill="none" fill-rule="evenodd" transform="matrix(1.00016 0 0 1 -2130.44 137.571)"/><g><path d="M2949.87 303.842C2951.01 303.865 2951.91 304.001 2953.26 303.916 2954.62 303.83 2956.21 303.626 2958.02 303.331 2959.81 303.038 2961.83 302.639 2964.05 302.156 2966.25 301.673 2968.68 301.099 2971.32 300.434 2973.93 299.77 2976.78 299.021 2979.78 298.171 2982.79 297.322 2986.01 296.385 2989.37 295.336 2992.75 294.289 2996.3 293.144 3000.01 291.885 3003.73 290.626 3007.62 289.261 3011.64 287.784 3015.65 286.306 3019.83 284.717 3024.14 283.026 3028.44 281.337 3032.88 279.532 3037.41 277.64 3041.97 275.748 3046.65 273.749 3051.4 271.676 3056.15 269.602 3061.02 267.432 3065.96 265.2 3070.89 262.969 3075.91 260.653 3080.98 258.288 3086.05 255.923 3091.2 253.487 3096.36 251.014 3101.53 248.541 3106.75 246.009 3112 243.452 3117.22 240.892 3122.49 238.287 3127.73 235.667 3132.98 233.047 3138.24 230.391 3143.47 227.729 3148.71 225.066 3153.94 222.379 3159.1 219.692 3164.27 217.006 3169.41 214.306 3174.48 211.614 3179.55 208.923 3184.58 206.226 3189.51 203.547 3194.44 200.87 3199.31 198.192 3204.06 195.545 3208.82 192.897 3213.49 190.26 3218.05 187.659 3222.59 185.059 3227.03 182.479 3231.33 179.945 3235.63 177.411 3239.81 174.905 3243.82 172.455 3247.85 170.005 3251.74 167.593 3255.45 165.245 3259.16 162.897 3262.72 160.595 3266.1 158.367 3269.46 156.138 3272.68 153.966 3275.68 151.874 3278.69 149.781 3281.54 147.753 3284.15 145.814 3286.78 143.874 3289.22 142.007 3291.42 140.234 3293.64 138.462 3295.66 136.77 3297.45 135.178 3299.25 133.587 3300.84 132.083 3302.2 130.686 3303.56 129.288 3304.69 127.984 3305.6 126.791 3306.52 125.598 3307.21 124.505 3307.66 123.526 3308.11 122.547 3308.35 121.674 3308.35 120.918 3308.35 120.162 3308.11 119.516 3307.66 118.988 3307.21 118.461 3306.52 118.047 3305.6 117.754 3304.69 117.46 3303.56 117.283 3302.2 117.226 3300.84 117.17 3299.25 117.231 3297.45 117.413 3295.66 117.595 3293.64 117.897 3291.42 118.317 3289.22 118.737 3286.78 119.277 3284.15 119.933 3281.54 120.589 3278.69 121.365 3275.68 122.254 3272.68 123.143 3269.46 124.151 3266.1 125.267 3262.72 126.383 3259.16 127.616 3255.45 128.952 3251.74 130.288 3247.85 131.737 3243.82 133.284 3239.81 134.831 3235.63 136.487 3231.33 138.233 3227.03 139.98 3222.59 141.831 3218.05 143.764 3213.49 145.698 3208.82 147.729 3204.06 149.834 3199.31 151.94 3194.44 154.137 3189.51 156.398 3184.58 158.66 3179.55 161.005 3174.48 163.405 3169.41 165.805 3164.27 168.28 3159.1 170.8 3153.94 173.32 3148.71 175.905 3143.47 178.525 3138.24 181.144 3132.98 183.82 3127.73 186.518 3122.49 189.216 3117.22 191.96 3112 194.715 3106.75 197.47 3101.53 200.261 3096.36 203.05 3091.2 205.839 3086.05 208.652 3080.98 211.453 3075.91 214.254 3070.89 217.067 3065.96 219.857 3061.02 222.646 3056.15 225.435 3051.4 228.187 3046.65 230.939 3041.97 233.679 3037.41 236.37 3032.88 239.063 3028.44 241.729 3024.14 244.336 3019.83 246.942 3015.65 249.509 3011.64 252.006 3007.62 254.503 3003.73 256.948 3000.01 259.309 2996.3 261.672 2992.75 263.971 2989.37 266.178 2986.01 268.386 2982.79 270.519 2979.78 272.56 2976.78 274.601 2973.93 276.558 2971.32 278.426 2968.68 280.294 2966.25 282.075 2964.05 283.771 2961.83 285.466 2959.81 287.078 2958.02 288.597 2956.21 290.115 2954.62 291.551 2953.26 292.881 2951.91 294.211 2950.77 295.454 2949.87 296.574 2948.94 297.693 2948.26 298.713 2947.8 299.601 2947.35 300.489 2947.12 301.261 2947.12 301.901 2947.12 302.539 2947.35 303.052 2947.8 303.437 2948.26 303.824 2948.94 304.077 2949.87 304.217 2950.77 304.356 2951.91 304.366 2953.26 304.278 2954.62 304.187 2956.21 303.979 2958.02 303.682 2959.81 303.386 2961.83 302.983 2964.05 302.498 2966.25 302.013 2968.68 301.435 2971.32 300.769 2973.93 300.102 2976.78 299.351 2979.78 298.499 2982.79 297.646 2986.01 296.707 2989.37 295.656 2992.75 294.606 2996.3 293.458 3000.01 292.197 3003.73 290.934 3007.62 289.565 3011.64 288.086 3015.65 286.607 3019.83 285.014 3024.14 283.321 3028.44 281.628 3032.88 279.82 3037.41 277.925 3041.97 276.029 3046.65 274.028 3051.4 271.951 3056.15 269.877 3061.02 267.703 3065.96 265.469 3070.89 263.236 3075.91 260.918 3080.98 258.551 3086.05 256.184 3091.2 253.746 3096.36 251.271 3101.53 248.796 3106.75 246.262 3112 243.705 3117.22 241.146 3122.49 238.539 3127.73 235.919 3132.98 233.296 3138.24 230.639 3143.47 227.975 3148.71 225.311 3153.94 222.622 3159.1 219.937 3164.27 217.25 3169.41 214.547 3174.48 211.856 3179.55 209.163 3184.5 206.476 3189.51 203.785" stroke="#0066FF" stroke-width="1.35045" stroke-linecap="round" stroke-linejoin="round" stroke-miterlimit="10" fill="none" transform="matrix(1.00016 0 0 1 -2130.44 137.571)"/></g><g><path d="M2947.12 380.127C2947.35 380.457 2947.35 380.867 2947.8 381.117 2948.26 381.366 2948.94 381.535 2949.87 381.623 2950.77 381.712 2951.91 381.72 2953.26 381.645 2954.62 381.572 2956.21 381.417 2958.02 381.181 2959.81 380.948 2961.83 380.631 2964.05 380.237 2966.25 379.844 2968.68 379.368 2971.32 378.816 2973.93 378.266 2976.78 377.636 2979.78 376.933 2982.79 376.231 2986.01 375.45 2989.37 374.601 2992.75 373.751 2996.3 372.825 3000.01 371.837 3003.73 370.847 3007.62 369.785 3011.64 368.661 3015.65 367.539 3019.83 366.349 3024.14 365.102 3028.44 363.856 3032.88 362.544 3037.41 361.183 3041.97 359.822 3046.65 358.402 3051.4 356.936 3056.15 355.471 3061.02 353.952 3065.96 352.395 3070.89 350.837 3075.91 349.228 3080.98 347.59 3086.05 345.952 3091.2 344.269 3096.36 342.564 3101.53 340.857 3106.75 339.11 3112 337.348 3117.22 335.586 3122.49 333.793 3127.73 331.99 3132.98 330.187 3138.24 328.358 3143.47 326.525 3148.71 324.694 3153.94 322.844 3159.1 320.998 3164.27 319.153 3169.41 317.297 3174.48 315.451 3179.55 313.604 3184.58 311.756 3189.51 309.923 3194.44 308.092 3199.31 306.264 3204.06 304.46 3208.82 302.657 3213.49 300.864 3218.05 299.102 3222.59 297.34 3227.03 295.596 3231.33 293.889 3235.63 292.182 3239.81 290.498 3243.82 288.86 3247.85 287.22 3251.74 285.613 3255.45 284.053 3259.16 282.496 3262.72 280.975 3266.1 279.508 3269.46 278.041 3272.68 276.619 3275.68 275.255 3278.69 273.892 3281.54 272.578 3284.15 271.329 3286.78 270.079 3289.22 268.883 3291.42 267.758 3293.64 266.63 3295.66 265.564 3297.45 264.568 3299.25 263.572 3300.84 262.641 3302.2 261.784 3303.56 260.926 3304.69 260.138 3305.6 259.427 3306.52 258.714 3307.21 258.076 3307.66 257.514 3308.11 256.952 3308.35 256.467 3308.35 256.06 3308.35 255.654 3308.11 255.326 3307.66 255.076 3307.21 254.829 3306.52 254.66 3305.6 254.569 3304.69 254.481 3303.56 254.473 3302.2 254.546 3300.84 254.617 3299.25 254.77 3297.45 255.002 3295.66 255.233 3293.64 255.546 3291.42 255.935 3289.22 256.326 3286.78 256.795 3284.15 257.341 3281.54 257.885 3278.69 258.51 3275.68 259.207 3272.68 259.902 3269.46 260.676 3266.1 261.519 3262.72 262.362 3259.16 263.279 3255.45 264.261 3251.74 265.243 3247.85 266.298 3243.82 267.412 3239.81 268.528 3235.63 269.71 3231.33 270.95 3227.03 272.187 3222.59 273.491 3218.05 274.845 3213.49 276.198 3208.82 277.611 3204.06 279.068 3199.31 280.527 3194.44 282.04 3189.51 283.592 3184.58 285.142 3179.55 286.744 3174.48 288.377 3169.41 290.009 3164.27 291.687 3159.1 293.39 3153.94 295.093 3148.71 296.833 3143.47 298.591 3138.24 300.351 3132.98 302.141 3127.73 303.944 3122.49 305.745 3117.22 307.572 3112 309.404 3106.75 311.235 3101.53 313.086 3096.36 314.932 3091.2 316.778 3086.05 318.637 3080.98 320.485 3075.91 322.333 3070.89 324.186 3065.96 326.02 3061.02 327.855 3056.15 329.688 3051.4 331.497 3046.65 333.306 3041.97 335.103 3037.41 336.873 3032.88 338.641 3028.44 340.391 3024.14 342.104 3019.83 343.819 3015.65 345.508 3011.64 347.154 3007.62 348.802 3003.73 350.417 3000.01 351.984 2996.3 353.55 2992.75 355.08 2989.37 356.555 2986.01 358.03 2982.79 359.46 2979.78 360.833 2976.78 362.204 2973.93 363.526 2971.32 364.784 2968.68 366.043 2966.25 367.245 2964.05 368.38 2961.83 369.514 2959.81 370.588 2958.02 371.592 2956.21 372.594 2954.62 373.533 2953.26 374.395 2951.91 375.257 2950.77 376.051 2949.87 376.768 2948.94 377.485 2948.26 378.129 2947.8 378.693 2947.35 379.258 2947.12 379.747 2947.12 380.156 2947.12 380.565 2947.35 380.895 2947.8 381.144 2948.26 381.394 2948.94 381.564 2949.87 381.651 2950.77 381.739 2951.91 381.747 2953.26 381.674 2954.62 381.6 2956.21 381.445 2958.02 381.209 2959.81 380.975 2961.83 380.659 2964.05 380.264 2966.25 379.869 2968.68 379.394 2971.32 378.844 2973.93 378.294 2976.78 377.663 2979.78 376.96 2982.79 376.257 2986.01 375.477 2989.37 374.627 2992.75 373.776 2996.3 372.853 3000.01 371.863 3003.73 370.873 3007.62 369.81 3011.64 368.687 3015.65 367.565 3019.83 366.373 3024.14 365.127 3028.44 363.88 3032.88 362.57 3037.41 361.209 3041.97 359.847 3046.65 358.425 3051.4 356.962 3056.15 355.496 3061.02 353.976 3065.96 352.418 3070.89 350.861 3075.91 349.252 3080.98 347.614 3086.05 345.976 3091.2 344.292 3096.36 342.585 3101.53 340.878 3106.75 339.134 3112 337.372 3117.22 335.61 3122.49 333.817 3127.73 332.013 3132.98 330.208 3138.24 328.379 3143.47 326.549 3148.71 324.716 3153.94 322.868 3159.1 321.021 3164.27 319.175 3169.41 317.319 3174.48 315.472 3179.55 313.626 3184.58 311.777 3189.51 309.945 3194.44 308.114 3199.31 306.285 3204.06 304.482 3208.82 302.677 3213.49 300.883 3218.05 299.121 3222.59 297.359 3227.03 295.615 3231.33 293.908 3235.63 292.201 3239.81 290.52 3243.82 288.88 3247.85 287.241 3251.74 285.633 3255.45 284.075 3259.16 282.515 3262.72 280.995 3266.1 279.528 3269.46 278.062 3272.68 276.638 3275.68 275.275 3278.69 273.912 3281.54 272.598 3284.15 271.348 3286.78 270.099 3289.22 268.903 3291.42 267.775 3293.64 266.65 3295.66 265.581 3297.45 264.585 3299.25 263.591 3300.84 262.658 3302.2 261.802 3303.56 260.946 3304.69 260.156 3305.6 259.445 3306.52 258.734 3307.21 258.093 3307.66 257.532 3308.11 256.972 3308.35 256.485 3308.35 256.078 3308.35 255.671 3308.11 255.343 3307.66 255.094 3307.21 254.846 3306.52 254.678 3305.6 254.587 3304.69 254.499 3303.56 254.491 3302.2 254.562 3300.84 254.634 3299.25 254.787 3297.45 255.019 3295.66 255.249 3293.64 255.563 3291.42 255.952 3289.22 256.341 3286.78 256.813 3284.15 257.357 3281.54 257.903 3278.69 258.527 3275.68 259.223 3272.68 259.92 3269.46 260.692 3266.1 261.535 3262.72 262.378 3259.16 263.295 3255.45 264.277 3251.74 265.259 3247.85 266.314 3243.82 267.428 3239.81 268.543 3235.63 269.726 3231.33 270.965 3227.03 272.203 3222.59 273.507 3218.05 274.861 3213.49 276.214 3208.82 277.626 3204.06 279.084 3199.31 280.541 3194.44 282.056 3189.51 283.607 3184.58 285.157 3179.55 286.758 3174.48 288.393 3169.41 290.025 3164.27 291.702 3159.1 293.405 3153.94 295.106 3148.71 296.847 3143.47 298.607 3138.24 300.365 3132.98 302.156 3127.73 303.957 3122.49 305.761 3117.22 307.587 3112 309.418 3106.75 311.249 3101.53 313.099 3096.36 314.946 3091.2 316.792 3086.05 318.65 3080.98 320.499 3075.91 322.347 3070.89 324.199 3065.96 326.034 3061.02 327.871 3056.15 329.701 3051.4 331.511 3046.65 333.32 3041.97 335.117 3037.41 336.887 3032.88 338.655 3028.44 340.405 3024.14 342.118 3019.83 343.832 3015.65 345.522 3011.64 347.168 3007.62 348.814 3003.73 350.431 3000.01 351.998 2996.3 353.564 2992.75 355.094 2989.37 356.569 2986.01 358.042 2982.79 359.474 2979.78 360.845 2976.78 362.216 2973.93 363.538 2971.32 364.797 2968.68 366.054 2966.25 367.259 2964.05 368.392 2961.83 369.527 2959.81 370.602 2958.02 371.604 2956.21 372.605 2954.62 373.544 2953.26 374.407 2951.91 375.269 2950.77 376.064 2949.87 376.779 2948.94 377.496 2948.26 378.141 2947.8 378.706 2947.35 379.27 2947.12 379.759 2947.12 380.168 2947.12 380.576 2947.35 380.906 2947.8 381.156 2948.26 381.405 2948.94 381.576 2949.87 381.663 2950.77 381.751 2951.91 381.759 2953.26 381.684 2954.62 381.612 2956.21 381.456 2958.02 381.221 2959.81 380.987 2961.83 380.671 2964.05 380.276 2966.25 379.881 2968.68 379.406 2971.32 378.856 2973.93 378.304 2976.78 377.673 2979.78 376.972 2982.79 376.269 2986.01 375.487 2989.37 374.638 2992.75 373.788 2996.3 372.863 3000.01 371.873 3003.73 370.883 3007.62 369.82 3011.64 368.698 3015.65 367.575 3019.83 366.384 3024.14 365.137 3028.44 363.892 3032.88 362.58 3037.41 361.218 3041.97 359.857 3046.65 358.437 3051.4 356.972 3056.15 355.506 3061.02 353.986 3065.96 352.428 3070.89 350.871 3075.91 349.264 3080.98 347.624 3086.05 345.985 3091.2 344.304 3096.36 342.597 3101.53 340.89 3106.75 339.144 3112 337.382 3117.22 335.62 3122.49 333.826 3127.73 332.023 3132.98 330.218 3138.24 328.389 3143.47 326.559 3148.71 324.726 3153.94 322.878 3159.1 321.031 3164.27 319.185 3169.41 317.328 3174.48 315.482 3179.55 313.636 3184.58 311.787 3189.51 309.954 3194.44 308.124 3199.31 306.295 3204.06 304.49 3208.82 302.687 3213.49 300.893 3218.05 299.131 3222.59 297.369 3227.03 295.625 3231.33 293.918 3235.63 292.211 3239.81 290.528 3243.82 288.889 3247.85 287.249 3251.74 285.643 3255.45 284.083 3259.16 282.525 3262.72 281.003 3266.1 279.537 3269.46 278.07 3272.68 276.648 3275.68 275.285 3278.69 273.922 3281.54 272.607 3284.15 271.356 3286.78 270.107 3289.22 268.913 3291.42 267.785 3293.64 266.658 3295.66 265.591 3297.45 264.595 3299.25 263.599 3300.84 262.668 3302.2 261.81 3303.56 260.953 3304.69 260.166 3305.6 259.453 3306.52 258.742 3307.21 258.101 3307.66 257.541 3308.11 256.98 3308.35 256.492 3308.35 256.088 3308.35 255.681 3308.11 255.351 3307.66 255.104 3307.21 254.854 3306.52 254.685 3305.6 254.597 3304.69 254.507 3303.56 254.499 3302.2 254.571 3300.84 254.642 3299.25 254.795 3297.45 255.027 3295.66 255.259 3293.64 255.571 3291.42 255.96 3289.22 256.349 3286.78 256.821 3284.15 257.365 3281.54 257.911 3278.69 258.535 3275.68 259.231 3272.68 259.928 3269.46 260.7 3266.1 261.543 3262.72 262.385 3259.16 263.303 3255.45 264.285 3251.74 265.267 3247.85 266.322 3243.82 267.436 3239.81 268.551 3235.63 269.734 3231.33 270.973 3227.03 272.211 3222.59 273.515 3218.05 274.868 3213.49 276.22 3208.82 277.634 3204.06 279.092 3199.31 280.549 3194.44 282.064 3189.51 283.613 3184.58 285.165 3179.55 286.766 3174.48 288.398 3169.41 290.033 3164.27 291.71 3159.1 293.411 3153.94 295.114 3148.71 296.855 3143.47 298.613 3138.24 300.373 3132.98 302.162 3127.73 303.965 3122.49 305.767 3117.22 307.593 3112 309.426 3106.75 311.257 3101.53 313.105 3096.36 314.954 3091.2 316.8 3086.05 318.658 3080.98 320.507 3075.91 322.353 3070.96 324.196 3065.96 326.042" stroke="#FF00FF" stroke-width="1.35045" stroke-linecap="round" stroke-linejoin="round" stroke-miterlimit="10" fill="none" transform="matrix(1.00016 0 0 1 -2130.44 137.571)"/></g><g><path d="M2947.12 277.986C2947.35 278.316 2947.35 278.724 2947.8 278.974 2948.26 279.223 2948.94 279.394 2949.87 279.481 2950.77 279.569 2951.91 279.577 2953.26 279.502 2954.62 279.427 2956.21 279.272 2958.02 279.037 2959.81 278.803 2961.83 278.485 2964.05 278.09 2966.25 277.695 2968.68 277.22 2971.32 276.668 2973.93 276.118 2976.78 275.485 2979.78 274.782 2982.79 274.079 2986.01 273.297 2989.37 272.446 2992.75 271.596 2996.3 270.671 3000.01 269.681 3003.73 268.689 3007.62 267.626 3011.64 266.503 3015.65 265.379 3019.83 264.187 3024.14 262.939 3028.44 261.692 3032.88 260.38 3037.41 259.019 3041.97 257.657 3046.65 256.235 3051.4 254.77 3056.15 253.304 3061.02 251.784 3065.96 250.224 3070.89 248.667 3075.91 247.06 3080.98 245.42 3086.05 243.782 3091.2 242.098 3096.36 240.391 3101.53 238.684 3106.75 236.94 3112 235.176 3117.22 233.414 3122.49 231.621 3127.73 229.817 3132.98 228.014 3138.24 226.186 3143.47 224.353 3148.71 222.522 3153.94 220.672 3159.1 218.827 3164.27 216.981 3169.41 215.125 3174.48 213.28 3179.55 211.434 3184.58 209.585 3189.51 207.755 3194.44 205.924 3199.31 204.095 3204.06 202.292 3208.82 200.489 3213.49 198.697 3218.05 196.935 3222.59 195.175 3227.03 193.431 3231.33 191.725 3235.63 190.019 3239.81 188.337 3243.82 186.699 3247.85 185.061 3251.74 183.454 3255.45 181.897 3259.16 180.339 3262.72 178.819 3266.1 177.353 3269.46 175.888 3272.68 174.465 3275.68 173.103 3278.69 171.741 3281.54 170.428 3284.15 169.179 3286.78 167.93 3289.22 166.735 3291.42 165.609 3293.64 164.483 3295.66 163.416 3297.45 162.421 3299.25 161.427 3300.84 160.496 3302.2 159.639 3303.56 158.783 3304.69 157.995 3305.6 157.284 3306.52 156.572 3307.21 155.933 3307.66 155.372 3308.11 154.811 3308.35 154.325 3308.35 153.919 3308.35 153.513 3308.11 153.183 3307.66 152.935 3307.21 152.687 3306.52 152.517 3305.6 152.428 3304.69 152.339 3303.56 152.33 3302.2 152.402 3300.84 152.473 3299.25 152.625 3297.45 152.856 3295.66 153.088 3293.64 153.4 3291.42 153.789 3289.22 154.178 3286.78 154.647 3284.15 155.192 3281.54 155.736 3278.69 156.36 3275.68 157.056 3272.68 157.751 3269.46 158.524 3266.1 159.366 3262.72 160.208 3259.16 161.124 3255.45 162.106 3251.74 163.087 3247.85 164.14 3243.82 165.254 3239.81 166.368 3235.63 167.55 3231.33 168.788 3227.03 170.026 3222.59 171.328 3218.05 172.681 3213.49 174.034 3208.82 175.446 3204.06 176.904 3199.31 178.361 3194.44 179.873 3189.51 181.424 3184.58 182.975 3179.55 184.575 3174.48 186.208 3169.41 187.841 3164.27 189.517 3159.1 191.22 3153.94 192.922 3148.71 194.662 3143.47 196.421 3138.24 198.179 3132.98 199.97 3127.73 201.771 3122.49 203.575 3117.22 205.401 3112 207.232 3106.75 209.065 3101.53 210.913 3096.36 212.762 3091.2 214.608 3086.05 216.466 3080.98 218.315 3075.91 220.165 3070.89 222.017 3065.96 223.852 3061.02 225.689 3056.15 227.521 3051.4 229.33 3046.65 231.139 3041.97 232.939 3037.41 234.709 3032.88 236.476 3028.44 238.229 3024.14 239.943 3019.83 241.658 3015.65 243.349 3011.64 244.996 3007.62 246.644 3003.73 248.26 3000.01 249.828 2996.3 251.395 2992.75 252.925 2989.37 254.401 2986.01 255.876 2982.79 257.31 2979.78 258.681 2976.78 260.054 2973.93 261.376 2971.32 262.635 2968.68 263.894 2966.25 265.098 2964.05 266.233 2961.83 267.369 2959.81 268.443 2958.02 269.447 2956.21 270.449 2954.62 271.388 2953.26 272.252 2951.91 273.114 2950.77 273.91 2949.87 274.625 2948.94 275.342 2948.26 275.986 2947.8 276.552 2947.35 277.117 2947.12 277.607 2947.12 278.015 2947.12 278.424 2947.35 278.754 2947.8 279.003 2948.26 279.253 2948.94 279.422 2949.87 279.51 2950.77 279.598 2951.91 279.604 2953.26 279.53 2954.62 279.457 2956.21 279.3 2958.02 279.064 2959.81 278.83 2961.83 278.512 2964.05 278.117 2966.25 277.723 2968.68 277.247 2971.32 276.695 2973.93 276.143 2976.78 275.513 2979.78 274.809 2982.79 274.104 2986.01 273.322 2989.37 272.472 2992.75 271.621 2996.3 270.696 3000.01 269.706 3003.73 268.714 3007.62 267.652 3011.64 266.528 3015.65 265.404 3019.83 264.212 3024.14 262.965 3028.44 261.717 3032.88 260.405 3037.41 259.044 3041.97 257.683 3046.65 256.261 3051.4 254.793 3056.15 253.328 3061.02 251.808 3065.96 250.25 3070.89 248.69 3075.91 247.084 3080.98 245.443 3086.05 243.805 3091.2 242.122 3096.36 240.415 3101.53 238.708 3106.75 236.962 3112 235.2 3117.22 233.438 3122.49 231.644 3127.73 229.841 3132.98 228.036 3138.24 226.207 3143.47 224.376 3148.71 222.544 3153.94 220.695 3159.1 218.849 3164.27 217.002 3169.41 215.146 3174.48 213.302 3179.55 211.455 3184.58 209.607 3189.51 207.776 3194.44 205.946 3199.31 204.117 3204.06 202.314 3208.82 200.51 3213.49 198.719 3218.05 196.957 3222.59 195.196 3227.03 193.452 3231.33 191.746 3235.63 190.04 3239.81 188.358 3243.82 186.72 3247.85 185.081 3251.74 183.475 3255.45 181.917 3259.16 180.359 3262.72 178.839 3266.1 177.373 3269.46 175.907 3272.68 174.485 3275.68 173.123 3278.69 171.76 3281.54 170.447 3284.15 169.198 3286.78 167.949 3289.22 166.755 3291.42 165.629 3293.64 164.502 3295.66 163.436 3297.45 162.441 3299.25 161.445 3300.84 160.514 3302.2 159.658 3303.56 158.801 3304.69 158.013 3305.6 157.302 3306.52 156.591 3307.21 155.951 3307.66 155.39 3308.11 154.829 3308.35 154.343 3308.35 153.937 3308.35 153.531 3308.11 153.201 3307.66 152.953 3307.21 152.704 3306.52 152.535 3305.6 152.446 3304.69 152.357 3303.56 152.348 3302.2 152.419 3300.84 152.49 3299.25 152.642 3297.45 152.874 3295.66 153.105 3293.64 153.417 3291.42 153.806 3289.22 154.195 3286.78 154.664 3284.15 155.209 3281.54 155.753 3278.69 156.377 3275.68 157.072 3272.68 157.768 3269.46 158.541 3266.1 159.382 3262.72 160.224 3259.16 161.14 3255.45 162.122 3251.74 163.103 3247.85 164.156 3243.82 165.27 3239.81 166.384 3235.63 167.566 3231.33 168.804 3227.03 170.042 3222.59 171.344 3218.05 172.697 3213.49 174.049 3208.82 175.462 3204.06 176.919 3199.31 178.376 3194.44 179.889 3189.51 181.439 3184.58 182.99 3179.55 184.591 3174.48 186.223 3169.41 187.856 3164.27 189.533 3159.1 191.235 3153.94 192.937 3148.71 194.677 3143.47 196.436 3138.24 198.194 3132.98 199.984 3127.73 201.787 3122.49 203.588 3117.22 205.415 3112 207.248 3106.75 209.079 3101.53 210.929 3096.36 212.775 3091.2 214.622 3086.05 216.482 3080.98 218.33 3075.91 220.179 3070.89 222.031 3065.96 223.868 3061.02 225.702 3056.15 227.535 3051.4 229.344 3046.65 231.153 3041.97 232.952 3037.41 234.722 3032.88 236.49 3028.44 238.242 3024.14 239.957 3019.83 241.672 3015.65 243.361 3011.64 245.009 3007.62 246.657 3003.73 248.274 3000.01 249.841 2996.3 251.409 2992.75 252.939 2989.37 254.414 2986.01 255.889 2982.79 257.321 2979.78 258.694 2976.78 260.066 2973.93 261.389 2971.32 262.649 2968.68 263.906 2966.25 265.11 2964.05 266.245 2961.83 267.381 2959.81 268.457 2958.02 269.459 2956.21 270.462 2954.62 271.401 2953.26 272.264 2951.91 273.126 2950.77 273.922 2949.87 274.639 2948.94 275.356 2948.26 276 2947.8 276.564 2947.35 277.129 2947.12 277.618 2947.12 278.027 2947.12 278.436 2947.35 278.766 2947.8 279.015 2948.26 279.264 2948.94 279.433 2949.87 279.522 2950.77 279.61 2951.91 279.616 2953.26 279.541 2954.62 279.469 2956.21 279.312 2958.02 279.076 2959.81 278.84 2961.83 278.524 2964.05 278.129 2966.25 277.734 2968.68 277.257 2971.32 276.707 2973.93 276.155 2976.78 275.524 2979.78 274.819 2982.79 274.116 2986.01 273.334 2989.37 272.484 2992.75 271.633 2996.3 270.708 3000.01 269.716 3003.73 268.726 3007.62 267.661 3011.64 266.54 3015.65 265.416 3019.83 264.224 3024.14 262.977 3028.44 261.729 3032.88 260.417 3037.41 259.054 3041.97 257.693 3046.65 256.271 3051.4 254.805 3056.15 253.34 3061.02 251.817 3065.96 250.26 3070.89 248.702 3075.91 247.093 3080.98 245.453 3086.05 243.815 3091.2 242.132 3096.36 240.425 3101.53 238.718 3106.75 236.973 3112 235.209 3117.22 233.447 3122.49 231.654 3127.73 229.851 3132.98 228.046 3138.24 226.217 3143.47 224.386 3148.71 222.554 3153.94 220.705 3159.1 218.859 3164.27 217.012 3169.41 215.156 3174.48 213.312 3179.55 211.465 3184.58 209.617 3189.51 207.786 3194.44 205.953 3199.31 204.127 3204.06 202.323 3208.82 200.52 3213.49 198.729 3218.05 196.967 3222.59 195.205 3227.03 193.461 3231.33 191.755 3235.63 190.049 3239.81 188.367 3243.82 186.729 3247.85 185.091 3251.74 183.484 3255.45 181.926 3259.16 180.368 3262.72 178.848 3266.1 177.382 3269.46 175.917 3272.68 174.494 3275.68 173.132 3278.69 171.77 3281.54 170.456 3284.15 169.207 3286.78 167.958 3289.22 166.764 3291.42 165.637 3293.64 164.511 3295.66 163.444 3297.45 162.449 3299.25 161.454 3300.84 160.523 3302.2 159.667 3303.56 158.81 3304.69 158.022 3305.6 157.311 3306.52 156.599 3307.21 155.96 3307.66 155.399 3308.11 154.838 3308.35 154.352 3308.35 153.945 3308.35 153.539 3308.11 153.21 3307.66 152.961 3307.21 152.713 3306.52 152.543 3305.6 152.454 3304.69 152.365 3303.56 152.356 3302.2 152.427 3300.84 152.499 3299.25 152.651 3297.45 152.882 3295.66 153.113 3293.64 153.425 3291.42 153.814 3289.22 154.203 3286.78 154.672 3284.15 155.217 3281.54 155.761 3278.69 156.384 3275.68 157.08 3272.68 157.776 3269.46 158.548 3266.1 159.39 3262.72 160.231 3259.16 161.148 3255.45 162.129 3251.74 163.111 3247.85 164.164 3243.82 165.278 3239.81 166.391 3235.63 167.574 3231.33 168.811 3227.03 170.049 3222.59 171.352 3218.05 172.704 3213.49 174.057 3208.82 175.469 3204.06 176.927 3199.31 178.383 3194.44 179.896 3189.51 181.447 3184.58 182.997 3179.55 184.598 3174.48 186.23 3169.41 187.863 3164.27 189.54 3159.1 191.242 3153.94 192.944 3148.71 194.684 3143.47 196.442 3138.24 198.202 3132.98 199.992 3127.73 201.793 3122.49 203.596 3117.22 205.423 3112 207.254 3106.75 209.086 3101.53 210.935 3096.36 212.783 3091.2 214.63 3086.05 216.488 3080.98 218.336 3075.91 220.185 3070.96 222.027 3065.96 223.874" stroke="#A5A5A5" stroke-width="1.35045" stroke-linecap="round" stroke-linejoin="round" stroke-miterlimit="10" fill="none" transform="matrix(1.00016 0 0 1 -2130.44 137.571)"/></g><g><path d="M2947.12 312.094C2947.35 312.763 2947.35 313.559 2947.8 314.105 2948.26 314.649 2948.94 315.069 2949.87 315.362 2950.77 315.655 2951.91 315.82 2953.26 315.857 2954.62 315.896 2956.21 315.804 2958.02 315.588 2959.81 315.37 2961.83 315.024 2964.05 314.553 2966.25 314.083 2968.68 313.484 2971.32 312.763 2973.93 312.044 2976.78 311.196 2979.78 310.233 2982.79 309.269 2986.01 308.181 2989.37 306.979 2992.75 305.778 2996.3 304.456 3000.01 303.028 3003.73 301.6 3007.62 300.056 3011.64 298.41 3015.65 296.766 3019.83 295.01 3024.14 293.162 3028.44 291.313 3032.88 289.361 3037.41 287.322 3041.97 285.285 3046.65 283.148 3051.4 280.936 3056.15 278.724 3061.02 276.422 3065.96 274.053 3070.89 271.684 3075.91 269.233 3080.98 266.724 3086.05 264.216 3091.2 261.635 3096.36 259.007 3101.53 256.381 3106.75 253.688 3112 250.961 3117.22 248.235 3122.49 245.567 3127.73 242.646 3132.98 239.725 3138.24 236.427 3143.47 233.438 3148.71 230.448 3153.94 227.635 3159.1 224.714 3164.27 221.791 3169.41 218.845 3174.48 215.908 3179.55 212.972 3184.58 210.021 3189.51 207.093 3194.44 204.164 3199.31 201.233 3204.06 198.334 3208.82 195.435 3213.49 192.625 3218.05 189.701 3222.59 186.777 3227.03 183.64 3231.33 180.791 3235.63 177.941 3239.81 175.28 3243.82 172.604 3247.85 169.928 3251.74 167.295 3255.45 164.736 3259.16 162.177 3262.72 159.672 3266.1 157.249 3269.46 154.827 3272.68 152.468 3275.68 150.201 3278.69 147.934 3281.54 145.741 3284.15 143.646 3286.78 141.552 3289.22 139.54 3291.42 137.635 3293.64 135.73 3295.66 133.916 3297.45 132.214 3299.25 130.513 3300.84 128.91 3302.2 127.425 3303.56 125.94 3304.69 124.561 3305.6 123.304 3306.52 122.047 3307.21 120.903 3307.66 119.883 3308.11 118.864 3308.35 117.963 3308.35 117.189 3308.35 116.415 3308.11 115.764 3307.66 115.242 3307.21 114.719 3306.52 114.323 3305.6 114.056 3304.69 113.79 3303.56 113.651 3302.2 113.643 3300.84 113.634 3299.25 113.755 3297.45 114.004 3295.66 114.253 3293.64 114.633 3291.42 115.138 3289.22 115.643 3286.78 116.279 3284.15 117.037 3281.54 117.794 3278.69 118.681 3275.68 119.686 3272.68 120.69 3269.46 121.821 3266.1 123.066 3262.72 124.31 3259.16 125.677 3255.45 127.151 3251.74 128.626 3247.85 130.219 3243.82 131.912 3239.81 133.606 3235.63 135.413 3231.33 137.313 3227.03 139.213 3222.59 141.303 3218.05 143.313 3213.49 145.322 3208.82 147.195 3204.06 149.373 3199.31 151.55 3194.44 153.968 3189.51 156.378 3184.58 158.788 3179.55 161.281 3174.48 163.83 3169.41 166.38 3164.27 169.005 3159.1 171.675 3153.94 174.346 3148.71 177.082 3143.47 179.853 3138.24 182.625 3132.98 185.567 3127.73 188.303 3122.49 191.039 3117.22 193.488 3112 196.271 3106.75 199.055 3101.53 202.084 3096.36 205.007 3091.2 207.929 3086.05 210.874 3080.98 213.809 3075.91 216.743 3070.89 219.69 3065.96 222.614 3061.02 225.539 3056.15 228.464 3051.4 231.357 3046.65 234.251 3041.97 237.134 3037.41 239.975 3032.88 242.815 3028.44 245.634 3024.14 248.4 3019.83 251.165 3015.65 253.898 3011.64 256.569 3007.62 259.239 3003.73 261.867 3000.01 264.42 2996.3 266.976 2992.75 269.476 2989.37 271.896 2986.01 274.316 2982.79 276.674 2979.78 278.94 2976.78 281.205 2973.93 283.399 2971.32 285.495 2968.68 287.591 2966.25 289.606 2964.05 291.516 2961.83 293.425 2959.81 295.246 2958.02 296.955 2956.21 298.664 2954.62 300.274 2953.26 301.769 2951.91 303.264 2950.77 304.655 2949.87 305.926 2948.94 307.195 2948.26 308.356 2947.8 309.391 2947.35 310.426 2947.12 311.345 2947.12 312.139 2947.12 312.932 2947.35 313.604 2947.8 314.148 2948.26 314.692 2948.94 315.115 2949.87 315.405 2950.77 315.698 2951.91 315.863 2953.26 315.9 2954.62 315.938 2956.21 315.847 2958.02 315.629 2959.81 315.411 2961.83 315.066 2964.05 314.594 2966.25 314.125 2968.68 313.526 2971.32 312.805 2973.93 312.084 2976.78 311.237 2979.78 310.273 2982.79 309.308 2986.01 308.22 2989.37 307.02 2992.75 305.818 2996.3 304.496 3000.01 303.068 3003.73 301.64 3007.62 300.094 3011.64 298.45 3015.65 296.806 3019.83 295.049 3024.14 293.201 3028.44 291.353 3032.88 289.398 3037.41 287.359 3041.97 285.322 3046.65 283.185 3051.4 280.973 3056.15 278.762 3061.02 276.457 3065.96 274.089 3070.89 271.72 3075.91 269.268 3080.98 266.76 3086.05 264.253 3091.2 261.67 3096.36 259.042 3101.53 256.416 3106.75 253.723 3112 250.996 3117.22 248.27 3122.49 245.602 3127.73 242.682 3132.98 239.761 3138.24 236.461 3143.47 233.471 3148.71 230.483 3153.94 227.669 3159.1 224.748 3164.27 221.825 3169.41 218.878 3174.48 215.942 3179.55 213.005 3184.58 210.055 3189.51 207.124 3194.44 204.195 3199.31 201.265 3204.06 198.365 3208.82 195.468 3213.49 192.657 3218.05 189.733 3222.59 186.809 3227.03 183.672 3231.33 180.823 3235.63 177.973 3239.81 175.311 3243.82 172.635 3247.85 169.959 3251.74 167.326 3255.45 164.767 3259.16 162.208 3262.72 159.702 3266.1 157.28 3269.46 154.857 3272.68 152.498 3275.68 150.231 3278.69 147.964 3281.54 145.77 3284.15 143.676 3286.78 141.581 3289.22 139.57 3291.42 137.664 3293.64 135.759 3295.66 133.945 3297.45 132.243 3299.25 130.541 3300.84 128.939 3302.2 127.453 3303.56 125.968 3304.69 124.589 3305.6 123.332 3306.52 122.075 3307.21 120.93 3307.66 119.911 3308.11 118.892 3308.35 117.99 3308.35 117.216 3308.35 116.442 3308.11 115.791 3307.66 115.269 3307.21 114.746 3306.52 114.35 3305.6 114.083 3304.69 113.816 3303.56 113.678 3302.2 113.669 3300.84 113.66 3299.25 113.781 3297.45 114.03 3295.66 114.279 3293.64 114.659 3291.42 115.164 3289.22 115.669 3286.78 116.304 3284.15 117.062 3281.54 117.82 3278.69 118.706 3275.68 119.711 3272.68 120.715 3269.46 121.846 3266.1 123.09 3262.72 124.335 3259.16 125.702 3255.45 127.176 3251.74 128.65 3247.85 130.243 3243.82 131.937 3239.81 133.63 3235.63 135.437 3231.33 137.337 3227.03 139.237 3222.59 141.326 3218.05 143.336 3213.49 145.346 3208.82 147.219 3204.06 149.396 3199.31 151.574 3194.44 153.991 3189.51 156.401 3184.58 158.811 3179.55 161.304 3174.48 163.853 3169.41 166.403 3164.27 169.027 3159.1 171.698 3153.94 174.368 3148.71 177.104 3143.47 179.876 3138.24 182.647 3132.98 185.589 3127.73 188.325 3122.49 191.061 3117.22 193.509 3112 196.293 3106.75 199.076 3101.53 202.105 3096.36 205.028 3091.2 207.951 3086.05 210.896 3080.98 213.83 3075.91 216.765 3070.89 219.709 3065.96 222.636 3061.02 225.561 3056.15 228.486 3051.4 231.379 3046.65 234.273 3041.97 237.156 3037.41 239.994 3032.88 242.835 3028.44 245.654 3024.14 248.419 3019.83 251.185 3015.65 253.919 3011.64 256.589 3007.62 259.258 3003.73 261.886 3000.01 264.442 2996.3 266.996 2992.75 269.496 2989.37 271.916 2986.01 274.336 2982.79 276.693 2979.78 278.958 2976.78 281.225 2973.93 283.419 2971.32 285.515 2968.68 287.611 2966.25 289.624 2964.05 291.535 2961.83 293.445 2959.81 295.264 2958.02 296.973 2956.21 298.681 2954.62 300.292 2953.26 301.789 2951.91 303.284 2950.77 304.674 2949.87 305.943 2948.94 307.214 2948.26 308.373 2947.8 309.408 2947.35 310.444 2947.12 311.363 2947.12 312.156 2947.12 312.95 2947.35 313.622 2947.8 314.166 2948.26 314.71 2948.94 315.132 2949.87 315.423 2950.77 315.716 2951.91 315.881 2953.26 315.918 2954.62 315.955 2956.21 315.865 2958.02 315.647 2959.81 315.429 2961.83 315.083 2964.05 314.612 2966.25 314.14 2968.68 313.541 2971.32 312.822 2973.93 312.101 2976.78 311.255 2979.78 310.29 2982.79 309.326 2986.01 308.236 2989.37 307.036 2992.75 305.835 2996.3 304.511 3000.01 303.083 3003.73 301.655 3007.62 300.111 3011.64 298.465 3015.65 296.821 3019.83 295.065 3024.14 293.217 3028.44 291.368 3032.88 289.414 3037.41 287.377 3041.97 285.338 3046.65 283.201 3051.4 280.989 3056.15 278.777 3061.02 276.473 3065.96 274.104 3070.89 271.735 3075.91 269.284 3080.98 266.776 3086.05 264.267 3091.2 261.686 3096.36 259.058 3101.53 256.432 3106.75 253.739 3112 251.012 3117.22 248.284 3122.49 245.616 3127.73 242.695 3132.98 239.774 3138.24 236.476 3143.47 233.487 3148.71 230.497 3153.94 227.684 3159.1 224.761 3164.27 221.841 3169.41 218.894 3174.48 215.956 3179.55 213.019 3184.58 210.069 3189.51 207.14 3194.44 204.209 3199.31 201.278 3204.06 198.381 3208.82 195.482 3213.49 192.671 3218.05 189.747 3222.59 186.823 3227.03 183.686 3231.33 180.836 3235.63 177.986 3239.81 175.325 3243.82 172.649 3247.85 169.973 3251.74 167.34 3255.45 164.781 3259.16 162.221 3262.72 159.716 3266.1 157.293 3269.46 154.87 3272.68 152.511 3275.68 150.244 3278.69 147.977 3281.54 145.783 3284.15 143.689 3286.78 141.594 3289.22 139.583 3291.42 137.677 3293.64 135.772 3295.66 133.958 3297.45 132.256 3299.25 130.554 3300.84 128.951 3302.2 127.466 3303.56 125.981 3304.69 124.602 3305.6 123.345 3306.52 122.088 3307.21 120.943 3307.66 119.924 3308.11 118.904 3308.35 118.002 3308.35 117.229 3308.35 116.455 3308.11 115.803 3307.66 115.281 3307.21 114.758 3306.52 114.362 3305.6 114.095 3304.69 113.828 3303.56 113.69 3302.2 113.681 3300.84 113.672 3299.25 113.793 3297.45 114.042 3295.66 114.291 3293.64 114.67 3291.42 115.175 3289.22 115.681 3286.78 116.316 3284.15 117.074 3281.54 117.831 3278.69 118.717 3275.68 119.722 3272.68 120.727 3269.46 121.858 3266.1 123.102 3262.72 124.346 3259.16 125.713 3255.45 127.187 3251.74 128.661 3247.85 130.254 3243.82 131.948 3239.81 133.641 3235.63 135.448 3231.33 137.348 3227.03 139.248 3222.59 141.337 3218.05 143.347 3213.49 145.357 3208.82 147.229 3204.06 149.407 3199.31 151.584 3194.44 154.002 3189.51 156.412 3184.58 158.821 3179.55 161.315 3174.48 163.864 3169.41 166.413 3164.27 169.038 3159.1 171.709 3153.94 174.379 3148.71 177.115 3143.47 179.886 3138.24 182.657 3132.98 185.599 3127.73 188.336 3122.49 191.072 3117.22 193.52 3112 196.304 3106.75 199.088 3101.53 202.115 3096.36 205.038 3091.2 207.961 3086.05 210.905 3080.98 213.84 3075.91 216.775 3070.96 219.709 3065.96 222.646" stroke="#FFC000" stroke-width="1.35045" stroke-linecap="round" stroke-linejoin="round" stroke-miterlimit="10" fill="none" transform="matrix(1.00016 0 0 1 -2130.44 137.571)"/></g><g><path d="M2947.12 314.04C2947.35 314.545 2947.35 315.172 2947.8 315.557 2948.26 315.94 2948.94 316.211 2949.87 316.344 2950.77 316.478 2951.91 316.486 2953.26 316.362 2954.62 316.24 2956.21 315.989 2958.02 315.612 2959.81 315.234 2961.83 314.728 2964.05 314.097 2966.25 313.467 2968.68 312.706 2971.32 311.828 2973.93 310.95 2976.78 309.947 2979.78 308.827 2982.79 307.707 2986.01 306.466 2989.37 305.114 2992.75 303.761 2996.3 302.29 3000.01 300.716 3003.73 299.143 3007.62 297.454 3011.64 295.67 3015.65 293.887 3019.83 291.995 3024.14 290.015 3028.44 288.035 3032.88 285.951 3037.41 283.79 3041.97 281.629 3046.65 279.372 3051.4 277.047 3056.15 274.721 3061.02 272.309 3065.96 269.836 3070.89 267.363 3075.91 264.811 3080.98 262.211 3086.05 259.612 3091.2 257.023 3096.36 254.234 3101.53 251.442 3106.75 248.388 3112 245.469 3117.22 242.548 3122.49 239.629 3127.73 236.714 3132.98 233.799 3138.24 230.906 3143.47 227.975 3148.71 225.044 3153.94 222.084 3159.1 219.132 3164.27 216.178 3169.41 213.208 3174.48 210.253 3179.55 207.299 3184.58 204.404 3189.51 201.41 3194.44 198.416 3199.31 195.26 3204.06 192.295 3208.82 189.329 3213.49 186.454 3218.05 183.618 3222.59 180.781 3227.03 178.007 3231.33 175.278 3235.63 172.548 3239.81 169.858 3243.82 167.238 3247.85 164.619 3251.74 162.05 3255.45 159.562 3259.16 157.073 3262.72 154.646 3266.1 152.307 3269.46 149.969 3272.68 147.701 3275.68 145.531 3278.69 143.36 3281.54 141.27 3284.15 139.285 3286.78 137.299 3289.22 135.403 3291.42 133.617 3293.64 131.831 3295.66 130.136 3297.45 128.57 3299.25 127.004 3300.84 125.559 3302.2 124.222 3303.56 122.885 3304.69 121.664 3305.6 120.549 3306.52 119.433 3307.21 118.414 3307.66 117.529 3308.11 116.645 3308.35 115.857 3308.35 115.242 3308.35 114.627 3308.11 114.187 3307.66 113.838 3307.21 113.488 3306.52 113.246 3305.6 113.146 3304.69 113.045 3303.56 113.074 3302.2 113.232 3300.84 113.391 3299.25 113.681 3297.45 114.098 3295.66 114.515 3293.64 115.063 3291.42 115.736 3289.22 116.408 3286.78 117.211 3284.15 118.134 3281.54 119.057 3278.69 120.107 3275.68 121.274 3272.68 122.441 3269.46 123.732 3266.1 125.133 3262.72 126.535 3259.16 128.057 3255.45 129.683 3251.74 131.309 3247.85 133.103 3243.82 134.888 3239.81 136.674 3235.63 138.449 3231.33 140.397 3227.03 142.344 3222.59 144.399 3218.05 146.572 3213.49 148.746 3208.82 151.07 3204.06 153.437 3199.31 155.804 3194.44 158.258 3189.51 160.772 3184.58 163.287 3179.55 165.88 3174.48 168.523 3169.41 171.165 3164.27 173.96 3159.1 176.63 3153.94 179.3 3148.71 181.825 3143.47 184.542 3138.24 187.258 3132.98 190.074 3127.73 192.927 3122.49 195.779 3117.22 198.733 3112 201.659 3106.75 204.584 3101.53 207.539 3096.36 210.485 3091.2 213.433 3086.05 216.396 3080.98 219.342 3075.91 222.288 3070.89 225.241 3065.96 228.164 3061.02 231.086 3056.15 234.003 3051.4 236.881 3046.65 239.761 3041.97 242.621 3037.41 245.432 3032.88 248.244 3028.44 251.028 3024.14 253.75 3019.83 256.475 3015.65 259.158 3011.64 261.774 3007.62 264.389 3003.73 266.954 3000.01 269.441 2996.3 271.928 2992.75 274.354 2989.37 276.693 2986.01 279.033 2982.79 281.303 2979.78 283.478 2976.78 285.652 2973.93 287.748 2971.32 289.742 2968.68 291.734 2966.25 293.639 2964.05 295.436 2961.83 297.234 2959.81 298.937 2958.02 300.52 2956.21 302.103 2954.62 303.576 2953.26 304.936 2951.91 306.295 2950.77 307.544 2949.87 308.682 2948.94 309.817 2948.26 310.848 2947.8 311.75 2947.35 312.649 2947.12 313.441 2947.12 314.083 2947.12 314.726 2947.35 315.215 2947.8 315.6 2948.26 315.983 2948.94 316.252 2949.87 316.387 2950.77 316.521 2951.91 316.527 2953.26 316.405 2954.62 316.283 2956.21 316.032 2958.02 315.653 2959.81 315.276 2961.83 314.769 2964.05 314.136 2966.25 313.506 2968.68 312.748 2971.32 311.87 2973.93 310.992 2976.78 309.986 2979.78 308.866 2982.79 307.747 2986.01 306.505 2989.37 305.154 2992.75 303.8 2996.3 302.329 3000.01 300.756 3003.73 299.182 3007.62 297.493 3011.64 295.709 3015.65 293.926 3019.83 292.032 3024.14 290.052 3028.44 288.072 3032.88 285.988 3037.41 283.827 3041.97 281.667 3046.65 279.41 3051.4 277.084 3056.15 274.758 3061.02 272.344 3065.96 269.871 3070.89 267.398 3075.91 264.847 3080.98 262.248 3086.05 259.647 3091.2 257.058 3096.36 254.267 3101.53 251.478 3106.75 248.423 3112 245.502 3117.22 242.583 3122.49 239.664 3127.73 236.747 3132.98 233.833 3138.24 230.939 3143.47 228.008 3148.71 225.078 3153.94 222.118 3159.1 219.165 3164.27 216.211 3169.41 213.241 3174.48 210.287 3179.55 207.332 3184.58 204.435 3189.51 201.441 3194.44 198.448 3199.31 195.292 3204.06 192.327 3208.82 189.361 3213.49 186.485 3218.05 183.649 3222.59 180.813 3227.03 178.039 3231.33 175.309 3235.63 172.579 3239.81 169.889 3243.82 167.269 3247.85 164.65 3251.74 162.081 3255.45 159.592 3259.16 157.103 3262.72 154.676 3266.1 152.337 3269.46 149.999 3272.68 147.731 3275.68 145.56 3278.69 143.39 3281.54 141.3 3284.15 139.314 3286.78 137.328 3289.22 135.431 3291.42 133.646 3293.64 131.86 3295.66 130.165 3297.45 128.599 3299.25 127.033 3300.84 125.587 3302.2 124.25 3303.56 122.913 3304.69 121.692 3305.6 120.577 3306.52 119.461 3307.21 118.441 3307.66 117.556 3308.11 116.672 3308.35 115.884 3308.35 115.269 3308.35 114.654 3308.11 114.214 3307.66 113.864 3307.21 113.515 3306.52 113.273 3305.6 113.172 3304.69 113.071 3303.56 113.1 3302.2 113.259 3300.84 113.417 3299.25 113.707 3297.45 114.124 3295.66 114.541 3293.64 115.089 3291.42 115.761 3289.22 116.434 3286.78 117.236 3284.15 118.159 3281.54 119.082 3278.69 120.132 3275.68 121.299 3272.68 122.465 3269.46 123.756 3266.1 125.158 3262.72 126.559 3259.16 128.081 3255.45 129.707 3251.74 131.333 3247.85 133.127 3243.82 134.912 3239.81 136.698 3235.63 138.473 3231.33 140.42 3227.03 142.367 3222.59 144.422 3218.05 146.595 3213.49 148.769 3208.82 151.094 3204.06 153.46 3199.31 155.827 3194.44 158.281 3189.51 160.795 3184.58 163.309 3179.55 165.902 3174.48 168.545 3169.41 171.188 3164.27 173.983 3159.1 176.652 3153.94 179.322 3148.71 181.847 3143.47 184.563 3138.24 187.28 3132.98 190.096 3127.73 192.948 3122.49 195.801 3117.22 198.754 3112 201.679 3106.75 204.606 3101.53 207.56 3096.36 210.507 3091.2 213.453 3086.05 216.417 3080.98 219.364 3075.91 222.31 3070.89 225.26 3065.96 228.183 3061.02 231.108 3056.15 234.025 3051.4 236.903 3046.65 239.78 3041.97 242.64 3037.41 245.453 3032.88 248.264 3028.44 251.048 3024.14 253.77 3019.83 256.494 3015.65 259.178 3011.64 261.794 3007.62 264.409 3003.73 266.974 3000.01 269.461 2996.3 271.947 2992.75 274.373 2989.37 276.713 2986.01 279.052 2982.79 281.323 2979.78 283.497 2976.78 285.672 2973.93 287.768 2971.32 289.76 2968.68 291.753 2966.25 293.659 2964.05 295.456 2961.83 297.251 2959.81 298.956 2958.02 300.54 2956.21 302.123 2954.62 303.594 2953.26 304.953 2951.91 306.315 2950.77 307.564 2949.87 308.699 2948.94 309.835 2948.26 310.866 2947.8 311.768 2947.35 312.667 2947.12 313.459 2947.12 314.101 2947.12 314.743 2947.35 315.232 2947.8 315.617 2948.26 316.001 2948.94 316.27 2949.87 316.405 2950.77 316.539 2951.91 316.545 2953.26 316.423 2954.62 316.299 2956.21 316.048 2958.02 315.671 2959.81 315.291 2961.83 314.785 2964.05 314.154 2966.25 313.524 2968.68 312.765 2971.32 311.885 2973.93 311.007 2976.78 310.004 2979.78 308.884 2982.79 307.764 2986.01 306.521 2989.37 305.169 2992.75 303.818 2996.3 302.347 3000.01 300.771 3003.73 299.198 3007.62 297.509 3011.64 295.725 3015.65 293.942 3019.83 292.048 3024.14 290.068 3028.44 288.088 3032.88 286.004 3037.41 283.843 3041.97 281.682 3046.65 279.426 3051.4 277.1 3056.15 274.772 3061.02 272.36 3065.96 269.887 3070.89 267.414 3075.91 264.862 3080.98 262.262 3086.05 259.661 3091.2 257.074 3096.36 254.283 3101.53 251.491 3106.75 248.437 3112 245.518 3117.22 242.597 3122.49 239.678 3127.73 236.763 3132.98 233.846 3138.24 230.953 3143.47 228.022 3148.71 225.093 3153.94 222.133 3159.1 219.179 3164.27 216.225 3169.41 213.255 3174.48 210.3 3179.55 207.346 3184.58 204.449 3189.51 201.455 3194.44 198.464 3199.31 195.306 3204.06 192.341 3208.82 189.375 3213.49 186.499 3218.05 183.663 3222.59 180.826 3227.03 178.053 3231.33 175.323 3235.63 172.593 3239.81 169.902 3243.82 167.283 3247.85 164.663 3251.74 162.094 3255.45 159.605 3259.16 157.117 3262.72 154.689 3266.1 152.35 3269.46 150.012 3272.68 147.744 3275.68 145.574 3278.69 143.403 3281.54 141.313 3284.15 139.327 3286.78 137.341 3289.22 135.444 3291.42 133.658 3293.64 131.873 3295.66 130.177 3297.45 128.611 3299.25 127.045 3300.84 125.6 3302.2 124.263 3303.56 122.926 3304.69 121.705 3305.6 120.589 3306.52 119.473 3307.21 118.453 3307.66 117.569 3308.11 116.684 3308.35 115.896 3308.35 115.281 3308.35 114.666 3308.11 114.226 3307.66 113.877 3307.21 113.527 3306.52 113.285 3305.6 113.184 3304.69 113.083 3303.56 113.112 3302.2 113.27 3300.84 113.429 3299.25 113.718 3297.45 114.136 3295.66 114.553 3293.64 115.1 3291.42 115.773 3289.22 116.445 3286.78 117.248 3284.15 118.17 3281.54 119.093 3278.69 120.144 3275.68 121.31 3272.68 122.477 3269.46 123.768 3266.1 125.169 3262.72 126.571 3259.16 128.093 3255.45 129.718 3251.74 131.344 3247.85 133.138 3243.82 134.923 3239.81 136.709 3235.63 138.484 3231.33 140.431 3227.03 142.378 3222.59 144.433 3218.05 146.606 3213.49 148.78 3208.82 151.104 3204.06 153.471 3199.31 155.838 3194.44 158.292 3189.51 160.806 3184.58 163.32 3179.55 165.913 3174.48 168.556 3169.41 171.199 3164.27 173.993 3159.1 176.663 3153.94 179.333 3148.71 181.858 3143.47 184.574 3138.24 187.29 3132.98 190.106 3127.73 192.959 3122.49 195.811 3117.22 198.764 3112 201.691 3106.75 204.618 3101.53 207.57 3096.36 210.516 3091.2 213.465 3086.05 216.427 3080.98 219.373 3075.91 222.32 3070.96 225.254 3065.96 228.193" stroke="#9900FF" stroke-width="1.35045" stroke-linecap="round" stroke-linejoin="round" stroke-miterlimit="10" fill="none" transform="matrix(1.00016 0 0 1 -2130.44 137.571)"/></g><g><path d="M2947.12 307.792C2947.35 308.462 2947.35 309.257 2947.8 309.803 2948.26 310.347 2948.94 310.768 2949.87 311.06 2950.77 311.353 2951.91 311.518 2953.26 311.555 2954.62 311.595 2956.21 311.502 2958.02 311.286 2959.81 311.068 2961.83 310.723 2964.05 310.251 2966.25 309.782 2968.68 309.182 2971.32 308.462 2973.93 307.741 2976.78 306.894 2979.78 305.93 2982.79 304.965 2986.01 303.877 2989.37 302.677 2992.75 301.475 2996.3 300.153 3000.01 298.725 3003.73 297.297 3007.62 295.751 3011.64 294.107 3015.65 292.462 3019.83 290.706 3024.14 288.858 3028.44 287.01 3032.88 285.055 3037.41 283.016 3041.97 280.979 3046.65 278.842 3051.4 276.63 3056.15 274.419 3061.02 272.114 3065.96 269.746 3070.89 267.377 3075.91 264.925 3080.98 262.417 3086.05 259.908 3091.2 257.327 3096.36 254.699 3101.53 252.073 3106.75 249.482 3112 246.651 3117.22 243.821 3122.49 240.647 3127.73 237.716 3132.98 234.785 3138.24 231.962 3143.47 229.063 3148.71 226.166 3153.94 223.251 3159.1 220.326 3164.27 217.401 3169.41 214.451 3174.48 211.51 3179.55 208.572 3184.58 205.619 3189.51 202.687 3194.44 199.754 3199.31 196.896 3204.06 193.914 3208.82 190.93 3213.49 187.717 3218.05 184.786 3222.59 181.856 3227.03 179.107 3231.33 176.331 3235.63 173.556 3239.81 170.812 3243.82 168.133 3247.85 165.453 3251.74 162.817 3255.45 160.255 3259.16 157.693 3262.72 155.184 3266.1 152.759 3269.46 150.334 3272.68 147.973 3275.68 145.704 3278.69 143.434 3281.54 141.238 3284.15 139.142 3286.78 137.046 3289.22 135.008 3291.42 133.125 3293.64 131.242 3295.66 129.507 3297.45 127.844 3299.25 126.181 3300.84 124.619 3302.2 123.148 3303.56 121.677 3304.69 120.279 3305.6 119.017 3306.52 117.756 3307.21 116.606 3307.66 115.58 3308.11 114.554 3308.35 113.644 3308.35 112.859 3308.35 112.074 3308.11 111.41 3307.66 110.873 3307.21 110.335 3306.52 109.921 3305.6 109.634 3304.69 109.347 3303.56 109.185 3302.2 109.151 3300.84 109.116 3299.25 109.188 3297.45 109.426 3295.66 109.664 3293.64 110.053 3291.42 110.579 3289.22 111.105 3286.78 111.809 3284.15 112.583 3281.54 113.356 3278.69 114.219 3275.68 115.221 3272.68 116.222 3269.46 117.35 3266.1 118.592 3262.72 119.834 3259.16 121.199 3255.45 122.671 3251.74 124.144 3247.85 125.735 3243.82 127.427 3239.81 129.119 3235.63 130.924 3231.33 132.823 3227.03 134.721 3222.59 136.727 3218.05 138.818 3213.49 140.909 3208.82 143.186 3204.06 145.369 3199.31 147.551 3194.44 149.582 3189.51 151.915 3184.58 154.248 3179.55 156.817 3174.48 159.366 3169.41 161.916 3164.27 164.543 3159.1 167.214 3153.94 169.885 3148.71 172.622 3143.47 175.395 3138.24 178.166 3132.98 181.006 3127.73 183.846 3122.49 186.686 3117.22 189.64 3112 192.435 3106.75 195.229 3101.53 197.782 3096.36 200.614 3091.2 203.447 3086.05 206.492 3080.98 209.43 3075.91 212.369 3070.89 215.319 3065.96 218.246 3061.02 221.175 3056.15 224.103 3051.4 226.999 3046.65 229.896 3041.97 232.78 3037.41 235.624 3032.88 238.466 3028.44 241.287 3024.14 244.055 3019.83 246.822 3015.65 249.557 3011.64 252.23 3007.62 254.901 3003.73 257.53 3000.01 260.085 2996.3 262.643 2992.75 265.145 2989.37 267.565 2986.01 269.987 2982.79 272.344 2979.78 274.611 2976.78 276.88 2973.93 279.074 2971.32 281.17 2968.68 283.268 2966.25 285.283 2964.05 287.192 2961.83 289.104 2959.81 290.924 2958.02 292.633 2956.21 294.342 2954.62 295.955 2953.26 297.45 2951.91 298.947 2950.77 300.337 2949.87 301.608 2948.94 302.879 2948.26 304.038 2947.8 305.073 2947.35 306.11 2947.12 307.03 2947.12 307.823 2947.12 308.617 2947.35 309.289 2947.8 309.833 2948.26 310.379 2948.94 310.799 2949.87 311.092 2950.77 311.382 2951.91 311.549 2953.26 311.587 2954.62 311.624 2956.21 311.534 2958.02 311.316 2959.81 311.098 2961.83 310.752 2964.05 310.281 2966.25 309.809 2968.68 309.21 2971.32 308.491 2973.93 307.77 2976.78 306.922 2979.78 305.957 2982.79 304.993 2986.01 303.904 2989.37 302.704 2992.75 301.502 2996.3 300.18 3000.01 298.752 3003.73 297.324 3007.62 295.778 3011.64 294.134 3015.65 292.488 3019.83 290.732 3024.14 288.884 3028.44 287.035 3032.88 285.081 3037.41 283.044 3041.97 281.005 3046.65 278.868 3051.4 276.656 3056.15 274.444 3061.02 272.14 3065.96 269.771 3070.89 267.402 3075.91 264.949 3080.98 262.442 3086.05 259.934 3091.2 257.351 3096.36 254.725 3101.53 252.096 3106.75 249.507 3112 246.677 3117.22 243.846 3122.49 240.67 3127.73 237.739 3132.98 234.809 3138.24 231.984 3143.47 229.087 3148.71 226.188 3153.94 223.274 3159.1 220.35 3164.27 217.423 3169.41 214.474 3174.48 211.534 3179.55 208.593 3184.58 205.641 3189.51 202.708 3194.44 199.776 3199.31 196.92 3204.06 193.935 3208.82 190.952 3213.49 187.738 3218.05 184.808 3222.59 181.877 3227.03 179.128 3231.33 176.352 3235.63 173.577 3239.81 170.833 3243.82 168.153 3247.85 165.474 3251.74 162.838 3255.45 160.275 3259.16 157.713 3262.72 155.205 3266.1 152.779 3269.46 150.354 3272.68 147.993 3275.68 145.723 3278.69 143.454 3281.54 141.258 3284.15 139.162 3286.78 137.065 3289.22 135.028 3291.42 133.145 3293.64 131.261 3295.66 129.526 3297.45 127.863 3299.25 126.2 3300.84 124.638 3302.2 123.167 3303.56 121.696 3304.69 120.297 3305.6 119.036 3306.52 117.774 3307.21 116.625 3307.66 115.598 3308.11 114.572 3308.35 113.661 3308.35 112.877 3308.35 112.092 3308.11 111.428 3307.66 110.89 3307.21 110.353 3306.52 109.938 3305.6 109.651 3304.69 109.364 3303.56 109.203 3302.2 109.168 3300.84 109.133 3299.25 109.204 3297.45 109.443 3295.66 109.68 3293.64 110.07 3291.42 110.596 3289.22 111.122 3286.78 111.825 3284.15 112.599 3281.54 113.372 3278.69 114.235 3275.68 115.237 3272.68 116.238 3269.46 117.366 3266.1 118.608 3262.72 119.85 3259.16 121.214 3255.45 122.687 3251.74 124.159 3247.85 125.75 3243.82 127.442 3239.81 129.134 3235.63 130.939 3231.33 132.838 3227.03 134.736 3222.59 136.742 3218.05 138.833 3213.49 140.924 3208.82 143.201 3204.06 145.383 3199.31 147.566 3194.44 149.597 3189.51 151.93 3184.58 154.263 3179.55 156.831 3174.48 159.381 3169.41 161.931 3164.27 164.557 3159.1 167.228 3153.94 169.9 3148.71 172.637 3143.47 175.409 3138.24 178.181 3132.98 181.02 3127.73 183.86 3122.49 186.7 3117.22 189.654 3112 192.448 3106.75 195.243 3101.53 197.796 3096.36 200.628 3091.2 203.461 3086.05 206.505 3080.98 209.444 3075.91 212.382 3070.89 215.331 3065.96 218.26 3061.02 221.188 3056.15 224.115 3051.4 227.012 3046.65 229.908 3041.97 232.793 3037.41 235.636 3032.88 238.478 3028.44 241.299 3024.14 244.066 3019.83 246.834 3015.65 249.57 3011.64 252.242 3007.62 254.913 3003.73 257.541 3000.01 260.099 2996.3 262.654 2992.75 265.157 2989.37 267.577 2986.01 269.999 2982.79 272.356 2979.78 274.623 2976.78 276.892 2973.93 279.086 2971.32 281.182 2968.68 283.279 2966.25 285.295 2964.05 287.204 2961.83 289.115 2959.81 290.936 2958.02 292.645 2956.21 294.354 2954.62 295.967 2953.26 297.462 2951.91 298.958 2950.77 300.349 2949.87 301.62 2948.94 302.889 2948.26 304.05 2947.8 305.085 2947.35 306.12 2947.12 307.039 2947.12 307.833 2947.12 308.627 2947.35 309.3 2947.8 309.844 2948.26 310.389 2948.94 310.809 2949.87 311.102 2950.77 311.394 2951.91 311.559 2953.26 311.597 2954.62 311.634 2956.21 311.544 2958.02 311.326 2959.81 311.107 2961.83 310.762 2964.05 310.29 2966.25 309.819 2968.68 309.22 2971.32 308.501 2973.93 307.78 2976.78 306.931 2979.78 305.967 2982.79 305.003 2986.01 303.914 2989.37 302.714 2992.75 301.512 2996.3 300.19 3000.01 298.762 3003.73 297.334 3007.62 295.788 3011.64 294.144 3015.65 292.498 3019.83 290.742 3024.14 288.893 3028.44 287.045 3032.88 285.091 3037.41 283.052 3041.97 281.015 3046.65 278.878 3051.4 276.666 3056.15 274.452 3061.02 272.15 3065.96 269.781 3070.89 267.412 3075.91 264.959 3080.98 262.45 3086.05 259.942 3091.2 257.361 3096.36 254.732 3101.53 252.104 3106.75 249.515 3112 246.685 3117.22 243.854 3122.49 240.68 3127.73 237.747 3132.98 234.817 3138.24 231.994 3143.47 229.095 3148.71 226.197 3153.94 223.282 3159.1 220.357 3164.27 217.433 3169.41 214.482 3174.48 211.542 3179.55 208.601 3184.58 205.649 3189.51 202.716 3194.44 199.784 3199.31 196.927 3204.06 193.943 3208.82 190.96 3213.49 187.746 3218.05 184.816 3222.59 181.885 3227.03 179.136 3231.33 176.36 3235.63 173.584 3239.81 170.841 3243.82 168.161 3247.85 165.482 3251.74 162.845 3255.45 160.283 3259.16 157.721 3262.72 155.212 3266.1 152.787 3269.46 150.362 3272.68 148 3275.68 145.731 3278.69 143.461 3281.54 141.265 3284.15 139.169 3286.78 137.072 3289.22 135.035 3291.42 133.152 3293.64 131.268 3295.66 129.533 3297.45 127.87 3299.25 126.207 3300.84 124.645 3302.2 123.174 3303.56 121.703 3304.69 120.304 3305.6 119.043 3306.52 117.781 3307.21 116.631 3307.66 115.605 3308.11 114.578 3308.35 113.668 3308.35 112.884 3308.35 112.099 3308.11 111.434 3307.66 110.897 3307.21 110.359 3306.52 109.945 3305.6 109.658 3304.69 109.371 3303.56 109.209 3302.2 109.174 3300.84 109.14 3299.25 109.211 3297.45 109.449 3295.66 109.687 3293.64 110.076 3291.42 110.602 3289.22 111.128 3286.78 111.832 3284.15 112.605 3281.54 113.379 3278.69 114.241 3275.68 115.243 3272.68 116.244 3269.46 117.373 3266.1 118.614 3262.72 119.856 3259.16 121.221 3255.45 122.693 3251.74 124.165 3247.85 125.756 3243.82 127.448 3239.81 129.14 3235.63 130.945 3231.33 132.844 3227.03 134.742 3222.59 136.748 3218.05 138.839 3213.49 140.93 3208.82 143.206 3204.06 145.389 3199.31 147.572 3194.44 149.602 3189.51 151.935 3184.58 154.268 3179.55 156.837 3174.48 159.386 3169.41 161.936 3164.27 164.563 3159.1 167.234 3153.94 169.905 3148.71 172.642 3143.47 175.414 3138.24 178.186 3132.98 181.025 3127.73 183.865 3122.49 186.705 3117.22 189.659 3112 192.454 3106.75 195.248 3101.53 197.802 3096.36 200.634 3091.2 203.467 3086.05 206.511 3080.98 209.45 3075.91 212.386 3070.96 215.327 3065.96 218.266" stroke="#70AD47" stroke-width="1.35045" stroke-linecap="round" stroke-linejoin="round" stroke-miterlimit="10" fill="none" transform="matrix(1.00016 0 0 1 -2130.44 137.571)"/></g><g><path d="M2947.12 312.921C2947.35 313.494 2947.35 314.189 2947.8 314.639 2948.26 315.089 2948.94 315.421 2949.87 315.621 2950.77 315.822 2951.91 315.894 2953.26 315.843 2954.62 315.79 2956.21 315.61 2958.02 315.305 2959.81 315.001 2961.83 314.569 2964.05 314.013 2966.25 313.459 2968.68 312.779 2971.32 311.98 2973.93 311.18 2976.78 310.257 2979.78 309.22 2982.79 308.183 2986.01 307.022 2989.37 305.755 2992.75 304.486 2996.3 303.099 3000.01 301.61 3003.73 300.121 3007.62 298.518 3011.64 296.819 3015.65 295.122 3019.83 293.313 3024.14 291.417 3028.44 289.522 3032.88 287.522 3037.41 285.444 3041.97 283.366 3046.65 281.191 3051.4 278.944 3056.15 276.699 3061.02 274.364 3065.96 271.967 3070.89 269.571 3075.91 267.094 3080.98 264.566 3086.05 262.036 3091.2 259.435 3096.36 256.793 3101.53 254.149 3106.75 251.527 3112 248.708 3117.22 245.889 3122.49 242.813 3127.73 239.884 3132.98 236.956 3138.24 234.047 3143.47 231.136 3148.71 228.226 3153.94 225.335 3159.1 222.42 3164.27 219.503 3169.41 216.564 3174.48 213.64 3179.55 210.713 3184.58 207.776 3189.51 204.861 3194.44 201.948 3199.31 199.082 3204.06 196.157 3208.82 193.231 3213.49 190.203 3218.05 187.304 3222.59 184.406 3227.03 181.538 3231.33 178.765 3235.63 175.992 3239.81 173.31 3243.82 170.665 3247.85 168.02 3251.74 165.419 3255.45 162.894 3259.16 160.369 3262.72 157.899 3266.1 155.513 3269.46 153.128 3272.68 150.808 3275.68 148.58 3278.69 146.352 3281.54 144.2 3284.15 142.148 3286.78 140.095 3289.22 138.127 3291.42 136.266 3293.64 134.405 3295.66 132.636 3297.45 130.981 3299.25 129.325 3300.84 127.77 3302.2 126.332 3303.56 124.895 3304.69 123.565 3305.6 122.358 3306.52 121.15 3307.21 120.056 3307.66 119.088 3308.11 118.119 3308.35 117.269 3308.35 116.547 3308.35 115.825 3308.11 115.227 3307.66 114.758 3307.21 114.289 3306.52 113.946 3305.6 113.734 3304.69 113.521 3303.56 113.438 3302.2 113.484 3300.84 113.53 3299.25 113.706 3297.45 114.011 3295.66 114.316 3293.64 114.751 3291.42 115.313 3289.22 115.874 3286.78 116.566 3284.15 117.38 3281.54 118.195 3278.69 119.138 3275.68 120.199 3272.68 121.261 3269.46 122.449 3266.1 123.75 3262.72 125.051 3259.16 126.475 3255.45 128.006 3251.74 129.537 3247.85 131.187 3243.82 132.937 3239.81 134.687 3235.63 136.598 3231.33 138.506 3227.03 140.415 3222.59 142.33 3218.05 144.388 3213.49 146.445 3208.82 148.581 3204.06 150.852 3199.31 153.122 3194.44 155.55 3189.51 158.01 3184.58 160.47 3179.55 163.014 3174.48 165.612 3169.41 168.21 3164.27 170.882 3159.1 173.599 3153.94 176.316 3148.71 179.179 3143.47 181.913 3138.24 184.646 3132.98 187.236 3127.73 190.001 3122.49 192.765 3117.22 195.612 3112 198.499 3106.75 201.386 3101.53 204.374 3096.36 207.324 3091.2 210.277 3086.05 213.247 3080.98 216.205 3075.91 219.163 3070.89 222.131 3065.96 225.074 3061.02 228.016 3056.15 230.957 3051.4 233.862 3046.65 236.767 3041.97 239.659 3037.41 242.503 3032.88 245.347 3028.44 248.168 3024.14 250.93 3019.83 253.691 3015.65 256.418 3011.64 259.076 3007.62 261.733 3003.73 264.346 3000.01 266.878 2996.3 269.412 2992.75 271.887 2989.37 274.277 2986.01 276.666 2982.79 278.986 2979.78 281.213 2976.78 283.439 2973.93 285.587 2971.32 287.632 2968.68 289.679 2966.25 291.637 2964.05 293.488 2961.83 295.338 2959.81 297.094 2958.02 298.734 2956.21 300.377 2954.62 301.917 2953.26 303.335 2951.91 304.753 2950.77 306.059 2949.87 307.246 2948.94 308.432 2948.26 309.499 2947.8 310.453 2947.35 311.406 2947.12 312.261 2947.12 312.966 2947.12 313.671 2947.35 314.233 2947.8 314.682 2948.26 315.132 2948.94 315.464 2949.87 315.665 2950.77 315.865 2951.91 315.938 2953.26 315.885 2954.62 315.832 2956.21 315.651 2958.02 315.346 2959.81 315.042 2961.83 314.61 2964.05 314.054 2966.25 313.5 2968.68 312.818 2971.32 312.021 2973.93 311.221 2976.78 310.296 2979.78 309.259 2982.79 308.222 2986.01 307.063 2989.37 305.794 2992.75 304.525 2996.3 303.138 3000.01 301.649 3003.73 300.161 3007.62 298.558 3011.64 296.859 3015.65 295.159 3019.83 293.352 3024.14 291.455 3028.44 289.559 3032.88 287.562 3037.41 285.481 3041.97 283.403 3046.65 281.229 3051.4 278.982 3056.15 276.734 3061.02 274.401 3065.96 272.004 3070.89 269.608 3075.91 267.131 3080.98 264.601 3086.05 262.071 3091.2 259.47 3096.36 256.828 3101.53 254.184 3106.75 251.56 3112 248.743 3117.22 245.925 3122.49 242.847 3127.73 239.918 3132.98 236.989 3138.24 234.082 3143.47 231.171 3148.71 228.26 3153.94 225.37 3159.1 222.453 3164.27 219.536 3169.41 216.598 3174.48 213.671 3179.55 210.746 3184.58 207.808 3189.51 204.895 3194.44 201.982 3199.31 199.116 3204.06 196.189 3208.82 193.263 3213.49 190.235 3218.05 187.336 3222.59 184.437 3227.03 181.57 3231.33 178.796 3235.63 176.023 3239.81 173.341 3243.82 170.695 3247.85 168.05 3251.74 165.45 3255.45 162.924 3259.16 160.399 3262.72 157.929 3266.1 155.543 3269.46 153.158 3272.68 150.837 3275.68 148.61 3278.69 146.382 3281.54 144.229 3284.15 142.177 3286.78 140.124 3289.22 138.156 3291.42 136.295 3293.64 134.434 3295.66 132.665 3297.45 131.009 3299.25 129.354 3300.84 127.798 3302.2 126.361 3303.56 124.923 3304.69 123.593 3305.6 122.386 3306.52 121.178 3307.21 120.084 3307.66 119.115 3308.11 118.147 3308.35 117.296 3308.35 116.574 3308.35 115.853 3308.11 115.254 3307.66 114.785 3307.21 114.316 3306.52 113.973 3305.6 113.76 3304.69 113.548 3303.56 113.464 3302.2 113.51 3300.84 113.556 3299.25 113.732 3297.45 114.037 3295.66 114.341 3293.64 114.777 3291.42 115.338 3289.22 115.899 3286.78 116.591 3284.15 117.405 3281.54 118.22 3278.69 119.163 3275.68 120.224 3272.68 121.286 3269.46 122.473 3266.1 123.774 3262.72 125.075 3259.16 126.499 3255.45 128.03 3251.74 129.562 3247.85 131.211 3243.82 132.961 3239.81 134.711 3235.63 136.622 3231.33 138.53 3227.03 140.438 3222.59 142.354 3218.05 144.411 3213.49 146.469 3208.82 148.604 3204.06 150.875 3199.31 153.145 3194.44 155.573 3189.51 158.033 3184.58 160.493 3179.55 163.036 3174.48 165.634 3169.41 168.232 3164.27 170.905 3159.1 173.622 3153.94 176.338 3148.71 179.201 3143.47 181.935 3138.24 184.668 3132.98 187.258 3127.73 190.022 3122.49 192.787 3117.22 195.633 3112 198.521 3106.75 201.408 3101.53 204.396 3096.36 207.346 3091.2 210.296 3086.05 213.268 3080.98 216.227 3075.91 219.185 3070.89 222.151 3065.96 225.095 3061.02 228.038 3056.15 230.978 3051.4 233.884 3046.65 236.789 3041.97 239.68 3037.41 242.524 3032.88 245.369 3028.44 248.188 3024.14 250.949 3019.83 253.711 3015.65 256.438 3011.64 259.095 3007.62 261.755 3003.73 264.365 3000.01 266.899 2996.3 269.431 2992.75 271.906 2989.37 274.297 2986.01 276.685 2982.79 279.005 2979.78 281.231 2976.78 283.458 2973.93 285.605 2971.32 287.652 2968.68 289.697 2966.25 291.657 2964.05 293.507 2961.83 295.358 2959.81 297.112 2958.02 298.754 2956.21 300.394 2954.62 301.934 2953.26 303.352 2951.91 304.771 2950.77 306.077 2949.87 307.263 2948.94 308.45 2948.26 309.518 2947.8 310.471 2947.35 311.424 2947.12 312.278 2947.12 312.983 2947.12 313.689 2947.35 314.25 2947.8 314.7 2948.26 315.15 2948.94 315.482 2949.87 315.682 2950.77 315.883 2951.91 315.955 2953.26 315.902 2954.62 315.849 2956.21 315.669 2958.02 315.364 2959.81 315.06 2961.83 314.626 2964.05 314.072 2966.25 313.518 2968.68 312.836 2971.32 312.037 2973.93 311.237 2976.78 310.314 2979.78 309.277 2982.79 308.238 2986.01 307.079 2989.37 305.81 2992.75 304.543 2996.3 303.156 3000.01 301.665 3003.73 300.176 3007.62 298.573 3011.64 296.874 3015.65 295.175 3019.83 293.368 3024.14 291.471 3028.44 289.575 3032.88 287.577 3037.41 285.497 3041.97 283.419 3046.65 281.244 3051.4 278.997 3056.15 276.75 3061.02 274.417 3065.96 272.02 3070.89 269.622 3075.91 267.145 3080.98 264.617 3086.05 262.087 3091.2 259.486 3096.36 256.842 3101.53 254.2 3106.75 251.576 3112 248.757 3117.22 245.94 3122.49 242.862 3127.73 239.934 3132.98 237.005 3138.24 234.096 3143.47 231.185 3148.71 228.274 3153.94 225.384 3159.1 222.467 3164.27 219.55 3169.41 216.614 3174.48 213.687 3179.55 210.76 3184.58 207.823 3189.51 204.908 3194.44 201.995 3199.31 199.129 3204.06 196.203 3208.82 193.276 3213.49 190.249 3218.05 187.35 3222.59 184.451 3227.03 181.583 3231.33 178.81 3235.63 176.037 3239.81 173.354 3243.82 170.709 3247.85 168.063 3251.74 165.463 3255.45 162.938 3259.16 160.412 3262.72 157.942 3266.1 155.557 3269.46 153.171 3272.68 150.851 3275.68 148.623 3278.69 146.395 3281.54 144.242 3284.15 142.19 3286.78 140.137 3289.22 138.169 3291.42 136.308 3293.64 134.447 3295.66 132.678 3297.45 131.022 3299.25 129.366 3300.84 127.811 3302.2 126.373 3303.56 124.936 3304.69 123.606 3305.6 122.398 3306.52 121.19 3307.21 120.096 3307.66 119.128 3308.11 118.159 3308.35 117.308 3308.35 116.587 3308.35 115.865 3308.11 115.266 3307.66 114.797 3307.21 114.328 3306.52 113.985 3305.6 113.772 3304.69 113.56 3303.56 113.476 3302.2 113.522 3300.84 113.568 3299.25 113.744 3297.45 114.048 3295.66 114.353 3293.64 114.788 3291.42 115.35 3289.22 115.911 3286.78 116.603 3284.15 117.417 3281.54 118.231 3278.69 119.174 3275.68 120.236 3272.68 121.297 3269.46 122.485 3266.1 123.786 3262.72 125.087 3259.16 126.511 3255.45 128.042 3251.74 129.573 3247.85 131.222 3243.82 132.972 3239.81 134.722 3235.63 136.633 3231.33 138.541 3227.03 140.449 3222.59 142.365 3218.05 144.422 3213.49 146.48 3208.82 148.615 3204.06 150.886 3199.31 153.156 3194.44 155.584 3189.51 158.044 3184.58 160.504 3179.55 163.047 3174.48 165.645 3169.41 168.243 3164.27 170.915 3159.1 173.632 3153.94 176.349 3148.71 179.212 3143.47 181.945 3138.24 184.679 3132.98 187.269 3127.73 190.033 3122.49 192.797 3117.22 195.644 3112 198.53 3106.75 201.418 3101.53 204.406 3096.36 207.356 3091.2 210.308 3086.05 213.278 3080.98 216.236 3075.91 219.195 3070.96 222.149 3065.96 225.105" stroke="#FF0066" stroke-width="1.35045" stroke-linecap="round" stroke-linejoin="round" stroke-miterlimit="10" fill="none" transform="matrix(1.00016 0 0 1 -2130.44 137.571)"/></g><text fill="#595959" font-family="Calibri,Calibri_MSFontService,sans-serif" font-weight="400" font-size="48" transform="matrix(0.196461 0 0 0.196429 796.336 562)">0</text><text fill="#595959" font-family="Calibri,Calibri_MSFontService,sans-serif" font-weight="400" font-size="48" transform="matrix(0.196461 0 0 0.196429 801.051 562)">.</text><text fill="#595959" font-family="Calibri,Calibri_MSFontService,sans-serif" font-weight="400" font-size="48" transform="matrix(0.196461 0 0 0.196429 803.408 562)">2</text><text fill="#595959" font-family="Calibri,Calibri_MSFontService,sans-serif" font-weight="400" font-size="48" transform="matrix(0.196461 0 0 0.196429 791.562 518)">0</text><text fill="#595959" font-family="Calibri,Calibri_MSFontService,sans-serif" font-weight="400" font-size="48" transform="matrix(0.196461 0 0 0.196429 796.277 518)">.</text><text fill="#595959" font-family="Calibri,Calibri_MSFontService,sans-serif" font-weight="400" font-size="48" transform="matrix(0.196461 0 0 0.196429 798.634 518)">25</text><text fill="#595959" font-family="Calibri,Calibri_MSFontService,sans-serif" font-weight="400" font-size="48" transform="matrix(0.196461 0 0 0.196429 796.336 475)">0</text><text fill="#595959" font-family="Calibri,Calibri_MSFontService,sans-serif" font-weight="400" font-size="48" transform="matrix(0.196461 0 0 0.196429 801.051 475)">.</text><text fill="#595959" font-family="Calibri,Calibri_MSFontService,sans-serif" font-weight="400" font-size="48" transform="matrix(0.196461 0 0 0.196429 803.408 475)">3</text><text fill="#595959" font-family="Calibri,Calibri_MSFontService,sans-serif" font-weight="400" font-size="48" transform="matrix(0.196461 0 0 0.196429 791.562 432)">0</text><text fill="#595959" font-family="Calibri,Calibri_MSFontService,sans-serif" font-weight="400" font-size="48" transform="matrix(0.196461 0 0 0.196429 796.277 432)">.</text><text fill="#595959" font-family="Calibri,Calibri_MSFontService,sans-serif" font-weight="400" font-size="48" transform="matrix(0.196461 0 0 0.196429 798.634 432)">35</text><text fill="#595959" font-family="Calibri,Calibri_MSFontService,sans-serif" font-weight="400" font-size="48" transform="matrix(0.196461 0 0 0.196429 796.336 388)">0</text><text fill="#595959" font-family="Calibri,Calibri_MSFontService,sans-serif" font-weight="400" font-size="48" transform="matrix(0.196461 0 0 0.196429 801.051 388)">.</text><text fill="#595959" font-family="Calibri,Calibri_MSFontService,sans-serif" font-weight="400" font-size="48" transform="matrix(0.196461 0 0 0.196429 803.408 388)">4</text><text fill="#595959" font-family="Calibri,Calibri_MSFontService,sans-serif" font-weight="400" font-size="48" transform="matrix(0.196461 0 0 0.196429 791.562 345)">0</text><text fill="#595959" font-family="Calibri,Calibri_MSFontService,sans-serif" font-weight="400" font-size="48" transform="matrix(0.196461 0 0 0.196429 796.277 345)">.</text><text fill="#595959" font-family="Calibri,Calibri_MSFontService,sans-serif" font-weight="400" font-size="48" transform="matrix(0.196461 0 0 0.196429 798.634 345)">45</text><text fill="#595959" font-family="Calibri,Calibri_MSFontService,sans-serif" font-weight="400" font-size="48" transform="matrix(0.196461 0 0 0.196429 796.336 302)">0</text><text fill="#595959" font-family="Calibri,Calibri_MSFontService,sans-serif" font-weight="400" font-size="48" transform="matrix(0.196461 0 0 0.196429 801.051 302)">.</text><text fill="#595959" font-family="Calibri,Calibri_MSFontService,sans-serif" font-weight="400" font-size="48" transform="matrix(0.196461 0 0 0.196429 803.408 302)">5</text><text fill="#595959" font-family="Calibri,Calibri_MSFontService,sans-serif" font-weight="400" font-size="48" transform="matrix(0.196461 0 0 0.196429 791.562 259)">0</text><text fill="#595959" font-family="Calibri,Calibri_MSFontService,sans-serif" font-weight="400" font-size="48" transform="matrix(0.196461 0 0 0.196429 796.277 259)">.</text><text fill="#595959" font-family="Calibri,Calibri_MSFontService,sans-serif" font-weight="400" font-size="48" transform="matrix(0.196461 0 0 0.196429 798.634 259)">55</text><text fill="#595959" font-family="Calibri,Calibri_MSFontService,sans-serif" font-weight="400" font-size="48" transform="matrix(0.196461 0 0 0.196429 796.336 215)">0</text><text fill="#595959" font-family="Calibri,Calibri_MSFontService,sans-serif" font-weight="400" font-size="48" transform="matrix(0.196461 0 0 0.196429 801.051 215)">.</text><text fill="#595959" font-family="Calibri,Calibri_MSFontService,sans-serif" font-weight="400" font-size="48" transform="matrix(0.196461 0 0 0.196429 803.408 215)">6</text><text fill="#595959" font-family="Calibri,Calibri_MSFontService,sans-serif" font-weight="400" font-size="48" transform="matrix(0.196461 0 0 0.196429 814.685 574)">0</text><text fill="#595959" font-family="Calibri,Calibri_MSFontService,sans-serif" font-weight="400" font-size="48" transform="matrix(0.196461 0 0 0.196429 847.239 574)">0</text><text fill="#595959" font-family="Calibri,Calibri_MSFontService,sans-serif" font-weight="400" font-size="48" transform="matrix(0.196461 0 0 0.196429 851.954 574)">.</text><text fill="#595959" font-family="Calibri,Calibri_MSFontService,sans-serif" font-weight="400" font-size="48" transform="matrix(0.196461 0 0 0.196429 854.311 574)">2</text><text fill="#595959" font-family="Calibri,Calibri_MSFontService,sans-serif" font-weight="400" font-size="48" transform="matrix(0.196461 0 0 0.196429 883.368 574)">0</text><text fill="#595959" font-family="Calibri,Calibri_MSFontService,sans-serif" font-weight="400" font-size="48" transform="matrix(0.196461 0 0 0.196429 888.083 574)">.</text><text fill="#595959" font-family="Calibri,Calibri_MSFontService,sans-serif" font-weight="400" font-size="48" transform="matrix(0.196461 0 0 0.196429 890.44 574)">4</text><text fill="#595959" font-family="Calibri,Calibri_MSFontService,sans-serif" font-weight="400" font-size="48" transform="matrix(0.196461 0 0 0.196429 919.497 574)">0</text><text fill="#595959" font-family="Calibri,Calibri_MSFontService,sans-serif" font-weight="400" font-size="48" transform="matrix(0.196461 0 0 0.196429 924.212 574)">.</text><text fill="#595959" font-family="Calibri,Calibri_MSFontService,sans-serif" font-weight="400" font-size="48" transform="matrix(0.196461 0 0 0.196429 926.57 574)">6</text><text fill="#595959" font-family="Calibri,Calibri_MSFontService,sans-serif" font-weight="400" font-size="48" transform="matrix(0.196461 0 0 0.196429 955.626 574)">0</text><text fill="#595959" font-family="Calibri,Calibri_MSFontService,sans-serif" font-weight="400" font-size="48" transform="matrix(0.196461 0 0 0.196429 960.341 574)">.</text><text fill="#595959" font-family="Calibri,Calibri_MSFontService,sans-serif" font-weight="400" font-size="48" transform="matrix(0.196461 0 0 0.196429 962.699 574)">8</text><text fill="#595959" font-family="Calibri,Calibri_MSFontService,sans-serif" font-weight="400" font-size="48" transform="matrix(0.196461 0 0 0.196429 995.331 574)">1</text><text fill="#595959" font-family="Calibri,Calibri_MSFontService,sans-serif" font-weight="400" font-size="48" transform="matrix(0.196461 0 0 0.196429 1027.88 574)">1</text><text fill="#595959" font-family="Calibri,Calibri_MSFontService,sans-serif" font-weight="400" font-size="48" transform="matrix(0.196461 0 0 0.196429 1032.6 574)">.</text><text fill="#595959" font-family="Calibri,Calibri_MSFontService,sans-serif" font-weight="400" font-size="48" transform="matrix(0.196461 0 0 0.196429 1034.96 574)">2</text><text fill="#595959" font-family="Calibri,Calibri_MSFontService,sans-serif" font-weight="400" font-size="48" transform="matrix(0.196461 0 0 0.196429 1064.01 574)">1</text><text fill="#595959" font-family="Calibri,Calibri_MSFontService,sans-serif" font-weight="400" font-size="48" transform="matrix(0.196461 0 0 0.196429 1068.73 574)">.</text><text fill="#595959" font-family="Calibri,Calibri_MSFontService,sans-serif" font-weight="400" font-size="48" transform="matrix(0.196461 0 0 0.196429 1071.09 574)">4</text><text fill="#595959" font-family="Calibri,Calibri_MSFontService,sans-serif" font-weight="400" font-size="48" transform="matrix(0.196461 0 0 0.196429 1100.14 574)">1</text><text fill="#595959" font-family="Calibri,Calibri_MSFontService,sans-serif" font-weight="400" font-size="48" transform="matrix(0.196461 0 0 0.196429 1104.86 574)">.</text><text fill="#595959" font-family="Calibri,Calibri_MSFontService,sans-serif" font-weight="400" font-size="48" transform="matrix(0.196461 0 0 0.196429 1107.22 574)">6</text><text fill="#595959" font-family="Calibri,Calibri_MSFontService,sans-serif" font-weight="400" font-size="48" transform="matrix(0.196461 0 0 0.196429 1136.27 574)">1</text><text fill="#595959" font-family="Calibri,Calibri_MSFontService,sans-serif" font-weight="400" font-size="48" transform="matrix(0.196461 0 0 0.196429 1140.99 574)">.</text><text fill="#595959" font-family="Calibri,Calibri_MSFontService,sans-serif" font-weight="400" font-size="48" transform="matrix(0.196461 0 0 0.196429 1143.34 574)">8</text><text fill="#595959" font-family="Calibri,Calibri_MSFontService,sans-serif" font-weight="400" font-size="48" transform="matrix(0.196461 0 0 0.196429 1175.98 574)">2</text><text fill="#595959" font-family="Calibri,Calibri_MSFontService,sans-serif" font-weight="400" font-size="64" transform="matrix(1.20298e-17 -0.196429 0.196461 1.20278e-17 785.452 385)">cl</text><text fill="#595959" font-family="Calibri,Calibri_MSFontService,sans-serif" font-weight="400" font-size="64" transform="matrix(0.196461 0 0 0.196429 957.866 590)">Incidence </text><text fill="#595959" font-family="Calibri,Calibri_MSFontService,sans-serif" font-weight="400" font-size="64" transform="matrix(0.196461 0 0 0.196429 1009.93 590)">(</text><text fill="#595959" font-family="Calibri,Calibri_MSFontService,sans-serif" font-weight="400" font-size="64" transform="matrix(0.196461 0 0 0.196429 1013.66 590)">deg</text><text fill="#595959" font-family="Calibri,Calibri_MSFontService,sans-serif" font-weight="400" font-size="64" transform="matrix(0.196461 0 0 0.196429 1032.52 590)">)</text><path d="M2947.71 66.4911 3018.42 66.4911 3018.42 176.884 2947.71 176.884Z" stroke="#000000" stroke-width="0.675223" stroke-linejoin="round" stroke-miterlimit="10" fill="#FFFFFF" transform="matrix(1.00016 0 0 1 -2130.44 137.571)"/><path d="M2955.37 74.3482 2972.65 74.3482" stroke="#0066FF" stroke-width="1.35045" stroke-linecap="round" stroke-linejoin="round" stroke-miterlimit="10" fill="none" fill-rule="evenodd" transform="matrix(1.00016 0 0 1 -2130.44 137.571)"/><text fill="#595959" font-family="Calibri,Calibri_MSFontService,sans-serif" font-weight="400" font-size="41" transform="matrix(0.196461 0 0 0.196429 844.547 214)">CFD</text><path d="M2955.37 90.0625 2972.65 90.0625" stroke="#FF00FF" stroke-width="1.35045" stroke-linecap="round" stroke-linejoin="round" stroke-miterlimit="10" fill="none" fill-rule="evenodd" transform="matrix(1.00016 0 0 1 -2130.44 137.571)"/><text fill="#595959" font-family="Calibri,Calibri_MSFontService,sans-serif" font-weight="400" font-size="41" transform="matrix(0.196461 0 0 0.196429 844.547 230)">Potential</text><path d="M2955.37 105.973 2972.65 105.973" stroke="#A5A5A5" stroke-width="1.35045" stroke-linecap="round" stroke-linejoin="round" stroke-miterlimit="10" fill="none" fill-rule="evenodd" transform="matrix(1.00016 0 0 1 -2130.44 137.571)"/><text fill="#595959" font-family="Calibri,Calibri_MSFontService,sans-serif" font-weight="400" font-size="41" transform="matrix(0.196461 0 0 0.196429 844.547 246)">Steady</text><path d="M2955.37 121.688 2972.65 121.688" stroke="#FFC000" stroke-width="1.35045" stroke-linecap="round" stroke-linejoin="round" stroke-miterlimit="10" fill="none" fill-rule="evenodd" transform="matrix(1.00016 0 0 1 -2130.44 137.571)"/><text fill="#595959" font-family="Calibri,Calibri_MSFontService,sans-serif" font-weight="400" font-size="41" transform="matrix(0.196461 0 0 0.196429 844.547 262)">Geometric</text><path d="M2955.37 137.402 2972.65 137.402" stroke="#9900FF" stroke-width="1.35045" stroke-linecap="round" stroke-linejoin="round" stroke-miterlimit="10" fill="none" fill-rule="evenodd" transform="matrix(1.00016 0 0 1 -2130.44 137.571)"/><text fill="#595959" font-family="Calibri,Calibri_MSFontService,sans-serif" font-weight="400" font-size="41" transform="matrix(0.196461 0 0 0.196429 844.547 277)">Motion</text><path d="M2955.37 153.312 2972.65 153.313" stroke="#70AD47" stroke-width="1.35045" stroke-linecap="round" stroke-linejoin="round" stroke-miterlimit="10" fill="none" fill-rule="evenodd" transform="matrix(1.00016 0 0 1 -2130.44 137.571)"/><text fill="#595959" font-family="Calibri,Calibri_MSFontService,sans-serif" font-weight="400" font-size="41" transform="matrix(0.196461 0 0 0.196429 844.547 293)">Vel mean</text><path d="M2955.37 169.027 2972.65 169.027" stroke="#FF0066" stroke-width="1.35045" stroke-linecap="round" stroke-linejoin="round" stroke-miterlimit="10" fill="none" fill-rule="evenodd" transform="matrix(1.00016 0 0 1 -2130.44 137.571)"/><text fill="#595959" font-family="Calibri,Calibri_MSFontService,sans-serif" font-weight="400" font-size="41" transform="matrix(0.196461 0 0 0.196429 844.547 309)">Vel gamma</text><path d="M2895.26 42.7232 3327.6 42.7232 3327.6 460.134 2895.26 460.134Z" stroke="#FFFFFF" stroke-width="0.675223" stroke-linejoin="round" stroke-miterlimit="10" fill="none" transform="matrix(1.00016 0 0 1 -2130.44 137.571)"/></g></svg>