<?xml version="1.0" standalone="no"?>
<!DOCTYPE svg PUBLIC "-//W3C//DTD SVG 20010904//EN"
 "http://www.w3.org/TR/2001/REC-SVG-20010904/DTD/svg10.dtd">
<svg version="1.0" xmlns="http://www.w3.org/2000/svg"
 width="400.000000pt" height="400.000000pt" viewBox="0 0 400.000000 400.000000"
 preserveAspectRatio="xMidYMid meet">
<metadata>
Created by potrace 1.14, written by Peter Selinger 2001-2017
</metadata>
<g transform="translate(0.000000,400.000000) scale(0.100000,-0.100000)"
fill="#000000" stroke="none">
<path d="M2977 3993 c-15 -15 -5 -22 28 -19 26 2 35 -2 35 -13 0 -11 3 -10 14
4 8 11 12 23 10 27 -6 10 -78 11 -87 1z"/>
<path d="M3176 3991 c-3 -5 3 -11 14 -14 11 -3 20 -11 20 -17 0 -7 -7 -10 -15
-7 -18 7 -29 -8 -18 -25 4 -7 7 -23 8 -35 0 -12 3 -25 8 -29 4 -4 7 0 7 9 0
10 7 17 15 17 8 0 14 -4 13 -9 -2 -5 2 -9 7 -10 6 -1 11 4 11 9 1 6 3 13 4 18
6 18 -3 47 -18 60 -13 10 -14 15 -4 18 6 3 10 10 6 15 -7 12 -51 12 -58 0z
m49 -61 c3 -5 -1 -10 -10 -10 -9 0 -13 5 -10 10 3 6 8 10 10 10 2 0 7 -4 10
-10z"/>
<path d="M3510 3989 c0 -5 -8 -6 -17 -3 -11 4 -14 3 -7 -3 13 -10 13 -65 -1
-75 -5 -4 -7 -10 -3 -13 3 -3 12 1 20 8 10 11 19 12 32 5 10 -5 29 -7 43 -3
23 5 25 4 14 -9 -7 -9 -17 -13 -23 -10 -5 3 -16 0 -25 -7 -9 -8 -21 -14 -27
-14 -6 0 -26 -4 -44 -9 -65 -16 -86 40 -45 117 2 4 -13 4 -34 1 -21 -3 -55 -7
-75 -8 -46 -2 -54 -10 -37 -33 17 -23 37 -27 55 -12 11 9 14 8 14 -4 0 -8 3
-17 8 -20 4 -2 1 -2 -6 0 -7 1 -24 -4 -38 -13 -20 -14 -27 -14 -40 -3 -8 7 3
-15 26 -49 22 -34 42 -62 44 -62 2 0 2 10 -2 22 -4 17 -2 20 12 15 14 -5 15
-3 6 13 -5 10 -10 23 -10 29 0 18 46 12 63 -7 13 -14 29 -18 62 -16 29 2 45
-2 45 -9 0 -8 4 -7 9 2 8 12 12 12 26 -3 10 -9 24 -15 31 -12 26 10 2 -24 -27
-38 -16 -8 -27 -10 -24 -5 4 5 1 9 -4 9 -6 0 -11 -8 -11 -17 -1 -17 -2 -17
-14 0 -14 18 -14 18 -18 0 -3 -10 2 -30 9 -45 12 -26 12 -28 -6 -28 -13 0 -18
5 -15 14 7 17 -5 25 -47 30 -27 3 -30 2 -19 -8 26 -20 45 -48 31 -44 -8 2 -15
-5 -16 -14 -4 -21 -4 -21 29 -8 22 8 26 7 26 -9 0 -10 -7 -21 -15 -25 -8 -3
-15 -2 -15 3 0 11 -40 22 -52 15 -14 -9 13 -36 29 -30 19 8 28 -21 13 -39 -7
-8 -9 -15 -4 -15 5 0 2 -6 -7 -13 -8 -7 -18 -20 -22 -30 -4 -10 -11 -16 -16
-12 -5 3 -12 1 -16 -5 -13 -21 22 -9 45 15 22 24 47 35 36 16 -8 -12 19 -33
29 -23 5 4 5 2 2 -4 -3 -6 -23 -11 -43 -12 -58 -2 -62 -19 -7 -27 44 -6 46 -8
28 -21 -16 -12 -17 -14 -2 -14 9 0 17 -4 17 -10 0 -5 -6 -10 -14 -10 -13 0
-26 -20 -26 -41 0 -5 7 -9 15 -9 22 0 18 -17 -6 -23 -12 -3 -19 -12 -17 -19 3
-7 -2 -19 -9 -27 -8 -8 -13 -21 -10 -30 2 -9 -2 -23 -10 -30 -8 -7 -12 -18
-10 -25 3 -6 -8 -12 -27 -13 -47 -3 -76 -12 -76 -24 0 -5 10 -14 23 -20 22
-10 22 -10 0 -5 -12 2 -24 -1 -26 -8 -3 -8 -9 -7 -20 3 -9 7 -15 16 -13 20 2
3 -1 15 -5 26 -8 18 -9 17 -5 -3 4 -22 2 -23 -28 -18 -18 3 -35 3 -39 0 -7 -8
17 -34 32 -34 6 0 11 -5 11 -11 0 -5 -5 -7 -11 -3 -12 7 -32 10 -79 13 -14 1
-32 6 -40 11 -13 9 -13 11 0 19 23 15 6 23 -25 11 -28 -11 -49 -5 -28 8 6 4
-13 7 -43 8 -32 0 -59 6 -67 13 -10 11 -8 13 10 8 16 -3 24 0 28 13 3 10 19
23 35 29 34 11 42 42 10 36 -11 -2 -18 0 -15 6 10 16 -16 10 -45 -11 -15 -11
-30 -17 -34 -13 -3 3 -6 -7 -6 -23 -1 -25 -2 -26 -11 -11 -6 9 -7 27 -3 39 5
17 3 20 -11 15 -9 -4 -26 0 -38 8 -11 8 -30 12 -42 9 -16 -4 -22 -1 -22 11 0
11 6 15 18 12 13 -3 16 0 12 12 -5 13 -3 12 9 -2 18 -24 71 -20 76 6 3 13 -3
17 -27 17 -21 0 -31 5 -31 16 0 8 -4 13 -9 10 -5 -3 -14 1 -21 9 -8 10 -18 11
-35 5 -17 -7 -27 -5 -36 6 -7 9 -21 13 -32 10 -33 -8 -47 3 -37 30 11 29 -4
32 -37 9 -15 -10 -24 -12 -28 -4 -5 7 -13 5 -26 -7 -10 -9 -16 -21 -13 -25 7
-12 -7 -11 -26 1 -12 8 -12 10 3 16 26 10 20 27 -8 22 -17 -4 -25 -1 -25 8 0
8 -5 14 -11 14 -8 0 -9 4 0 13 6 8 8 17 4 20 -11 12 -56 8 -72 -7 -9 -7 -28
-16 -43 -20 -27 -6 -32 4 -14 33 6 10 5 12 -2 7 -7 -4 -12 -3 -12 2 0 13 59
33 74 25 6 -3 1 3 -10 15 -12 11 -24 27 -26 34 -4 11 -8 10 -21 -1 -15 -12
-17 -11 -17 2 0 9 -9 21 -20 27 -16 9 -20 8 -20 -6 0 -16 -1 -16 -18 -1 -22
20 -37 11 -20 -12 10 -13 10 -14 -2 -3 -18 16 -30 15 -30 -2 0 -8 -7 -16 -15
-20 -28 -10 -16 -27 17 -24 26 2 33 -1 35 -17 2 -17 2 -17 -5 -3 -7 17 -9 17
-39 -2 -17 -10 -37 -29 -44 -42 -12 -22 -11 -23 8 -5 27 23 31 22 25 -10 l-5
-28 22 23 c21 21 79 31 94 16 6 -6 -30 -63 -48 -76 -20 -14 4 -22 85 -28 8 0
2 -7 -15 -15 -16 -7 -26 -14 -22 -14 5 -1 1 -11 -7 -22 -8 -12 -12 -28 -9 -36
3 -7 2 -13 -3 -11 -5 2 -10 0 -12 -4 -3 -10 0 -11 22 -2 10 4 21 2 25 -5 8
-12 41 -5 41 8 0 4 11 13 26 19 33 16 115 -3 107 -24 -6 -16 12 -19 22 -5 3 6
17 6 36 -1 21 -7 27 -14 20 -21 -5 -5 -18 -6 -28 -2 -10 5 -24 7 -30 6 -7 -1
-22 3 -34 9 -21 12 -54 -3 -44 -20 3 -5 1 -11 -4 -14 -13 -9 -32 19 -25 38 11
28 -14 17 -57 -24 -32 -31 -38 -41 -26 -46 9 -3 13 -12 10 -20 -6 -17 18 -19
35 -2 9 9 12 8 12 -6 0 -15 3 -16 14 -7 11 10 15 9 18 -5 2 -14 8 -12 31 11
15 15 28 26 28 24 7 -21 4 -51 -6 -59 -13 -11 -9 -57 6 -66 5 -3 9 -1 9 5 0 5
9 13 21 16 18 6 20 12 15 40 -7 38 3 48 44 47 18 0 36 9 51 25 l24 26 -37 -6
c-23 -3 -40 -1 -44 5 -4 7 -2 8 5 4 6 -4 23 0 38 9 14 9 22 12 19 6 -5 -7 4
-11 26 -11 18 -1 44 -7 57 -14 21 -12 22 -14 5 -20 -11 -4 -20 -3 -22 3 -6 17
-16 13 -48 -14 -16 -14 -23 -25 -16 -25 8 0 10 -5 5 -12 -4 -7 -9 -22 -10 -33
-3 -19 -9 -25 -50 -52 -17 -12 -17 -12 1 -6 13 4 17 3 12 -5 -4 -7 -4 -12 1
-12 10 1 68 78 76 103 7 18 13 21 59 31 20 5 26 10 21 23 -5 12 -3 14 7 8 13
-8 50 -16 128 -29 29 -4 41 -16 17 -16 -14 0 -15 -3 -5 -15 7 -8 17 -12 23 -8
30 18 149 -11 140 -34 -3 -7 0 -13 7 -13 6 0 8 5 5 10 -8 12 27 13 78 1 47
-11 56 -19 37 -31 -12 -8 -11 -10 7 -10 12 0 23 5 25 11 5 15 57 -7 85 -37 12
-14 29 -24 35 -23 28 3 36 -2 34 -26 0 -14 -4 -25 -8 -25 -5 0 -8 -7 -8 -16 0
-8 4 -13 8 -10 4 2 14 1 22 -4 10 -6 21 -3 33 7 17 16 17 15 9 -8 -7 -18 -17
-24 -40 -24 -17 0 -28 -4 -25 -8 3 -5 17 -8 31 -7 52 4 58 1 34 -16 -13 -9
-22 -26 -22 -40 0 -27 28 -44 40 -24 4 7 15 10 25 7 9 -4 14 -3 10 3 -3 6 -15
10 -25 10 -27 0 -32 15 -12 33 28 25 57 25 60 0 2 -17 10 -23 27 -23 43 0 55
-10 48 -38 -4 -17 -2 -23 6 -18 6 4 11 17 11 29 1 20 1 21 11 4 9 -14 7 -21
-7 -32 -11 -7 -22 -11 -25 -9 -4 2 -12 -3 -19 -11 -6 -7 -19 -11 -28 -8 -14 5
-15 3 -5 -7 8 -9 16 -10 25 -3 14 10 46 10 73 -1 11 -4 15 -13 12 -26 -3 -12
-1 -17 5 -14 5 3 12 -3 15 -15 3 -11 9 -18 14 -16 4 3 13 -4 19 -15 8 -14 19
-20 41 -18 25 2 28 4 15 14 -9 6 -13 14 -10 17 10 9 36 -21 29 -33 -3 -5 -3
-15 1 -21 4 -8 13 -4 25 12 10 13 19 18 19 11 0 -16 -56 -72 -73 -72 -7 0 -6
-4 3 -10 9 -6 18 -6 24 0 17 17 36 11 36 -10 0 -12 -5 -17 -14 -14 -9 3 -13
-1 -13 -12 1 -11 -6 -20 -18 -22 -17 -4 -18 -2 -6 12 11 13 11 16 0 19 -8 2
-36 11 -64 20 -44 15 -51 15 -61 2 -6 -8 -15 -15 -19 -15 -4 0 -2 6 4 14 9 11
9 15 -1 20 -7 3 4 4 24 2 31 -4 38 -1 43 15 4 12 13 18 21 15 8 -3 24 -1 36 3
21 8 21 10 5 16 -10 4 -21 5 -24 1 -3 -3 -12 -1 -18 4 -9 7 -16 6 -25 -5 -7
-8 -19 -15 -26 -15 -8 0 -14 -4 -14 -10 0 -5 -8 -10 -18 -10 -23 0 -47 -46
-29 -54 9 -3 9 -5 0 -5 -7 -1 -10 -8 -7 -16 5 -11 11 -12 24 -5 10 6 22 10 25
10 11 0 -24 -31 -52 -45 l-28 -15 25 0 25 -1 -22 -16 c-13 -8 -23 -22 -23 -30
0 -13 3 -13 16 -2 20 16 42 20 49 9 3 -5 13 -6 22 -3 10 4 14 2 10 -4 -4 -6
10 -9 33 -9 45 1 46 3 26 25 -10 11 -12 21 -6 31 8 12 10 10 10 -7 0 -20 5
-22 31 -19 46 5 76 -13 71 -40 -3 -17 0 -22 14 -20 11 2 19 7 19 12 0 18 17
34 36 34 10 0 19 -4 19 -10 0 -5 -6 -10 -14 -10 -8 0 -17 -7 -20 -15 -4 -11 0
-15 12 -13 11 2 17 -3 16 -14 -1 -10 3 -15 8 -12 5 3 7 12 4 20 -3 7 0 16 6
20 6 4 8 3 5 -3 -12 -19 16 -42 40 -33 21 9 21 11 21 294 0 157 -2 286 -5 286
-3 0 -12 -8 -19 -17 -7 -10 -15 -15 -18 -12 -3 3 5 21 19 39 27 36 35 77 13
64 -10 -6 -10 -5 -1 7 8 10 12 68 12 186 1 164 0 172 -20 178 -11 4 -26 1 -34
-5 -10 -8 -15 -9 -15 -2 0 10 32 25 55 27 17 0 18 45 2 45 -9 0 -18 -6 -20
-12 -4 -10 -6 -10 -6 -1 -1 6 4 15 9 18 13 8 13 45 0 45 -5 0 -7 -7 -4 -15 4
-9 -1 -18 -11 -21 -23 -9 -92 63 -76 79 8 8 11 8 11 -1 0 -15 32 0 64 29 23
22 35 17 16 -6 -7 -8 -8 -15 -2 -15 23 0 30 31 31 139 1 73 -2 118 -10 127 -8
10 -8 14 0 14 7 0 11 30 10 90 l-1 90 -94 -2 c-52 -1 -97 -5 -100 -10 -3 -4
-13 -4 -22 1 -9 4 -39 9 -66 10 -39 1 -55 -4 -74 -21 -20 -18 -24 -19 -19 -5
4 9 3 17 -1 18 -4 0 -17 2 -29 5 -17 3 -23 -1 -23 -14 0 -14 -2 -14 -9 -3 -10
16 -51 23 -51 10z m387 -22 c-5 -15 -20 -18 -37 -7 -13 9 -13 11 -1 19 17 11
43 3 38 -12z m47 -22 c3 -8 1 -15 -3 -15 -5 0 -11 7 -15 15 -3 8 -1 15 3 15 5
0 11 -7 15 -15z m-77 -72 c-20 -20 -64 -8 -47 12 13 16 53 24 59 12 2 -5 -3
-16 -12 -24z m-119 -25 c-2 -12 -8 -23 -14 -25 -7 -2 -10 6 -7 22 6 30 26 34
21 3z m9 -44 c-3 -3 -12 -4 -19 -1 -8 3 -5 6 6 6 11 1 17 -2 13 -5z m-33 -10
c9 -4 21 -14 26 -24 8 -15 6 -17 -10 -13 -11 3 -20 13 -20 22 -1 14 -2 14 -14
-1 -7 -10 -18 -18 -23 -18 -6 0 -16 -7 -23 -15 -11 -13 -8 -15 14 -15 27 0 35
-13 15 -26 -8 -5 -8 -9 1 -14 7 -5 3 -12 -14 -23 -24 -16 -25 -16 -19 0 5 13
3 15 -13 9 -10 -5 -24 -9 -31 -9 -7 0 -10 -4 -7 -9 3 -5 9 -6 14 -3 4 3 11 -2
14 -11 3 -8 10 -12 16 -9 5 3 10 1 10 -4 0 -6 -9 -11 -20 -11 -11 0 -23 -7
-26 -15 -4 -8 -10 -15 -16 -15 -5 0 -6 5 -3 11 4 6 -2 13 -14 16 -23 6 -29 23
-7 23 8 0 17 -7 20 -16 6 -16 26 -11 26 7 0 6 -5 7 -12 3 -6 -4 -8 -3 -4 4 3
6 2 13 -4 17 -6 4 -1 22 13 47 35 64 42 73 57 76 8 2 17 8 18 13 4 11 14 11
36 3z m102 -3 c-3 -5 -16 -11 -28 -14 -22 -6 -22 -5 -4 8 22 17 40 20 32 6z
m-254 -53 c-7 -7 -12 -8 -12 -2 0 6 3 14 7 17 3 4 9 5 12 2 2 -3 -1 -11 -7
-17z m273 1 c4 -6 4 -13 0 -17 -3 -3 -10 0 -15 8 -7 10 -10 11 -10 3 0 -7 -5
-13 -11 -13 -8 0 -8 5 1 15 15 18 26 19 35 4z m85 -13 c0 -3 -4 -8 -10 -11 -5
-3 -10 -1 -10 4 0 6 5 11 10 11 6 0 10 -2 10 -4z m30 -6 c0 -5 -5 -10 -11 -10
-5 0 -7 5 -4 10 3 6 8 10 11 10 2 0 4 -4 4 -10z m-426 -21 c-3 -5 -10 -7 -15
-3 -5 3 -7 10 -3 15 3 5 10 7 15 3 5 -3 7 -10 3 -15z m250 12 c4 -5 1 -11 -5
-13 -8 -3 -8 -14 -1 -40 7 -25 7 -39 -1 -47 -8 -8 -6 -11 6 -11 11 0 14 -5 10
-16 -4 -10 -8 -12 -13 -5 -3 6 -26 13 -49 16 -24 2 -40 1 -36 -3 3 -4 12 -7
18 -8 7 0 19 -2 27 -2 10 -1 15 -14 16 -35 1 -17 -1 -27 -3 -20 -3 8 -13 3
-27 -14 l-23 -27 5 32 c3 27 1 31 -12 26 -9 -3 -16 -13 -16 -22 0 -13 -3 -12
-20 3 -23 21 -16 39 11 32 20 -5 28 18 8 25 -15 5 0 36 21 43 11 3 22 16 26
28 8 26 36 66 46 67 4 0 9 -4 12 -9z m59 -42 c3 -12 9 -19 14 -16 4 3 14 -1
20 -9 8 -8 9 -15 3 -19 -6 -3 -10 -1 -10 5 0 7 -8 9 -20 5 -17 -5 -20 -2 -20
22 -1 25 -2 26 -14 11 -7 -10 -16 -15 -19 -11 -6 6 21 32 34 33 4 0 9 -9 12
-21z m-329 -60 c-4 -8 0 -9 15 -4 12 4 21 2 21 -4 0 -6 -16 -11 -36 -11 -31 0
-35 2 -24 15 14 17 35 21 24 4z m311 -68 c-3 -11 1 -26 10 -35 9 -9 13 -16 8
-16 -4 0 -2 -4 4 -8 7 -4 14 -19 15 -32 2 -19 -1 -24 -14 -22 -12 2 -16 -2
-12 -13 8 -19 21 -19 32 1 8 15 12 15 37 1 l29 -14 -23 -8 c-17 -5 -20 -9 -11
-15 9 -6 7 -10 -9 -15 -11 -3 -21 -11 -21 -16 0 -12 17 -12 25 1 4 6 11 7 17
4 7 -5 3 -10 -9 -15 -13 -4 -24 -20 -28 -39 -5 -23 -11 -29 -24 -25 -11 3 -28
-4 -43 -18 -21 -20 -28 -22 -43 -11 -9 7 -24 10 -33 7 -10 -4 -13 -2 -8 5 4 7
2 12 -5 12 -6 0 -9 -8 -6 -20 3 -13 0 -20 -10 -20 -10 0 -13 6 -9 16 6 15 4
15 -19 0 -14 -9 -25 -12 -25 -6 0 5 9 15 20 22 11 7 20 19 20 27 0 11 -4 11
-18 -2 -23 -21 -39 -22 -22 -2 10 12 7 12 -19 -1 -21 -11 -31 -23 -31 -39 0
-23 -24 -40 -42 -29 -5 4 -5 -4 2 -17 12 -23 12 -23 -6 -6 -18 17 -18 19 -1
31 9 7 17 18 17 25 0 6 4 11 10 11 5 0 7 7 4 15 -4 9 0 15 10 15 9 0 16 5 16
11 0 12 29 38 43 39 5 0 5 -4 2 -10 -4 -6 5 -10 19 -10 17 0 26 5 26 16 0 9
-6 14 -13 11 -8 -3 -20 -1 -28 4 -12 8 -12 10 1 18 8 5 17 8 21 5 4 -2 10 3
13 12 5 13 2 15 -13 11 -12 -3 -22 1 -25 9 -4 10 3 14 25 14 18 0 28 4 24 10
-15 24 12 7 29 -19 11 -15 27 -33 37 -40 17 -10 18 -8 8 16 -5 14 -7 33 -5 40
3 8 0 13 -7 12 -24 -3 -37 1 -37 11 0 6 8 10 18 8 13 -2 17 4 16 25 -1 17 4
27 13 27 7 0 18 11 23 25 11 29 34 35 25 6z m-340 -11 c3 -5 1 -10 -4 -10 -6
0 -11 5 -11 10 0 6 2 10 4 10 3 0 8 -4 11 -10z m20 -60 c3 -5 1 -10 -4 -10 -6
0 -11 5 -11 10 0 6 2 10 4 10 3 0 8 -4 11 -10z m415 -34 c0 -6 -4 -5 -9 3 -5
7 -13 11 -19 7 -11 -7 -24 18 -15 28 8 8 43 -24 43 -38z m-1453 22 c6 -7 13
-21 16 -30 5 -14 0 -17 -32 -14 -20 1 -43 6 -49 10 -21 13 -13 35 16 39 15 2
30 5 33 6 4 0 11 -5 16 -11z m-77 -38 c0 -5 -7 -7 -15 -4 -8 4 -12 10 -9 15 6
11 24 2 24 -11z m1084 -44 c-10 -8 -21 -12 -24 -10 -5 6 21 24 34 24 6 0 1 -6
-10 -14z m-792 -3 c-15 -3 -22 -10 -18 -19 3 -8 -1 -14 -8 -14 -9 0 -12 7 -9
20 4 14 13 20 32 19 24 -2 24 -2 3 -6z m-155 -16 c13 5 13 3 2 -18 -7 -15 -14
-19 -17 -11 -2 6 -7 10 -11 8 -4 -3 -8 5 -8 16 -2 15 1 18 9 10 6 -6 17 -8 25
-5z m1457 -12 c-4 -8 -10 -12 -15 -9 -11 6 -2 24 11 24 5 0 7 -7 4 -15z m-397
-25 c1 -11 -2 -20 -5 -20 -4 0 -8 9 -9 20 -1 11 2 20 5 20 4 0 8 -9 9 -20z
m-122 -10 c3 -5 1 -10 -4 -10 -6 0 -11 5 -11 10 0 6 2 10 4 10 3 0 8 -4 11
-10z m76 -19 c15 -26 15 -29 -2 -39 -10 -7 -27 -12 -36 -12 -16 1 -16 2 2 16
16 12 17 16 6 23 -9 6 -10 11 -2 15 6 4 9 12 6 17 -4 5 -3 9 2 9 4 0 15 -13
24 -29z m-914 0 c1 -14 -4 -17 -21 -14 -29 6 -30 28 -1 31 14 1 21 -5 22 -17z
m35 -16 c0 -5 -5 -11 -11 -13 -6 -2 -11 4 -11 13 0 9 5 15 11 13 6 -2 11 -8
11 -13z m1275 -28 c4 -7 0 -8 -11 -4 -10 4 -24 7 -32 7 -8 0 -14 4 -14 9 0 11
49 1 57 -12z m-1184 -2 c1 -5 -6 -11 -15 -13 -11 -2 -18 3 -18 13 0 17 30 18
33 0z m742 -33 c-8 -8 -52 11 -52 23 0 8 4 12 8 9 4 -2 11 1 15 7 4 8 11 3 20
-12 7 -13 11 -25 9 -27z m245 6 c0 -16 -3 -19 -11 -11 -6 6 -8 16 -5 22 11 17
16 13 16 -11z m104 7 c4 -11 0 -15 -12 -13 -9 2 -16 -3 -14 -9 1 -7 -6 -13
-15 -13 -14 0 -12 4 7 25 28 30 26 29 34 10z m113 -10 c-4 -8 -14 -15 -23 -15
-16 0 -16 2 1 20 20 22 31 20 22 -5z m-1377 11 c0 -11 -19 -15 -25 -6 -3 5 1
10 9 10 9 0 16 -2 16 -4z m1110 -7 c0 -5 4 -7 10 -4 6 3 7 -1 4 -9 -3 -9 -10
-16 -16 -16 -5 0 -6 5 -2 12 5 7 2 9 -9 5 -11 -4 -14 -2 -10 9 6 16 23 19 23
3z m93 -6 c-7 -2 -19 -2 -25 0 -7 3 -2 5 12 5 14 0 19 -2 13 -5z m-310 -34
c-3 -11 -13 -23 -22 -26 -69 -21 -90 -54 -28 -42 23 4 49 3 59 -2 11 -6 18 -6
18 0 0 5 14 14 31 20 39 13 39 13 39 1 0 -6 -11 -15 -25 -20 -28 -11 -31 -20
-12 -39 10 -10 9 -11 -6 -5 -13 5 -16 2 -11 -10 3 -9 11 -13 18 -9 6 3 1 -5
-12 -19 -12 -13 -19 -28 -15 -32 5 -4 -4 -2 -19 5 -20 8 -25 16 -18 24 6 7 6
15 -2 23 -8 8 -5 9 13 6 17 -4 20 -3 10 4 -7 5 -10 15 -7 21 4 6 3 11 -3 11
-5 0 -17 3 -25 6 -12 5 -15 2 -10 -12 4 -15 4 -16 -4 -5 -7 9 -20 12 -41 8
-17 -4 -31 -2 -31 2 0 5 -2 16 -5 23 -7 18 31 59 48 52 7 -2 22 4 32 16 23 26
35 26 28 -1z m387 -3 c0 -3 -4 -8 -10 -11 -5 -3 -10 -1 -10 4 0 6 5 11 10 11
6 0 10 -2 10 -4z m-30 -27 c0 -6 -4 -7 -10 -4 -5 3 -10 11 -10 16 0 6 5 7 10
4 6 -3 10 -11 10 -16z m-80 -2 c0 -7 -12 -14 -27 -15 l-28 -2 25 14 c14 8 26
14 28 15 1 1 2 -5 2 -12z m-434 -52 c8 -8 21 -12 29 -9 8 4 15 2 16 -2 0 -5 2
-17 4 -27 3 -16 -1 -15 -38 5 -40 23 -60 48 -37 48 6 0 18 -7 26 -15z m509
-35 c-3 -5 -10 -10 -16 -10 -5 0 -9 5 -9 10 0 6 7 10 16 10 8 0 12 -4 9 -10z
m-120 -60 c3 -5 2 -10 -4 -10 -5 0 -13 5 -16 10 -3 6 -2 10 4 10 5 0 13 -4 16
-10z m105 -30 c12 -8 11 -10 -7 -10 -13 0 -23 5 -23 10 0 13 11 13 30 0z m51
-3 c-6 -8 -8 -17 -4 -21 4 -4 0 -4 -10 0 -22 8 -22 21 1 27 9 3 19 5 21 6 2 0
-2 -5 -8 -12z m53 2 c3 -3 -4 -5 -14 -6 -11 -1 -20 2 -20 7 0 8 25 8 34 -1z
m-189 -48 c-3 -6 -11 -11 -17 -11 -6 0 -6 6 2 15 14 17 26 13 15 -4z m-215
-21 c0 -5 -4 -10 -10 -10 -5 0 -10 5 -10 10 0 6 5 10 10 10 6 0 10 -4 10 -10z
m323 3 c-7 -2 -13 -12 -13 -20 0 -9 -3 -14 -6 -10 -10 10 4 37 18 36 10 0 10
-2 1 -6z m-237 -51 c-9 -9 -37 8 -31 18 5 8 11 7 21 -1 8 -6 12 -14 10 -17z
m276 -90 c4 -12 -1 -18 -13 -19 -22 -2 -24 3 -6 22 15 18 14 18 19 -3z m-79
-9 c-7 -2 -19 -2 -25 0 -7 3 -2 5 12 5 14 0 19 -2 13 -5z m153 -29 c0 -21 -2
-32 -4 -25 -5 16 -30 14 -40 -5 -8 -14 -10 -13 -23 2 -12 16 -12 17 1 10 8 -4
6 0 -5 10 -16 13 -17 16 -3 11 10 -3 20 -2 24 4 3 6 12 8 20 5 8 -3 14 1 14 9
0 8 4 15 8 15 4 0 8 -16 8 -36z m-196 18 c0 -4 -9 -8 -20 -9 -11 -1 -20 2 -20
5 0 4 9 8 20 9 11 1 20 -2 20 -5z m-60 -12 c0 -5 -5 -10 -11 -10 -5 0 -7 5 -4
10 3 6 8 10 11 10 2 0 4 -4 4 -10z m160 -15 c7 -9 11 -17 8 -20 -2 -2 -12 4
-21 15 -9 11 -13 20 -8 20 5 0 14 -7 21 -15z m-100 -25 c-8 -5 -19 -10 -25
-10 -5 0 -3 5 5 10 8 5 20 10 25 10 6 0 3 -5 -5 -10z m221 -34 c-7 -8 -21 -12
-32 -9 -19 5 -18 7 8 23 29 18 43 9 24 -14z m-84 -85 c3 -11 13 -21 24 -24 10
-3 19 -12 19 -21 0 -17 -15 -22 -25 -7 -8 15 -52 6 -75 -14 -30 -27 -24 0 8
36 15 17 26 35 25 40 -2 5 2 9 8 9 6 0 13 -9 16 -19z m49 10 c-4 -5 0 -12 6
-14 7 -3 1 -6 -14 -6 -29 -1 -38 13 -15 22 20 9 29 8 23 -2z m-230 -73 c-1
-13 -7 -27 -14 -31 -11 -7 -11 -11 0 -24 11 -14 11 -15 -1 -11 -9 2 -16 20
-17 46 -2 34 1 42 15 42 12 0 17 -8 17 -22z m274 -22 c0 -3 -4 -8 -10 -11 -5
-3 -10 -1 -10 4 0 6 5 11 10 11 6 0 10 -2 10 -4z m-320 -16 c0 -5 -2 -10 -4
-10 -3 0 -8 5 -11 10 -3 6 -1 10 4 10 6 0 11 -4 11 -10z m260 -24 c0 -3 -4 -8
-10 -11 -5 -3 -10 -1 -10 4 0 6 5 11 10 11 6 0 10 -2 10 -4z"/>
<path d="M3750 3639 c0 -5 5 -7 10 -4 6 3 10 8 10 11 0 2 -4 4 -10 4 -5 0 -10
-5 -10 -11z"/>
<path d="M3800 3464 c0 -22 2 -25 15 -14 12 10 13 16 4 26 -16 20 -19 18 -19
-12z"/>
<path d="M3888 3403 c7 -3 16 -2 19 1 4 3 -2 6 -13 5 -11 0 -14 -3 -6 -6z"/>
<path d="M3730 3356 c-6 -8 -10 -25 -8 -38 2 -14 -2 -22 -9 -20 -7 1 -13 -3
-13 -9 0 -6 7 -9 15 -5 8 3 15 1 15 -4 0 -6 9 -6 23 -1 13 5 35 7 49 4 20 -4
29 0 38 17 13 25 4 42 -11 20 -8 -11 -9 -9 -5 11 5 24 3 26 -22 21 -15 -3 -29
-9 -32 -13 -3 -4 -12 -4 -20 1 -10 7 -11 10 -2 10 6 0 12 5 12 10 0 15 -16 12
-30 -4z"/>
<path d="M7 3958 c-3 -18 -5 -916 -5 -1995 l-1 -1963 133 0 c131 0 133 0 146
25 15 28 32 32 50 10 14 -17 0 -21 -16 -5 -6 6 -10 3 -11 -10 -2 -22 28 -23
49 -2 17 17 28 15 21 -3 -5 -14 6 -16 73 -14 71 3 104 13 104 34 0 3 9 16 21
28 11 12 19 18 18 12 -2 -5 3 -21 10 -34 12 -22 14 -22 23 -7 5 9 7 25 3 35
-5 16 -1 18 30 14 26 -3 35 0 35 12 0 8 -8 15 -17 15 -15 0 -16 2 -3 10 18 11
41 -6 34 -25 -4 -9 1 -13 14 -12 12 0 19 4 16 8 -9 15 18 20 47 9 34 -14 35
-18 12 -37 -17 -13 -16 -14 5 -10 14 3 22 0 22 -8 0 -7 6 -16 13 -18 9 -4 8
-8 -3 -16 -13 -9 -13 -11 2 -11 9 0 20 5 23 11 4 6 19 7 36 4 18 -4 29 -2 29
4 0 6 -8 8 -17 4 -15 -5 -15 -3 2 11 20 17 20 17 -2 13 -13 -3 -25 -2 -28 2
-4 7 8 10 50 12 11 1 14 3 8 6 -7 3 -13 9 -13 15 0 12 30 43 30 31 0 -4 5 0
11 10 15 26 29 11 22 -23 -4 -23 -2 -30 11 -30 12 0 14 -7 10 -29 -6 -27 -4
-28 43 -34 26 -4 317 -7 647 -7 569 -1 598 0 591 17 -16 42 -135 685 -135 731
l0 29 78 -27 c60 -22 78 -32 80 -49 2 -12 8 -19 13 -16 10 7 8 -23 -3 -40 -3
-5 -9 -48 -13 -94 -6 -74 -5 -83 8 -78 12 4 14 1 10 -16 -12 -47 -15 -200 -4
-193 8 5 9 -14 5 -67 -8 -90 3 -190 19 -184 7 2 67 73 134 158 117 147 122
156 122 199 -1 25 -4 58 -8 73 -6 26 -13 19 -129 -128 -68 -85 -125 -155 -127
-155 -2 0 -1 10 2 23 5 21 29 54 181 251 66 86 68 95 48 181 l-11 50 -24 -40
c-14 -22 -45 -67 -71 -100 -25 -33 -63 -82 -83 -108 -33 -43 -37 -46 -37 -24
0 27 22 51 35 39 5 -4 5 -1 1 6 -5 8 18 47 62 106 38 51 76 106 85 122 15 28
19 30 89 32 40 2 85 5 99 7 35 6 44 -17 65 -160 29 -209 35 -241 67 -390 l32
-150 563 -3 562 -2 0 332 0 332 -27 23 -28 23 28 23 28 23 -2 156 c0 111 -4
162 -14 174 -12 17 -13 16 -19 -4 -6 -17 -16 -22 -44 -24 l-37 -1 33 -4 c17
-2 32 -7 32 -11 -1 -17 -18 -31 -45 -35 l-30 -4 32 -2 31 -1 -18 -47 c-15 -42
-22 -48 -49 -51 -35 -4 -32 -22 3 -22 20 0 25 -6 29 -42 3 -24 6 -88 6 -143 1
-158 9 -324 17 -337 4 -7 3 -8 -4 -4 -7 4 -12 2 -12 -5 0 -10 -3 -10 -11 -2
-6 6 -12 23 -11 37 0 15 -4 29 -9 32 -5 2 -6 18 -3 33 4 18 -2 46 -15 76 -12
26 -21 64 -21 84 0 60 -10 81 -36 81 -19 0 -29 11 -48 47 -13 27 -42 83 -65
126 -22 43 -41 83 -41 90 0 24 -55 74 -89 80 -18 4 -42 19 -54 33 -17 22 -21
24 -29 11 -11 -20 -57 -8 -72 18 -6 11 -17 25 -23 33 -7 7 -13 18 -13 24 0 6
-3 8 -6 5 -7 -7 -54 42 -54 56 0 4 13 7 29 7 35 0 61 9 61 21 0 5 -31 9 -70 9
-40 0 -70 4 -70 10 0 6 8 10 17 10 10 0 41 6 71 12 l53 13 -1 60 c-1 33 -1 64
-1 68 1 5 13 -5 27 -22 14 -17 32 -31 40 -31 19 0 18 35 -1 54 -22 22 -19 26
20 26 27 0 35 4 35 18 0 9 11 22 25 29 14 6 25 7 25 2 0 -12 47 -12 52 1 1 5
30 12 62 16 44 5 57 4 52 -4 -5 -8 2 -12 18 -12 17 0 26 5 26 16 0 12 6 15 23
10 12 -3 28 -6 35 -6 7 0 12 -13 12 -31 0 -29 1 -30 22 -15 27 19 68 21 68 4
0 -8 8 -4 16 7 11 14 18 16 21 8 8 -21 20 -15 19 9 -1 15 -9 24 -26 29 l-25 6
24 4 c14 2 26 10 29 17 5 15 -21 15 -143 2 -49 -6 -121 -13 -160 -16 -111 -9
-229 -21 -240 -24 -5 -1 -22 -2 -37 -1 l-28 1 0 93 0 94 38 -2 c39 -1 37 2 41
-66 1 -22 48 -34 69 -17 12 10 14 10 8 1 -8 -14 6 -16 42 -7 33 9 31 60 -3 66
-14 3 -22 1 -18 -5 9 -14 -18 -27 -57 -26 l-35 1 30 10 c17 6 38 17 48 26 9 8
17 11 17 6 0 -5 5 -1 11 9 5 9 15 17 20 17 6 0 8 -4 4 -9 -3 -5 0 -13 6 -17 8
-5 10 1 7 20 -3 14 -2 26 1 27 28 5 121 7 121 2 0 -16 -36 -31 -53 -22 -24 13
-42 2 -26 -17 9 -11 8 -14 -5 -14 -9 0 -16 -5 -16 -10 0 -9 20 -8 73 7 9 2 17
0 17 -6 0 -6 -13 -11 -30 -11 -16 0 -30 -5 -30 -11 0 -5 -4 -8 -8 -5 -4 2 -13
-4 -20 -15 -7 -11 -8 -19 -2 -19 5 0 10 4 10 10 0 5 21 7 49 3 74 -9 101 1
101 37 0 28 33 60 48 46 3 -3 1 -6 -5 -6 -6 0 -13 -9 -16 -20 -6 -23 8 -27 17
-5 3 8 11 15 18 14 10 0 10 -2 1 -6 -22 -8 -14 -31 17 -47 17 -8 30 -10 30 -5
0 5 7 9 15 9 8 0 15 3 15 6 0 12 -30 35 -39 30 -5 -3 -11 0 -14 8 -4 9 3 16
16 20 34 9 40 7 28 -8 -9 -10 -8 -16 3 -26 9 -6 20 -9 26 -5 5 3 10 1 10 -4 0
-6 4 -11 9 -11 8 0 9 20 2 62 0 4 -8 5 -16 2 -8 -4 -15 -1 -15 6 0 6 10 10 23
8 21 -3 22 0 24 79 2 71 0 81 -13 76 -9 -3 -20 0 -24 7 -5 8 -9 9 -14 1 -4 -6
-3 -11 3 -11 6 0 8 -7 5 -15 -4 -8 -1 -15 6 -15 6 0 8 -5 5 -10 -4 -6 -11 -8
-16 -5 -5 4 -9 1 -9 -4 0 -6 -10 -11 -23 -11 -13 0 -29 -6 -35 -12 -10 -10
-15 -10 -22 2 -10 17 -8 20 17 25 10 2 19 4 21 5 1 2 6 3 11 4 14 2 26 16 13
16 -6 0 -14 9 -17 20 -4 11 -11 18 -16 15 -5 -4 -9 1 -9 9 0 9 4 16 9 16 5 0
17 3 26 6 10 4 15 2 13 -7 -3 -13 11 -15 58 -10 16 2 19 151 3 151 -9 0 -8 4
1 15 8 9 11 48 9 118 -3 100 -4 105 -25 103 -12 0 -20 -4 -18 -8 2 -4 0 -9 -6
-13 -9 -6 -15 8 -11 29 1 5 -6 3 -16 -5 -30 -24 -39 -34 -41 -44 0 -5 -9 -12
-19 -14 -10 -2 -24 -8 -30 -13 -9 -7 -13 -7 -13 1 0 14 -27 14 -35 0 -9 -13
23 -49 43 -49 12 0 12 -3 2 -15 -17 -20 -25 -19 -39 8 l-11 22 6 -22 c4 -19 2
-22 -12 -16 -11 4 -23 -2 -36 -18 -20 -24 -20 -24 -15 -2 6 28 -7 38 -23 18
-9 -10 -9 -15 -1 -15 6 0 11 -4 11 -10 0 -5 -9 -10 -19 -10 -10 0 -21 -7 -25
-15 -7 -18 5 -20 23 -2 11 10 14 9 18 -1 4 -10 8 -10 19 -1 11 9 14 9 14 0 0
-6 -7 -14 -15 -17 -8 -4 -12 -10 -9 -15 3 -5 -1 -9 -9 -9 -21 0 -36 -41 -25
-69 l8 -24 23 21 22 21 0 -40 c1 -21 -3 -39 -8 -39 -4 0 -6 4 -2 9 7 13 -21
20 -69 18 -29 -2 -40 -7 -42 -19 -3 -23 24 -23 54 -2 12 8 22 11 22 5 0 -5 -5
-13 -11 -17 -8 -4 -7 -9 2 -15 9 -6 10 -9 2 -9 -13 0 -12 -17 5 -47 18 -32 15
-52 -10 -74 -14 -10 -18 -18 -10 -19 7 0 11 -4 8 -8 -3 -5 -31 -7 -63 -6 -34
1 -50 -1 -39 -5 25 -10 6 -22 -22 -14 -17 4 -21 11 -17 31 2 14 8 28 12 31 4
3 9 14 10 24 1 13 -4 17 -15 12 -10 -4 -30 -9 -46 -12 -40 -8 -26 12 18 27 26
8 33 15 29 30 -3 10 -11 16 -18 14 -9 -4 -12 1 -8 14 4 19 -2 20 -94 27 -186
13 -228 20 -224 35 9 36 5 44 -29 52 -61 14 -189 15 -195 1 -2 -7 -15 -13 -27
-13 -13 0 -33 -3 -45 -6 -24 -7 -18 -19 22 -42 19 -11 18 -11 -7 -12 -14 0
-28 4 -30 9 -1 5 -17 12 -34 15 -29 6 -31 5 -43 -34 -16 -53 -48 -83 -82 -76
-26 5 -26 5 -32 -74 -4 -47 -14 -95 -25 -117 -12 -24 -18 -50 -15 -70 l5 -32
110 -3 c61 -2 115 0 121 4 7 4 10 21 9 37 -2 16 2 39 8 50 7 14 7 21 0 21 -14
0 -13 37 3 43 9 3 9 7 0 19 -7 8 -10 18 -6 21 3 4 2 7 -3 7 -5 0 -10 14 -10
31 -1 31 -1 31 37 25 22 -3 39 -2 39 3 0 5 -6 9 -12 8 -32 -1 -72 5 -61 9 7 3
9 12 6 19 -3 8 2 22 11 30 9 9 16 24 16 33 0 15 2 15 10 2 5 -8 10 -10 10 -4
0 5 6 18 13 28 10 14 13 -25 15 -219 l2 -237 -70 5 c-64 4 -70 3 -70 -14 0
-13 -7 -19 -24 -19 -42 0 -56 -11 -56 -41 0 -16 -5 -29 -11 -29 -6 0 -9 9 -6
20 3 11 2 20 -2 20 -4 0 -5 14 -3 32 4 28 2 30 -17 25 -11 -3 -24 -1 -27 4 -3
5 -10 7 -15 4 -5 -3 -6 1 -2 11 5 15 7 15 15 0 8 -14 13 -14 31 -4 12 7 40 13
62 14 22 1 57 2 78 3 23 0 36 5 32 11 -4 6 -55 10 -121 10 l-114 0 0 -30 c0
-21 5 -30 16 -30 9 0 24 -20 37 -50 11 -27 27 -50 34 -50 7 0 13 -4 13 -10 0
-5 -5 -10 -11 -10 -15 0 -4 -32 48 -137 l46 -92 -23 -80 c-12 -45 -28 -85 -35
-91 -14 -11 -282 -37 -291 -27 -21 20 50 101 97 111 32 6 32 6 13 27 -29 33
-53 42 -70 28 -8 -6 -14 -8 -14 -4 0 4 -6 2 -14 -5 -8 -6 -43 -20 -78 -31
l-63 -19 -26 32 -27 32 -33 -26 c-19 -14 -49 -40 -68 -57 -33 -32 -39 -33 -96
-11 -25 10 -65 47 -65 61 0 6 -4 7 -10 4 -5 -3 -7 0 -4 8 3 8 -2 39 -10 68 -9
29 -16 74 -16 101 0 47 -1 48 -30 48 -16 0 -30 -4 -30 -9 0 -5 -6 -11 -13 -14
-10 -4 -14 5 -14 29 0 37 23 59 46 45 10 -6 9 -12 -4 -25 -12 -12 -13 -16 -3
-16 28 0 34 14 21 50 -6 19 -12 31 -12 25 -1 -13 -71 -18 -86 -5 -8 6 -18 5
-31 -5 -22 -16 -60 -20 -68 -6 -4 5 0 12 6 14 10 4 10 6 0 6 -8 1 -25 -8 -39
-19 -14 -11 -37 -20 -52 -21 -25 -1 -24 -2 7 -11 21 -7 32 -17 32 -29 0 -11 5
-19 11 -19 5 0 8 4 5 9 -3 4 6 6 19 3 31 -6 22 -22 -12 -22 -39 0 -18 -14 22
-15 32 -2 35 1 36 29 1 17 1 34 0 39 0 4 3 7 9 7 5 0 10 -9 10 -21 0 -18 4
-20 30 -14 19 4 30 3 30 -4 0 -6 -15 -11 -32 -11 l-33 -1 23 -19 22 -18 -52
-18 c-29 -10 -55 -19 -58 -19 -3 -1 -18 -7 -34 -14 -20 -8 -31 -9 -36 -1 -9
14 0 70 11 70 5 0 9 5 9 11 0 5 -5 7 -10 4 -6 -3 -10 3 -10 14 0 11 -4 23 -10
26 -5 3 -10 1 -10 -4 0 -6 -5 -11 -10 -11 -6 0 -9 5 -8 12 2 6 -6 13 -17 15
-11 1 -14 0 -7 -3 6 -3 12 -10 12 -15 0 -6 -4 -8 -9 -4 -5 3 -12 1 -16 -5 -14
-22 -35 -10 -35 20 0 28 8 35 38 31 7 -1 15 5 18 14 3 8 16 14 28 14 16 -1 17
-2 4 -6 -10 -2 -18 -10 -18 -18 0 -10 5 -11 24 -2 29 14 24 32 -12 46 -19 6
-21 10 -9 10 29 1 8 21 -22 21 -32 0 -61 24 -39 33 10 4 10 8 -2 16 -12 8 -5
11 28 11 43 0 61 19 20 21 -17 1 -19 2 -5 6 23 6 22 23 -3 23 -18 0 -20 7 -21
80 -1 44 -2 86 -3 93 -1 7 9 11 24 9 25 -3 25 -2 5 14 -16 14 -17 16 -2 11 26
-9 22 22 -5 32 -18 6 -19 9 -5 14 21 8 22 43 2 51 -22 8 -21 76 1 76 13 0 15
8 10 43 -3 23 -8 62 -11 87 -16 123 -35 116 -35 -13 0 -54 4 -86 9 -79 7 11
10 10 15 -3 8 -23 8 -27 -3 -21 -11 7 -24 -180 -17 -242 4 -34 1 -44 -12 -48
-44 -14 -50 -22 -66 -96 -4 -19 -13 -28 -26 -28 -19 0 -20 7 -20 95 0 52 1 98
3 103 1 4 13 7 26 7 24 1 24 3 21 70 -2 39 -4 86 -6 105 -1 19 -3 83 -4 142
l-2 106 -34 -3 c-28 -2 -34 0 -34 16 0 16 8 19 48 20 66 2 95 -2 107 -11 7 -6
11 8 12 40 2 32 -2 52 -11 57 -33 20 -89 176 -86 246 2 63 -17 41 -22 -26 -3
-35 -12 -75 -19 -90 -13 -25 -14 -23 -16 35 -2 33 0 65 4 71 7 12 10 87 3 87
-3 0 -5 22 -4 49 0 52 -13 105 -16 66 -2 -11 -2 -27 -1 -35 2 -13 1 -13 -8 0
-5 8 -7 18 -4 24 3 5 1 6 -5 2 -7 -4 -12 -31 -13 -59 -1 -41 -3 -47 -9 -27 -4
14 -8 44 -9 68 -1 23 -5 42 -10 42 -5 0 -11 19 -15 42 -5 32 -9 39 -16 28 -9
-13 -11 -13 -20 0 -7 11 -10 4 -10 -27 0 -25 -5 -43 -11 -43 -6 0 -9 7 -5 15
3 9 0 15 -9 15 -10 0 -13 -9 -10 -35 6 -40 -10 -47 -26 -12 -6 13 -17 24 -25
24 -20 0 -18 -8 11 -39 14 -15 25 -34 25 -42 0 -36 18 -22 24 19 4 25 11 45
15 45 10 0 25 -89 17 -98 -3 -3 -6 2 -6 11 0 30 -18 18 -23 -15 -4 -29 1 -40
24 -50 3 -2 9 -45 12 -96 5 -71 4 -92 -6 -91 -29 4 -35 -3 -34 -35 0 -19 5
-32 9 -30 4 3 11 -2 14 -10 3 -9 10 -13 15 -10 5 3 9 1 9 -5 0 -5 -4 -11 -10
-13 -6 -2 -10 -45 -11 -98 -1 -77 -4 -99 -20 -118 l-19 -25 -1 24 c-1 33 -10
241 -11 257 -1 12 -8 15 -40 15 -10 0 -18 4 -18 10 0 5 12 7 29 4 l28 -6 1
130 c0 105 -2 129 -14 129 -8 0 -14 9 -14 20 0 11 -4 20 -10 20 -5 0 -10 7
-10 15 0 8 -6 15 -12 15 -9 0 -8 4 2 10 9 6 10 10 3 10 -6 0 -20 -11 -30 -24
-18 -22 -19 -44 -18 -309 1 -158 -2 -292 -7 -299 -4 -7 -8 41 -8 107 0 66 -3
197 -6 290 -5 139 -9 172 -22 183 -13 10 -13 12 -1 13 8 0 4 4 -9 10 -21 8
-22 11 -9 24 14 13 15 38 5 143 -1 7 -9 10 -20 6 -10 -3 -18 -1 -18 5 0 6 -4
11 -10 11 -5 0 -10 -7 -10 -16 0 -14 -3 -14 -15 -4 -9 7 -18 10 -22 6 -3 -3
-1 -6 6 -6 7 0 9 -5 6 -10 -4 -6 -1 -9 6 -8 8 2 14 -10 16 -29 3 -36 -10 -43
-26 -15 -9 13 -10 9 -7 -20 6 -52 -15 -49 -41 5 -20 41 -20 41 -21 12 0 -19
10 -40 26 -57 29 -31 23 -51 -7 -24 -17 16 -24 16 -49 5 -24 -10 -29 -19 -29
-43 1 -17 8 -37 17 -44 8 -7 11 -12 5 -11 -21 3 -30 -2 -18 -9 7 -4 16 -24 19
-42 6 -30 5 -33 -7 -20 -8 8 -13 14 -13 12 2 -4 -32 -132 -42 -157 -4 -11 -12
-24 -18 -28 -8 -6 -7 -10 2 -14 6 -2 12 -11 12 -19 0 -8 7 -14 15 -14 8 0 15
8 15 19 0 14 6 17 26 13 14 -2 28 -11 31 -18 7 -19 23 -18 23 2 0 9 7 14 18
12 18 -3 27 -54 11 -64 -5 -3 -9 5 -10 18 l0 23 -9 -23 c-8 -18 -14 -21 -27
-14 -10 5 -23 7 -30 5 -6 -2 -13 4 -16 14 -4 17 -5 17 -6 1 0 -10 -4 -19 -8
-19 -5 -1 -18 -3 -31 -4 -13 -1 -28 -7 -35 -14 -20 -20 -37 -12 -37 19 0 17
-3 30 -7 30 -5 0 -7 -46 -5 -102 4 -107 -2 -153 -18 -143 -6 3 -11 -6 -11 -22
l-1 -28 -7 30 c-6 25 -11 30 -34 28 -27 -2 -27 -2 -27 68 0 63 -11 88 -23 57
-3 -7 -6 -4 -7 7 -1 18 -2 18 -11 -4 -6 -15 -14 -21 -25 -17 -9 3 -21 3 -27
-1 -7 -5 5 -10 28 -13 39 -5 40 -6 43 -48 2 -27 -1 -42 -6 -38 -6 3 -8 15 -5
27 5 17 2 20 -17 17 -20 -3 -23 -10 -26 -60 -2 -39 1 -58 9 -58 8 0 8 -3 0
-11 -8 -8 -7 -18 3 -37 8 -15 14 -33 14 -41 0 -11 3 -11 15 -1 13 11 15 8 15
-14 0 -17 4 -25 11 -21 5 4 9 17 8 28 -5 69 2 138 14 134 6 -2 11 -16 9 -31
-3 -24 -1 -26 17 -17 27 15 31 14 31 -8 0 -10 7 -25 16 -32 15 -12 16 -11 9
10 -5 18 -4 22 6 16 11 -6 12 -5 2 6 -18 19 -17 53 2 46 12 -5 13 10 8 98 l-5
103 48 8 c66 10 133 8 167 -5 27 -10 27 -12 13 -33 -19 -27 -22 -114 -3 -121
9 -4 9 -6 0 -6 -8 -1 -13 -15 -13 -38 0 -28 3 -34 10 -23 8 13 9 13 14 0 13
-44 16 -50 23 -49 32 5 52 -2 47 -18 -5 -15 -3 -15 11 2 16 19 17 19 13 -10
-3 -26 0 -30 25 -33 25 -3 28 0 25 20 -2 19 2 24 25 26 20 2 27 9 27 24 0 18
4 20 38 15 21 -4 43 -15 51 -27 7 -11 22 -20 33 -20 16 0 19 -5 16 -25 -5 -22
-2 -25 24 -25 26 0 28 3 22 26 -6 24 -4 25 21 22 24 -3 30 2 42 32 11 28 12
30 10 9 -3 -18 3 -32 15 -40 20 -15 25 -64 7 -75 -6 -3 -15 0 -20 7 -6 10 -9
11 -9 2 0 -7 -7 -13 -16 -13 -8 0 -12 -4 -9 -10 7 -11 -114 -3 -156 10 -14 4
-32 4 -40 -1 -17 -11 -32 -12 -25 -1 2 4 -10 6 -29 4 -18 -2 -43 1 -55 8 -15
8 -20 8 -16 1 5 -7 -2 -10 -18 -9 -16 2 -26 9 -26 18 0 13 -1 13 -10 0 -6 -10
-10 -11 -10 -2 0 6 -9 12 -20 12 -17 0 -20 7 -21 53 l-2 52 -7 -60 c-4 -33 -8
-86 -9 -117 -1 -47 2 -58 15 -58 10 0 14 6 10 15 -3 8 -1 15 4 15 6 0 10 -10
10 -22 0 -17 3 -19 9 -9 14 22 19 1 22 -109 4 -93 2 -105 -13 -108 -13 -2 -16
1 -12 12 5 12 2 15 -10 10 -13 -5 -16 3 -18 52 l-1 59 -7 -45 -7 -45 -1 43
c-1 24 -6 41 -11 38 -5 -4 -11 -2 -13 4 -2 7 -13 6 -31 -2 -23 -11 -28 -19
-26 -48 2 -56 0 -70 -12 -70 -5 0 -7 5 -4 10 10 17 -5 11 -27 -10 -31 -29 -38
-25 -38 23 0 41 -18 97 -31 97 -7 0 -2 -116 5 -136 3 -7 50 -12 136 -12 125
-2 133 -1 152 21 18 20 18 19 -1 -10 -18 -27 -21 -47 -22 -165 -1 -73 -3 -125
-6 -116 -4 16 -6 16 -19 3 -19 -18 -34 -19 -35 -2 0 6 -4 2 -9 -11 -10 -23
-38 -27 -52 -7 -4 6 -8 -11 -8 -37 0 -27 5 -48 10 -48 6 0 10 -5 10 -11 0 -5
-4 -7 -10 -4 -10 6 -12 -13 -12 -105 0 -24 -4 -51 -8 -60 -6 -9 -10 33 -10
113 0 78 -4 127 -10 127 -6 0 -10 -48 -10 -124 0 -122 -1 -125 -22 -128 -17
-2 -24 -11 -26 -31 -3 -24 0 -27 27 -27 l31 0 0 -62 c0 -35 5 -70 10 -78 7
-10 10 9 10 63 0 70 2 77 20 77 21 0 20 -1 24 120 1 18 7 25 21 26 11 1 25 3
30 4 6 1 19 3 29 4 11 0 21 6 23 11 2 6 -19 10 -52 9 -30 0 -55 3 -55 8 0 5
-4 7 -8 4 -4 -2 -9 5 -9 17 -2 15 0 18 6 8 6 -9 11 -10 15 -2 4 6 4 15 1 21
-3 5 3 10 15 10 12 0 19 -4 15 -9 -3 -5 -1 -12 5 -16 5 -3 10 1 10 9 0 9 7 16
16 16 10 0 14 -6 11 -15 -4 -8 -2 -17 3 -20 6 -4 10 3 10 14 0 28 27 27 33 -1
4 -20 3 -63 -2 -90 0 -4 -13 -3 -27 2 -14 6 -27 10 -29 10 -2 0 -3 -31 -4 -70
0 -54 3 -70 14 -70 10 0 15 15 17 48 3 40 6 47 26 50 22 3 23 1 20 -58 -2 -43
-8 -66 -19 -74 -26 -18 -43 -56 -30 -69 6 -6 11 -7 12 -1 2 27 9 48 19 58 9 8
11 -5 5 -59 -9 -96 -22 -120 -63 -121 -18 -1 -35 -4 -39 -7 -3 -4 -12 -2 -20
4 -9 9 -13 8 -13 0 0 -11 12 -15 40 -12 13 1 13 0 0 -11 -20 -17 -19 -43 2
-43 9 0 20 -4 25 -9 4 -5 3 -6 -4 -2 -9 5 -11 -2 -9 -21 4 -25 1 -28 -23 -27
-14 1 -32 -3 -38 -9 -9 -6 -13 -6 -13 3 0 18 -22 7 -30 -16 -6 -16 -3 -20 15
-22 13 -1 26 5 29 13 8 22 48 20 44 -3 -2 -13 -16 -18 -53 -22 -35 -4 -45 -7
-32 -12 10 -5 29 -8 42 -8 26 0 29 -25 4 -41 -8 -5 -10 -9 -4 -9 5 0 -2 -8
-15 -17 -14 -10 -29 -17 -33 -15 -4 1 -3 -6 3 -17 13 -26 13 -28 -5 -28 -10 0
-14 6 -10 15 4 12 3 12 -9 3 -11 -9 -16 -9 -22 0 -4 7 -2 15 4 17 7 2 12 11
12 20 -1 15 -2 15 -11 -1 -10 -17 -12 -17 -36 -2 -14 10 -23 12 -19 7 3 -6 2
-14 -4 -17 -7 -4 -10 6 -8 30 1 23 -3 39 -12 45 -13 8 -12 12 5 24 20 14 19
15 -8 36 -15 12 -24 26 -21 32 4 6 1 8 -7 6 -8 -3 -13 -11 -11 -18 2 -10 0
-11 -11 -2 -8 7 -17 9 -21 5 -10 -10 5 29 16 44 11 14 2 33 -14 33 -7 0 -7 -4
1 -13 19 -24 -2 -28 -26 -5 -19 18 -23 19 -23 5 0 -10 -8 -17 -19 -17 -25 0
-32 12 -21 30 10 17 -47 73 -66 66 -7 -3 -18 2 -24 10 -7 8 -10 15 -6 15 3 1
9 2 14 3 4 1 13 5 19 9 7 5 19 5 25 2 7 -4 -3 8 -22 24 -19 17 -41 29 -49 26
-11 -4 -11 -2 -3 8 7 8 9 16 6 19 -2 3 2 8 11 12 9 3 18 -1 21 -9 9 -22 34
-18 34 5 0 11 6 21 13 21 27 3 52 -4 59 -15 5 -6 8 -2 8 12 0 13 -6 22 -15 22
-8 0 -15 5 -15 12 0 6 -7 20 -17 30 -9 11 -11 18 -5 18 7 0 12 -4 12 -10 0 -5
7 -10 15 -10 8 0 15 4 15 8 0 4 17 9 37 10 46 3 50 8 58 50 5 28 3 31 -8 20
-8 -7 -13 -18 -10 -24 6 -17 -10 -24 -27 -13 -10 6 -11 9 -2 9 6 0 12 6 12 14
0 8 6 17 12 20 11 5 11 7 1 12 -9 4 -13 41 -14 127 -1 67 -5 172 -9 232 -6
106 -7 103 -10 -85 -1 -107 -2 -208 -1 -224 1 -25 -1 -27 -14 -16 -13 11 -15
8 -15 -19 0 -17 5 -31 10 -31 6 0 10 -11 10 -25 0 -14 -4 -25 -10 -25 -5 0
-10 10 -10 23 -1 20 -1 21 -11 4 -8 -13 -18 -17 -35 -13 -22 6 -29 -1 -25 -26
0 -5 -3 -8 -9 -8 -5 0 -10 -4 -10 -10 0 -5 6 -10 13 -10 7 0 13 -9 13 -20 0
-11 -6 -20 -12 -20 -7 0 -14 -6 -17 -12 -3 -10 -7 -10 -20 0 -9 8 -21 11 -26
8 -5 -4 -12 -2 -15 2 -8 14 -51 7 -51 -9 0 -8 -7 -14 -15 -14 -8 0 -15 9 -15
20 0 15 8 21 33 23 17 2 32 7 32 13 0 5 7 9 15 9 8 0 15 7 15 15 0 8 -5 15
-11 15 -5 0 -7 -6 -3 -12 4 -7 4 -10 -1 -6 -4 4 -7 86 -6 182 2 169 1 176 -20
197 -15 15 -19 24 -11 27 7 2 10 8 7 12 -11 18 -36 -2 -29 -23 5 -16 3 -19
-10 -14 -22 9 -21 -9 2 -22 12 -7 13 -10 3 -11 -8 0 -19 7 -26 17 -11 15 -15
14 -53 -7 -23 -13 -42 -30 -42 -37 0 -7 -4 -13 -10 -13 -5 0 -10 -8 -10 -19 0
-10 -9 -30 -20 -44 l-20 -25 23 -5 c12 -3 58 -4 102 -3 44 2 67 0 51 -3 l-28
-6 21 -19 c33 -30 28 -47 -9 -33 -28 11 -32 9 -54 -18 l-24 -30 28 -11 c39
-17 53 -74 18 -74 -7 0 -6 5 2 15 14 17 4 39 -16 31 -8 -3 -11 0 -7 10 3 9 -1
14 -12 14 -11 0 -15 -5 -11 -16 4 -9 2 -13 -5 -8 -8 4 -9 -1 -4 -16 6 -19 4
-21 -17 -18 -13 2 -22 9 -20 17 2 7 -5 23 -15 35 -16 19 -16 19 -1 7 19 -14
48 -9 48 9 0 6 -5 8 -10 5 -14 -9 -12 8 2 24 11 11 11 13 0 7 -7 -4 -12 -1
-12 8 0 27 12 46 30 46 11 0 21 4 24 9 4 5 -9 5 -30 1 -20 -5 -44 -6 -53 -2
-13 5 -14 3 -4 -10 17 -20 5 -30 -18 -15 -16 10 -21 9 -29 -3 -5 -8 -6 -18 -4
-22 3 -4 -2 -8 -11 -8 -9 0 -14 4 -11 8 3 5 -1 9 -9 9 -8 0 -11 -5 -8 -10 4
-7 -1 -8 -13 -4 -18 7 -18 7 0 -8 11 -8 15 -15 9 -15 -13 0 -43 33 -43 49 0 7
5 9 10 6 6 -3 10 -1 10 5 0 7 8 9 20 5 12 -4 20 -2 20 5 0 6 5 8 12 4 8 -5 9
-2 5 9 -3 10 -2 17 3 17 6 0 10 -4 10 -10 0 -5 6 -10 13 -10 7 0 13 16 14 39
1 36 -1 40 -25 43 l-27 3 -3 153 c-1 96 -6 151 -12 147 -6 -3 -10 -1 -10 4 0
6 5 11 10 11 6 0 10 8 9 18 0 9 -3 12 -5 5 -11 -27 -32 -1 -28 33 3 25 -2 43
-16 62 l-21 26 -6 -24 c-6 -22 -7 -23 -14 -4 -4 10 -8 441 -8 957 -1 931 -1
937 19 937 28 0 28 60 0 85 -16 15 -20 31 -20 90 0 43 -5 76 -12 83 -10 10
-10 17 0 32 7 11 12 54 12 100 l0 80 -54 0 c-53 0 -54 0 -59 -32z m1057 -1258
c4 -31 3 -40 -4 -30 -5 8 -10 13 -11 10 0 -3 -3 -14 -5 -25 -3 -11 -6 -66 -7
-122 -2 -121 -17 -151 -17 -35 0 45 0 83 -1 85 0 1 -4 21 -9 45 -6 35 -5 40 6
31 14 -11 20 -1 15 25 -1 5 1 16 5 25 7 16 10 25 13 38 3 14 9 -4 15 -47z
m326 18 c0 -4 -7 -8 -15 -8 -8 0 -15 4 -15 8 0 5 7 9 15 9 8 0 15 -4 15 -9z
m-280 -2 c0 -2 -7 -6 -15 -10 -8 -3 -15 -1 -15 4 0 6 7 10 15 10 8 0 15 -2 15
-4z m-161 -58 c0 -18 -3 -26 -6 -18 -3 8 -11 18 -17 23 -8 5 -6 10 4 17 21 13
20 14 19 -22z m418 10 c-3 -8 -6 -5 -6 6 -1 11 2 17 5 13 3 -3 4 -12 1 -19z
m78 -8 c3 -5 1 -10 -4 -10 -6 0 -11 5 -11 10 0 6 2 10 4 10 3 0 8 -4 11 -10z
m-324 -51 c9 -5 15 -187 6 -196 -3 -2 -15 -2 -26 2 -19 6 -21 15 -22 78 -1 40
-1 75 0 80 0 4 -6 7 -14 7 -20 0 -19 16 1 24 10 4 13 13 9 26 -3 11 -2 20 4
20 5 0 12 -10 14 -22 4 -19 5 -18 7 7 3 28 3 28 7 5 3 -14 9 -28 14 -31z m316
9 c-3 -8 -6 -5 -6 6 -1 11 2 17 5 13 3 -3 4 -12 1 -19z m-57 -9 c0 -5 -4 -9
-10 -9 -5 0 -10 7 -10 16 0 8 5 12 10 9 6 -3 10 -10 10 -16z m-160 -9 c0 -5
-2 -10 -4 -10 -3 0 -8 5 -11 10 -3 6 -1 10 4 10 6 0 11 -4 11 -10z m210 -75
l-7 -70 -1 66 c-1 36 1 69 5 72 10 10 10 8 3 -68z m-48 -44 c-2 -50 -8 -91
-13 -91 -5 0 -9 46 -9 101 0 80 3 99 13 91 8 -7 11 -37 9 -101z m-428 54 c3
-8 1 -15 -4 -15 -6 0 -10 7 -10 15 0 8 2 15 4 15 2 0 6 -7 10 -15z m40 -51 c3
-9 6 -34 6 -56 0 -60 -24 -43 -28 20 -3 50 9 70 22 36z m217 -121 c-2 -7 -7
-13 -12 -13 -11 0 -12 133 -1 144 7 8 20 -110 13 -131z m-91 -3 c0 -16 5 -30
10 -30 6 0 10 -45 9 -117 0 -65 -3 -112 -6 -105 -2 6 -11 12 -19 12 -11 0 -14
20 -14 100 0 59 -5 108 -12 119 -14 22 -4 51 17 51 10 0 15 -10 15 -30z m266
-130 c2 -103 -1 -130 -11 -130 -11 0 -15 28 -17 120 -3 130 -2 140 15 140 9 0
12 -38 13 -130z m-183 90 c3 -11 1 -20 -4 -20 -5 0 -9 9 -9 20 0 11 2 20 4 20
2 0 6 -9 9 -20z m344 -51 c-5 -17 -2 -20 14 -16 23 6 26 -18 3 -27 -24 -9 -31
-7 -14 5 12 9 11 10 -7 6 -16 -3 -23 0 -23 9 0 8 -6 14 -12 15 -9 0 -9 2 1 6
11 5 11 7 0 14 -10 6 -5 9 15 9 24 0 27 -3 23 -21z m55 -19 c-2 -16 -5 -30 -7
-30 -2 0 -5 14 -7 30 -3 19 0 30 7 30 7 0 10 -11 7 -30z m-255 -62 c-2 -13 -4
-3 -4 22 0 25 2 35 4 23 2 -13 2 -33 0 -45z m2532 16 c-16 -20 -29 -17 -29 5
0 14 5 18 20 14 16 -4 18 -8 9 -19z m-2532 -66 c-3 -8 -6 -5 -6 6 -1 11 2 17
5 13 3 -3 4 -12 1 -19z m2563 12 c0 -5 -4 -10 -10 -10 -17 0 -11 -18 8 -23 16
-4 16 -4 -1 -12 -24 -10 -31 -1 -23 30 6 24 26 36 26 15z m40 -46 c0 -8 5 -14
12 -14 6 0 8 -3 5 -6 -9 -10 -37 16 -37 33 0 8 5 11 10 8 6 -3 10 -13 10 -21z
m-2823 -64 c2 -39 -1 -50 -12 -50 -11 0 -15 12 -15 50 0 69 24 69 27 0z m130
44 c-3 -3 -12 -4 -19 -1 -8 3 -5 6 6 6 11 1 17 -2 13 -5z m131 -64 c-4 -67
-22 -69 -26 -2 -2 42 0 52 13 52 13 0 15 -10 13 -50z m2546 25 c-4 -8 -12 -15
-20 -15 -20 0 -17 18 4 23 9 3 18 5 19 6 1 0 0 -6 -3 -14z m-2754 -4 c0 -5 -7
-14 -15 -21 -16 -14 -18 -10 -9 14 6 17 24 22 24 7z m2570 -2 c0 -4 -8 -9 -17
-13 -10 -3 -23 -9 -30 -12 -7 -3 -10 2 -6 15 4 14 13 20 29 19 13 -1 24 -5 24
-9z m-2440 -15 c0 -8 -4 -12 -10 -9 -5 3 -10 10 -10 16 0 5 5 9 10 9 6 0 10
-7 10 -16z m2510 -14 c0 -11 -2 -20 -4 -20 -2 0 -6 9 -9 20 -3 11 -1 20 4 20
5 0 9 -9 9 -20z m15 -78 c-21 -5 -40 12 -30 28 5 8 13 6 27 -7 18 -16 19 -18
3 -21z m72 32 c-3 -3 -12 -4 -19 -1 -8 3 -5 6 6 6 11 1 17 -2 13 -5z m57 -9
c5 -13 2 -14 -17 -4 -32 17 -33 19 -10 19 12 0 23 -7 27 -15z m-1044 -29 c0
-8 -4 -18 -10 -21 -5 -3 -10 3 -10 14 0 12 5 21 10 21 6 0 10 -6 10 -14z m903
-16 c9 -8 8 -10 -5 -5 -24 9 -23 -4 2 -25 19 -16 19 -18 3 -31 -14 -12 -16
-12 -11 1 5 15 -13 40 -30 40 -5 0 -16 -8 -25 -18 -14 -16 -15 -21 -2 -45 13
-25 12 -28 -8 -42 -25 -18 -47 -20 -47 -4 0 6 6 9 14 6 8 -3 16 2 19 14 3 10
1 17 -4 13 -12 -7 -11 23 1 47 10 17 7 19 -20 19 -27 0 -29 2 -21 19 6 10 7
21 4 25 -4 4 21 5 56 3 34 -3 68 -10 74 -17z m-317 -16 c2 -18 -2 -24 -13 -20
-8 3 -11 1 -8 -4 9 -15 -5 -12 -22 5 -20 20 -9 45 19 45 18 0 23 -6 24 -26z
m354 -4 c0 -5 -2 -10 -4 -10 -3 0 -8 5 -11 10 -3 6 -1 10 4 10 6 0 11 -4 11
-10z m34 -15 c-4 -8 -11 -12 -16 -9 -6 4 -5 10 3 15 19 12 19 11 13 -6z
m-2835 -24 c8 -14 7 -20 -3 -24 -10 -4 -13 2 -12 19 1 29 2 29 15 5z m434 -21
c-3 -12 -8 -19 -11 -16 -5 6 5 36 12 36 2 0 2 -9 -1 -20z m2314 -9 c10 -15 9
-20 -2 -25 -9 -3 -12 0 -8 10 3 7 0 14 -6 14 -6 0 -11 5 -11 10 0 16 14 11 27
-9z m-2417 -7 c52 -6 56 -8 55 -33 -1 -14 2 -30 6 -36 3 -5 9 -27 12 -47 5
-33 3 -37 -13 -35 -10 2 -26 9 -36 17 -10 9 -38 15 -67 15 l-49 0 38 -17 c22
-9 48 -15 59 -12 14 3 28 -3 40 -18 l20 -22 -27 17 c-34 21 -50 23 -20 1 12
-8 27 -25 33 -37 l12 -22 -24 21 c-28 25 -87 56 -141 73 -32 10 -45 9 -105
-12 -37 -13 -76 -27 -85 -31 -29 -13 -22 19 7 34 15 8 25 22 24 34 0 15 -2 17
-6 6 -6 -16 -23 -30 -35 -30 -5 0 -8 33 -8 74 l0 74 128 -4 c70 -3 152 -7 182
-10z m2500 -22 c0 -12 -23 -32 -37 -32 -9 0 -8 6 5 19 18 21 32 26 32 13z
m-405 -31 c-20 -19 -110 -37 -99 -20 8 14 66 37 94 38 24 1 24 1 5 -18z m365
-21 c0 -5 -4 -10 -10 -10 -5 0 -10 5 -10 10 0 6 5 10 10 10 6 0 10 -4 10 -10z
m75 0 c3 -5 -1 -10 -9 -10 -9 0 -16 5 -16 10 0 6 4 10 9 10 6 0 13 -4 16 -10z
m-425 -36 c0 -8 -4 -12 -10 -9 -5 3 -10 10 -10 16 0 5 5 9 10 9 6 0 10 -7 10
-16z m-217 -41 c-13 -2 -33 -2 -45 0 -13 2 -3 4 22 4 25 0 35 -2 23 -4z
m-2082 -20 c0 -15 2 -15 8 2 7 16 9 13 13 -18 3 -28 -1 -44 -14 -59 -17 -20
-18 -20 -19 -2 0 10 -2 36 -4 57 -2 20 0 37 5 37 6 0 10 -8 11 -17z m87 -27
c2 -21 1 -45 -2 -53 -11 -27 -36 12 -36 55 0 33 3 40 18 38 12 -2 18 -14 20
-40z m1939 -3 c-3 -10 -5 -4 -5 12 0 17 2 24 5 18 2 -7 2 -21 0 -30z m-2059
-17 c1 -19 -2 -37 -8 -41 -6 -3 -10 3 -10 15 0 12 -4 18 -10 15 -5 -3 -10 3
-10 14 0 11 8 22 18 24 9 3 17 5 17 6 1 0 2 -14 3 -33z m175 10 c3 -8 -3 -24
-14 -37 l-19 -22 0 30 c0 41 21 60 33 29z m-349 -18 c8 -33 8 -33 -19 -33 -14
0 -25 1 -25 2 0 1 4 13 10 27 12 32 26 33 34 4z m109 2 c-3 -11 -7 -20 -9 -20
-2 0 -4 9 -4 20 0 11 4 20 9 20 5 0 7 -9 4 -20z m295 -20 c3 -21 2 -22 -12
-11 -19 16 -21 44 -3 39 6 -3 14 -15 15 -28z m1905 13 c-18 -2 -48 -2 -65 0
-18 2 -4 4 32 4 36 0 50 -2 33 -4z m-1938 -23 c3 -5 1 -10 -4 -10 -6 0 -11 5
-11 10 0 6 2 10 4 10 3 0 8 -4 11 -10z m1913 -12 l47 -1 -50 -6 c-54 -7 -72
-1 -59 20 6 10 9 10 12 1 2 -7 24 -13 50 -14z m-3133 -19 c-4 -5 4 -9 17 -10
22 0 22 -1 3 -9 -31 -13 -35 -12 -35 16 0 14 4 23 10 19 6 -4 8 -11 5 -16z
m1085 17 c0 -2 -8 -10 -17 -17 -16 -13 -17 -12 -4 4 13 16 21 21 21 13z m110
-10 c0 -2 -8 -10 -17 -17 -16 -13 -17 -12 -4 4 13 16 21 21 21 13z m54 -36
c-6 -6 -10 -3 -10 10 0 13 4 16 10 10 7 -7 7 -13 0 -20z m134 8 c10 -10 14
-10 21 0 5 8 11 -11 15 -50 3 -35 11 -65 17 -66 6 -3 6 -9 -2 -18 -21 -25 -28
-15 -32 44 l-3 57 -2 -62 c-2 -51 -5 -61 -17 -57 -11 5 -15 -1 -15 -20 0 -25
4 -28 40 -30 10 -1 16 -14 18 -43 3 -42 8 -47 49 -46 7 1 10 -4 7 -9 -4 -6
-23 -8 -44 -4 -82 13 -120 -13 -87 -58 13 -17 14 -18 20 -2 10 25 23 12 21
-21 -3 -40 -3 -40 -19 -19 -13 18 -14 17 -21 -8 -4 -15 -13 -26 -23 -26 -10 0
-24 -11 -31 -25 -11 -21 -15 -23 -22 -10 -12 21 -25 19 -31 -5 -6 -22 -37 -28
-37 -7 -1 6 -7 -3 -15 -21 -8 -17 -26 -37 -40 -42 -14 -5 -25 -14 -25 -21 0
-6 -5 -9 -12 -7 -7 3 -12 15 -12 29 0 18 5 23 20 22 28 -3 42 39 37 117 -2 37
2 68 8 77 9 11 8 12 -5 7 -14 -5 -16 3 -15 70 1 76 13 104 31 72 5 -9 13 -14
19 -11 5 4 9 1 9 -4 0 -6 -8 -12 -17 -12 -17 -1 -17 -2 0 -6 9 -2 17 -11 17
-19 0 -17 16 -19 23 -1 3 6 6 3 6 -8 1 -12 8 -21 19 -22 9 -1 32 -5 50 -9 31
-6 32 -6 32 30 0 22 5 36 13 37 10 0 10 2 0 6 -9 3 -13 35 -13 109 0 93 2 104
18 104 10 0 24 -6 30 -12z m1782 -3 c-7 -9 -15 -13 -19 -10 -3 3 1 10 9 15 21
14 24 12 10 -5z m-3155 -25 c3 -6 -1 -7 -9 -4 -18 7 -21 14 -7 14 6 0 13 -4
16 -10z m1265 -15 c0 -8 -4 -15 -10 -15 -5 0 -10 7 -10 15 0 8 5 15 10 15 6 0
10 -7 10 -15z m-113 -47 c-3 -8 -6 -5 -6 6 -1 11 2 17 5 13 3 -3 4 -12 1 -19z
m1533 -54 c0 -71 -1 -76 -17 -63 -34 25 -38 36 -35 88 4 46 6 51 28 51 23 0
24 -2 24 -76z m-2660 27 c0 -6 -9 -9 -20 -8 -11 1 -20 5 -20 9 0 4 9 8 20 8
11 0 20 -4 20 -9z m2775 -54 c-6 -29 -3 -36 19 -51 16 -10 25 -25 25 -39 l-2
-22 -4 22 c-2 12 -15 29 -29 37 -13 9 -24 23 -24 32 0 8 -7 17 -15 20 -25 10
-17 34 10 34 24 0 25 -3 20 -33z m-1185 3 c0 -5 -5 -10 -11 -10 -5 0 -7 5 -4
10 3 6 8 10 11 10 2 0 4 -4 4 -10z m-1604 -109 c-10 -4 -36 27 -36 42 0 6 10
-1 23 -14 12 -13 18 -26 13 -28z m234 -1 c0 -5 -7 -10 -16 -10 -8 0 -12 5 -9
10 3 6 10 10 16 10 5 0 9 -4 9 -10z m-220 -25 c0 -8 5 -15 10 -15 6 0 10 -5
10 -12 0 -6 -9 -3 -20 7 -22 20 -26 35 -10 35 6 0 10 -7 10 -15z m883 -2 c-7
-2 -19 -2 -25 0 -7 3 -2 5 12 5 14 0 19 -2 13 -5z m-833 -23 c0 -5 -4 -10 -10
-10 -5 0 -10 5 -10 10 0 6 5 10 10 10 6 0 10 -4 10 -10z m995 -10 c-17 -7 -17
-9 -2 -9 9 -1 17 -5 17 -11 0 -5 5 -10 11 -10 6 0 9 9 6 20 -3 12 0 20 8 20
24 0 36 -145 13 -168 -14 -14 -32 -16 -24 -3 3 5 -1 12 -10 15 -14 5 -15 -3
-12 -56 l3 -61 -50 -50 -50 -50 -3 113 c-2 84 1 116 10 122 10 6 10 8 1 8 -7
0 -13 4 -13 9 0 5 18 8 40 6 34 -3 40 -1 40 16 0 20 -15 26 -25 9 -4 -6 -19
-9 -33 -7 -23 3 -27 9 -30 40 -2 21 1 37 7 37 6 0 11 -6 11 -14 0 -8 7 -16 15
-20 11 -4 15 2 15 24 0 28 2 30 38 29 30 0 33 -2 17 -9z m358 3 c-7 -2 -13
-18 -13 -34 0 -16 -4 -29 -10 -29 -5 0 -8 10 -6 23 2 12 0 27 -5 32 -5 7 2 11
19 12 15 1 21 -1 15 -4z m50 -7 c9 10 59 -5 52 -15 -3 -5 1 -12 7 -14 7 -3 -1
-6 -18 -6 -17 -1 -41 7 -52 18 -23 20 -31 41 -9 22 8 -6 17 -8 20 -5z m1597
-20 c0 -3 -4 -8 -10 -11 -5 -3 -10 -1 -10 4 0 6 5 11 10 11 6 0 10 -2 10 -4z
m-2947 -98 c-4 -7 -6 -26 -4 -41 2 -27 1 -28 -19 -17 -12 6 -24 9 -28 6 -3 -3
0 -6 6 -6 7 0 12 -4 12 -10 0 -5 -11 -9 -25 -8 -27 3 -32 17 -13 36 7 7 17 8
29 2 11 -7 20 -7 24 0 3 5 2 10 -3 10 -6 0 -8 9 -5 20 3 11 12 20 20 20 9 0
11 -5 6 -12z m147 8 c0 -2 -7 -9 -15 -16 -13 -11 -14 -10 -9 4 5 14 24 23 24
12z m1390 -51 c13 -14 21 -25 18 -25 -2 0 -15 11 -28 25 -13 14 -21 25 -18 25
2 0 15 -11 28 -25z m522 4 c77 0 98 -6 98 -26 0 -10 -6 -13 -16 -9 -49 19 -64
18 -64 -2 0 -20 -1 -21 -52 -5 -29 8 -66 21 -83 28 l-30 13 25 10 c15 6 32 6
42 1 10 -5 46 -10 80 -10z m-2194 -3 c-7 -8 -15 -12 -17 -11 -5 6 10 25 20 25
5 0 4 -6 -3 -14z m353 -13 c13 -17 13 -17 -6 -3 -11 8 -22 16 -24 17 -2 2 0 3
6 3 6 0 17 -8 24 -17z m-211 -41 c0 -7 -4 -11 -8 -8 -5 3 -9 -1 -9 -9 0 -12 9
-13 40 -8 36 5 40 4 34 -12 -5 -13 -3 -16 8 -11 21 8 19 -7 -5 -35 -11 -13
-20 -19 -19 -14 3 19 -1 40 -10 54 -7 11 -12 10 -29 -5 -12 -10 -18 -22 -15
-27 3 -6 1 -7 -5 -3 -6 3 -17 0 -24 -7 -7 -8 -22 -12 -33 -9 -11 3 -17 1 -12
-3 4 -5 0 -19 -8 -32 -9 -13 -13 -28 -9 -34 7 -12 -15 -31 -28 -23 -5 3 -5 11
-1 17 4 7 9 23 11 37 2 13 8 31 15 38 6 8 16 24 22 36 7 11 17 20 23 19 6 -2
16 7 22 20 9 18 9 20 -2 7 -14 -16 -48 -23 -48 -10 0 4 7 13 15 20 8 7 15 9
15 4 0 -4 4 -4 10 2 14 14 50 12 50 -4z m1590 -7 c13 -14 30 -23 38 -20 7 2
10 0 7 -5 -3 -5 21 -27 53 -47 97 -62 100 -64 60 -49 -58 23 -221 146 -192
146 6 0 21 -11 34 -25z m530 -55 c12 -8 9 -10 -12 -10 -15 0 -30 5 -33 10 -8
13 25 13 45 0z m-2255 -40 c3 -5 -1 -10 -10 -10 -9 0 -13 5 -10 10 3 6 8 10
10 10 2 0 7 -4 10 -10z m3370 -35 c22 -14 54 -37 70 -51 36 -31 26 -27 -44 20
-28 19 -67 40 -86 47 -19 7 -35 17 -35 21 0 10 46 -8 95 -37z m-3270 16 c7
-12 -35 -52 -47 -45 -5 3 -1 12 8 18 9 7 14 18 10 24 -4 7 -1 12 8 12 8 0 17
-4 21 -9z m36 -18 c-12 -20 -14 -14 -5 12 4 9 9 14 11 11 3 -2 0 -13 -6 -23z
m2041 5 c-7 -7 -12 -8 -12 -2 0 14 12 26 19 19 2 -3 -1 -11 -7 -17z m40 -13
c-5 -29 -24 -46 -19 -18 3 18 15 43 21 43 2 0 1 -11 -2 -25z m78 -75 c-11 -22
-17 -46 -13 -53 13 -21 12 -36 -3 -30 -8 3 -11 9 -8 14 9 15 -8 10 -29 -8 -19
-17 -20 -17 -8 5 6 12 9 22 5 22 -3 0 5 15 20 34 14 19 26 40 26 46 0 6 6 21
12 33 l13 22 3 -22 c2 -12 -6 -40 -18 -63z m-2110 39 c0 -17 -3 -18 -20 -9
-20 11 -25 22 -14 33 11 11 34 -5 34 -24z m-87 -8 c4 -1 2 -10 -5 -21 -9 -13
-15 -16 -20 -7 -4 6 -10 8 -14 4 -4 -3 -1 -13 5 -21 10 -12 9 -14 -8 -9 -12 3
-21 10 -21 15 0 6 -6 8 -13 5 -6 -2 -18 2 -25 9 -11 12 -9 13 10 11 12 -2 28
2 35 9 7 7 21 11 30 9 10 -2 21 -4 26 -4z m85 -47 c5 3 9 -1 9 -9 0 -8 -3 -12
-7 -10 -4 2 -12 -7 -19 -22 -6 -14 -14 -23 -17 -20 -3 3 0 15 6 27 9 16 8 25
-2 38 -12 15 -11 16 4 4 9 -8 21 -11 26 -8z m3332 -19 c19 -19 32 -35 29 -35
-3 0 -20 16 -39 35 -19 19 -32 35 -29 35 3 0 20 -16 39 -35z m-3125 -15 c-3
-5 -2 -10 4 -10 5 0 13 5 16 10 4 6 11 8 16 4 16 -9 0 -24 -27 -24 -23 0 -31
10 -17 23 10 10 15 8 8 -3z m-275 -15 c0 -7 -30 -13 -34 -7 -3 4 4 9 15 9 10
1 19 0 19 -2z m780 -9 c0 -3 -4 -8 -10 -11 -5 -3 -10 -1 -10 4 0 6 5 11 10 11
6 0 10 -2 10 -4z m-900 -10 c0 -3 -4 -8 -10 -11 -5 -3 -10 -1 -10 4 0 6 5 11
10 11 6 0 10 -2 10 -4z m254 -5 c4 -5 -3 -7 -14 -4 -23 6 -26 13 -6 13 8 0 17
-4 20 -9z m-60 -10 c4 -5 -4 -7 -16 -3 -12 3 -19 1 -15 -5 3 -5 0 -10 -7 -10
-8 0 -12 6 -9 14 6 15 39 18 47 4z m2011 -23 c-6 -28 -25 -48 -25 -26 0 23 11
48 20 48 5 0 7 -10 5 -22z m-2185 -28 c0 -9 37 -7 107 5 25 5 35 1 45 -15 7
-11 24 -21 38 -21 23 -1 22 -2 -5 -8 -23 -5 -33 -2 -43 11 -15 21 -30 22 -69
6 -33 -13 -39 -15 -56 -17 -8 0 -14 -7 -14 -15 0 -9 7 -12 16 -8 9 3 13 2 9
-3 -4 -4 -2 -17 4 -28 9 -17 8 -19 -8 -13 -10 4 -21 1 -26 -6 -6 -8 -8 4 -7
32 1 67 0 82 -9 76 -4 -2 -14 -1 -22 5 -11 6 -8 9 13 9 15 0 27 -4 27 -10z
m-43 -82 c-2 -13 -4 -3 -4 22 0 25 2 35 4 23 2 -13 2 -33 0 -45z m308 52 c-3
-5 -10 -10 -16 -10 -5 0 -9 5 -9 10 0 6 7 10 16 10 8 0 12 -4 9 -10z m-129
-12 c-2 -7 -11 -38 -21 -68 -15 -51 -16 -58 -1 -92 21 -49 39 -48 64 3 25 51
20 106 -12 119 -20 9 -19 11 7 14 25 3 34 -19 32 -81 -2 -41 -9 -72 -21 -91
-10 -15 -18 -30 -16 -34 1 -4 -4 -5 -12 -2 -7 3 -19 -2 -26 -11 -7 -8 -20 -15
-29 -16 -10 0 -11 -2 -3 -6 6 -2 12 -9 12 -14 0 -6 -4 -7 -10 -4 -5 3 -10 1
-10 -4 0 -6 -7 -11 -15 -11 -8 0 -15 5 -15 10 0 6 4 10 9 10 5 0 11 9 14 20 4
14 10 18 22 13 13 -4 16 -2 13 8 -3 8 -11 14 -19 14 -9 0 -19 23 -30 65 -15
67 -13 81 20 123 13 15 12 17 -10 18 -19 1 -15 4 16 14 22 8 41 14 42 14 1 1
1 -5 -1 -11z m469 -18 c-3 -5 -13 -10 -21 -10 -8 0 -12 5 -9 10 3 6 13 10 21
10 8 0 12 -4 9 -10z m-337 -50 c7 -11 11 -20 9 -20 -2 0 -12 9 -22 20 -10 11
-14 20 -9 20 5 0 15 -9 22 -20z m124 -32 c-7 -7 -12 -8 -12 -2 0 6 3 14 7 17
3 4 9 5 12 2 2 -3 -1 -11 -7 -17z m48 18 c0 -2 -8 -10 -17 -17 -16 -13 -17
-12 -4 4 13 16 21 21 21 13z m195 -5 c10 -17 -12 -21 -25 -6 -10 12 -10 15 3
15 9 0 18 -4 22 -9z m-215 -46 c-7 -8 -16 -15 -21 -15 -5 0 -6 7 -3 15 4 8 13
15 21 15 13 0 13 -3 3 -15z m265 -53 c1 -32 -10 -43 -17 -20 -3 7 -14 13 -26
13 -12 0 -21 5 -19 10 1 6 5 9 10 8 4 -2 7 2 7 8 0 6 7 3 16 -6 21 -20 31 -11
13 11 -12 15 -12 17 1 12 9 -3 15 -17 15 -36z m102 13 c0 -8 -4 -12 -9 -9 -4
3 -8 9 -8 15 0 5 4 9 8 9 5 0 9 -7 9 -15z m-772 -73 c-4 -26 -14 -41 -16 -26
-6 41 -5 51 7 51 9 0 12 -9 9 -25z m178 -2 c3 -11 1 -18 -4 -14 -5 3 -9 12 -9
20 0 20 7 17 13 -6z m580 -15 c3 -7 0 -12 -6 -11 -7 0 -12 -3 -12 -9 0 -5 3
-9 8 -7 4 1 7 -4 8 -10 0 -7 2 -27 3 -44 2 -20 -2 -31 -11 -31 -7 0 -13 4 -13
9 0 4 4 8 8 8 4 0 8 9 8 20 0 12 -5 19 -12 16 -35 -13 -84 -17 -84 -7 0 6 16
11 36 11 32 0 35 2 24 15 -11 13 -11 20 0 40 13 24 34 24 43 0z m-83 -15 c-14
-11 -29 -20 -33 -20 -5 0 -5 -4 -2 -10 3 -5 1 -10 -4 -10 -6 0 -11 5 -11 10 0
6 -10 10 -22 10 -12 0 -18 3 -15 7 4 3 21 6 37 5 19 0 33 5 37 14 3 8 13 14
22 14 12 0 10 -5 -9 -20z m-701 -28 c0 -24 -1 -25 -9 -7 -12 28 -12 47 0 40 6
-3 10 -18 9 -33z m33 -4 c-5 -21 8 -24 26 -6 12 12 14 7 11 -18 0 -4 12 -15
28 -25 24 -16 25 -19 8 -19 -11 0 -26 9 -33 20 -7 11 -21 20 -31 20 -10 0 -22
7 -25 16 -9 24 -7 31 8 31 8 0 11 -8 8 -19z m608 -2 c0 -3 -4 -8 -10 -11 -5
-3 -10 -1 -10 4 0 6 5 11 10 11 6 0 10 -2 10 -4z m-500 -26 c-6 -11 -13 -20
-16 -20 -2 0 0 9 6 20 6 11 13 20 16 20 2 0 0 -9 -6 -20z m413 -10 c-3 -10
-11 -24 -18 -30 -11 -9 -12 -5 -3 24 11 36 30 42 21 6z m80 -2 c12 0 30 -1 40
0 22 2 22 -14 0 -27 -17 -10 -17 -10 -1 -11 13 0 17 -7 14 -27 -2 -16 -1 -22
1 -15 3 8 12 11 20 8 11 -4 13 -2 9 9 -3 8 -2 15 2 16 4 0 16 2 27 3 14 2 21
-3 21 -15 0 -10 -4 -15 -8 -13 -4 3 -8 -2 -8 -10 0 -9 -5 -16 -11 -16 -5 0 -8
-4 -5 -9 3 -5 -3 -11 -14 -14 -11 -3 -19 -11 -18 -17 2 -7 -3 -15 -11 -17 -8
-3 -12 0 -9 8 2 7 -4 21 -14 31 -14 14 -16 23 -9 37 11 20 -3 41 -23 37 -6 -2
-8 -1 -3 1 9 6 -1 23 -14 23 -5 0 -9 -9 -9 -19 0 -10 -7 -21 -15 -25 -13 -4
-14 -2 -5 14 12 23 6 40 -16 40 -21 0 -17 14 9 25 16 7 23 7 25 -2 2 -7 13
-14 25 -15z m203 -23 c-3 -8 -10 -15 -15 -15 -5 0 -4 11 2 25 12 25 23 16 13
-10z m-98 8 c-2 -10 -11 -19 -21 -21 -18 -4 -20 17 -2 30 17 13 27 9 23 -9z
m-570 -15 c-2 -5 -8 -9 -13 -9 -5 0 -11 4 -13 9 -1 5 4 9 13 9 9 0 14 -4 13
-9z m422 2 c0 -5 -7 -10 -16 -10 -8 0 -12 5 -9 10 3 6 10 10 16 10 5 0 9 -4 9
-10z m-523 -57 c-2 -22 2 -27 16 -25 9 2 17 -2 17 -7 0 -20 -16 -18 -44 4 -25
20 -28 26 -17 39 20 24 30 19 28 -11z m403 13 c0 -2 -7 -7 -16 -10 -8 -3 -12
-2 -9 4 6 10 25 14 25 6z m-129 -40 c-7 -8 -9 -21 -5 -28 5 -9 2 -9 -10 1 -15
13 -19 13 -27 0 -7 -11 -9 -11 -9 3 0 10 12 24 28 32 31 16 40 13 23 -8z
m-136 -16 c-3 -5 -11 -10 -16 -10 -6 0 -7 5 -4 10 3 6 11 10 16 10 6 0 7 -4 4
-10z m-165 -19 c0 -6 -4 -13 -10 -16 -5 -3 -10 1 -10 9 0 9 5 16 10 16 6 0 10
-4 10 -9z"/>
<path d="M1237 1743 c-11 -10 -8 -23 5 -23 6 0 20 -7 30 -17 17 -15 18 -15 18
9 0 30 -35 50 -53 31z"/>
<path d="M1154 1706 c-10 -8 -15 -18 -11 -22 4 -5 11 -3 15 3 4 7 19 16 32 22
22 9 23 10 4 10 -11 1 -29 -5 -40 -13z"/>
<path d="M1375 1140 c3 -5 10 -10 16 -10 5 0 9 5 9 10 0 6 -7 10 -16 10 -8 0
-12 -4 -9 -10z"/>
<path d="M1350 1120 c0 -5 5 -10 10 -10 6 0 10 5 10 10 0 6 -4 10 -10 10 -5 0
-10 -4 -10 -10z"/>
<path d="M1320 1089 c0 -11 5 -17 10 -14 6 3 10 13 10 21 0 8 -4 14 -10 14 -5
0 -10 -9 -10 -21z"/>
<path d="M1455 1100 c3 -5 11 -10 16 -10 6 0 7 5 4 10 -3 6 -11 10 -16 10 -6
0 -7 -4 -4 -10z"/>
<path d="M1190 1146 c0 -22 3 -27 11 -19 8 8 8 16 0 30 -9 16 -10 14 -11 -11z"/>
<path d="M1238 1073 c6 -2 18 -2 25 0 6 3 1 5 -13 5 -14 0 -19 -2 -12 -5z"/>
<path d="M1149 975 c-6 -68 -5 -70 16 -62 11 5 15 20 14 59 0 37 -3 47 -8 33
-8 -19 -9 -18 -13 5 -2 14 -6 -1 -9 -35z"/>
<path d="M3065 3912 c3 -39 4 -42 15 -42 15 0 12 46 -4 59 -10 9 -13 6 -11
-17z"/>
<path d="M3006 3908 c-21 -30 -7 -46 15 -17 10 13 19 27 19 32 0 15 -19 6 -34
-15z"/>
<path d="M3129 3829 c-24 -24 -22 -30 9 -22 13 3 22 13 22 24 0 24 -5 24 -31
-2z"/>
<path d="M3174 3788 l-19 -23 22 18 c21 19 22 18 16 -3 -5 -17 -3 -21 8 -16 8
3 22 9 32 12 21 8 22 20 1 28 -27 10 -40 7 -60 -16z"/>
<path d="M3285 3733 c-3 -9 3 -24 14 -34 21 -20 33 -16 24 8 -3 8 0 19 8 24 8
5 10 9 4 10 -5 0 -18 2 -27 4 -9 2 -19 -4 -23 -12z"/>
<path d="M3200 3705 c-7 -14 -10 -28 -7 -31 8 -9 47 38 40 48 -8 14 -19 8 -33
-17z"/>
<path d="M3381 3581 c-10 -17 -9 -20 4 -15 9 4 15 1 15 -7 0 -10 3 -10 12 -1
10 10 9 16 -4 28 -15 15 -17 15 -27 -5z"/>
<path d="M3970 3519 c0 -5 -5 -7 -12 -3 -7 4 -8 3 -4 -4 10 -17 46 -15 46 3 0
8 -7 15 -15 15 -8 0 -15 -5 -15 -11z"/>
<path d="M3310 3490 c-8 -5 -10 -10 -5 -10 6 0 17 5 25 10 8 5 11 10 5 10 -5
0 -17 -5 -25 -10z"/>
<path d="M3171 3456 c-7 -8 -21 -13 -32 -11 -16 3 -20 -1 -17 -18 1 -12 -2
-28 -6 -36 -7 -10 -6 -12 4 -6 10 6 12 4 7 -8 -4 -11 -2 -14 9 -10 7 3 14 9
14 14 0 18 24 36 42 31 10 -2 18 1 18 7 0 7 -5 9 -12 5 -7 -5 -9 -2 -6 8 10
24 -6 42 -21 24z"/>
<path d="M3365 3440 c-3 -6 1 -7 9 -4 18 7 21 14 7 14 -6 0 -13 -4 -16 -10z"/>
<path d="M3385 3429 l-20 -21 34 4 c19 2 37 9 39 17 3 8 0 11 -7 7 -6 -4 -11
-2 -11 3 0 16 -13 12 -35 -10z"/>
<path d="M3267 3353 c-14 -13 -6 -33 12 -33 14 0 18 5 14 20 -5 21 -15 25 -26
13z"/>
<path d="M3274 3295 c-16 -12 -16 -14 -3 -15 9 0 22 7 29 15 16 19 0 19 -26 0z"/>
<path d="M3097 3275 c6 -17 25 -15 31 3 2 7 -5 12 -17 12 -14 0 -19 -5 -14
-15z"/>
<path d="M3198 3253 c-10 -2 -18 -11 -18 -18 0 -7 -2 -22 -5 -32 -3 -11 -1 -9
6 5 7 12 18 22 26 22 7 0 13 7 13 15 0 8 -1 14 -2 14 -2 -1 -11 -3 -20 -6z"/>
<path d="M3045 3230 c-3 -6 1 -7 9 -4 18 7 21 14 7 14 -6 0 -13 -4 -16 -10z"/>
<path d="M3356 3231 c-3 -5 -16 -7 -29 -5 -20 4 -20 4 2 -6 27 -12 51 -7 51
10 0 12 -17 13 -24 1z"/>
<path d="M3096 3212 c-3 -5 1 -9 9 -9 8 0 12 4 9 9 -3 4 -7 8 -9 8 -2 0 -6 -4
-9 -8z"/>
<path d="M3015 3201 c-3 -2 -5 -8 -5 -12 0 -9 39 1 45 12 6 8 -32 8 -40 0z"/>
<path d="M3270 3139 c0 -5 5 -7 10 -4 6 3 10 8 10 11 0 2 -4 4 -10 4 -5 0 -10
-5 -10 -11z"/>
<path d="M3123 3133 c9 -2 23 -2 30 0 6 3 -1 5 -18 5 -16 0 -22 -2 -12 -5z"/>
<path d="M2790 3100 c0 -11 2 -20 5 -20 2 0 9 9 15 20 9 16 8 20 -5 20 -8 0
-15 -9 -15 -20z"/>
<path d="M1033 3035 c-7 -8 -13 -21 -13 -29 0 -8 6 -17 13 -19 6 -3 0 -6 -15
-6 -22 -1 -28 4 -28 19 0 17 -7 20 -39 20 -22 0 -41 -4 -43 -10 -5 -14 -48 0
-48 16 0 8 -8 14 -19 14 -21 0 -48 -26 -32 -32 15 -5 17 -111 3 -116 -23 -7
-12 -22 17 -22 17 0 33 -4 36 -10 3 -5 12 -10 18 -10 8 0 8 3 -1 9 -10 6 -6
10 15 14 15 3 30 1 31 -4 2 -5 10 -9 18 -9 9 0 13 4 10 8 -8 13 101 14 125 1
19 -10 21 -9 16 5 -6 14 -3 16 16 10 12 -3 28 -11 35 -17 10 -8 16 -7 21 1 5
8 14 8 33 -2 15 -8 28 -10 30 -5 2 4 14 3 28 -4 18 -9 30 -10 42 -3 13 8 22 6
37 -8 11 -10 25 -15 30 -11 6 3 11 -1 11 -10 0 -9 5 -13 10 -10 6 3 10 2 10
-4 0 -5 -6 -12 -12 -15 -7 -4 -3 -4 10 -2 18 3 22 1 18 -10 -4 -10 -2 -12 6
-8 8 5 9 2 5 -9 -8 -22 2 -22 19 1 16 21 17 32 3 32 -5 0 -7 -4 -4 -10 3 -5 3
-10 -2 -10 -4 0 -8 39 -8 87 0 84 -1 86 -24 88 -13 1 -30 10 -37 21 -7 10 -18
25 -24 32 -13 14 -54 17 -45 2 3 -5 -1 -10 -11 -10 -11 0 -15 -6 -11 -20 3
-13 0 -20 -8 -20 -8 0 -15 10 -17 23 -2 18 -10 23 -40 25 -33 3 -38 0 -38 -17
0 -14 -5 -19 -15 -15 -8 4 -15 15 -15 25 0 10 -4 19 -10 19 -5 0 -10 7 -10 15
0 20 -80 20 -97 0z m69 -35 c2 -22 0 -40 -3 -40 -4 0 -5 -9 -2 -20 3 -11 1
-20 -5 -20 -13 0 -18 32 -13 83 4 49 18 47 23 -3z m-153 -36 c-8 -10 -8 -14 0
-14 6 0 11 -4 11 -10 0 -5 -11 -10 -24 -10 -13 0 -27 -6 -30 -12 -4 -7 -4 -3
-2 10 2 12 0 22 -5 22 -5 0 -9 -11 -9 -24 0 -20 -4 -24 -22 -21 -23 5 -38 21
-38 43 0 8 7 11 18 8 28 -8 97 9 94 23 -1 7 2 10 8 6 8 -5 7 -11 -1 -21z m280
-21 c0 -21 -3 -32 -6 -25 -2 6 -9 10 -14 6 -5 -3 -9 1 -10 8 0 7 -4 4 -9 -7
-8 -18 -9 -18 -10 5 -1 22 -2 23 -9 6 -7 -19 -8 -19 -13 2 -5 18 -2 22 16 22
12 0 27 -5 34 -12 9 -9 12 -7 12 10 0 12 2 22 5 22 3 0 5 -17 4 -37z m-178 13
c5 3 9 -5 8 -18 0 -13 -3 -17 -6 -10 -6 14 -63 17 -63 2 0 -5 -4 -10 -10 -10
-5 0 -10 8 -10 18 0 14 7 18 30 16 17 -1 30 3 31 9 0 8 2 8 6 -1 2 -6 9 -10
14 -6z m312 -6 c3 -11 1 -23 -4 -26 -5 -3 -9 6 -9 20 0 31 6 34 13 6z m-220
-3 c3 -8 -1 -14 -9 -14 -8 0 -14 6 -14 14 0 7 4 13 9 13 5 0 11 -6 14 -13z
m116 -4 c0 -5 -4 -17 -9 -28 -8 -18 -9 -17 -9 8 -1 15 4 27 9 27 6 0 10 -3 9
-7z m51 -23 c0 -6 -9 -5 -20 2 -11 7 -20 16 -20 21 0 4 9 3 20 -3 11 -6 20
-15 20 -20z"/>
<path d="M3210 3039 c0 -27 16 -38 57 -40 48 -3 56 1 47 25 -5 14 -14 16 -41
11 -21 -4 -40 -2 -49 6 -11 9 -14 8 -14 -2z"/>
<path d="M767 2977 c-22 -17 -30 -19 -36 -8 -11 18 -23 -2 -15 -24 6 -13 9
-14 16 -3 7 9 8 7 5 -9 -3 -13 -1 -23 4 -23 5 0 9 11 9 25 0 17 4 23 15 19 8
-4 12 -10 9 -15 -3 -5 -1 -9 4 -9 8 0 24 60 18 66 0 1 -14 -8 -29 -19z"/>
<path d="M3331 2978 c-5 -13 -7 -25 -5 -27 7 -7 28 17 30 34 3 23 -16 18 -25
-7z"/>
<path d="M3286 2951 c-4 -5 -2 -12 3 -15 5 -4 12 -2 15 3 4 5 2 12 -3 15 -5 4
-12 2 -15 -3z"/>
<path d="M3330 2860 c0 -5 -9 -19 -21 -31 -27 -27 -18 -35 15 -14 25 17 36 55
16 55 -5 0 -10 -4 -10 -10z"/>
<path d="M737 2854 c-8 -8 1 -24 14 -24 5 0 9 7 9 15 0 15 -12 20 -23 9z"/>
<path d="M775 2850 c3 -5 8 -10 11 -10 2 0 4 5 4 10 0 6 -5 10 -11 10 -5 0 -7
-4 -4 -10z"/>
<path d="M803 2845 c-3 -9 -3 -18 -1 -21 3 -3 8 4 11 16 6 23 -1 27 -10 5z"/>
<path d="M988 2843 c7 -3 16 -2 19 1 4 3 -2 6 -13 5 -11 0 -14 -3 -6 -6z"/>
<path d="M1148 2843 c7 -3 16 -2 19 1 4 3 -2 6 -13 5 -11 0 -14 -3 -6 -6z"/>
<path d="M830 2820 c-6 -11 -17 -20 -25 -20 -8 0 -15 -4 -15 -10 0 -5 7 -10
15 -10 8 0 15 -5 15 -11 0 -5 -4 -7 -10 -4 -5 3 -10 -1 -10 -9 0 -9 5 -16 10
-16 6 0 10 -16 10 -36 0 -31 -2 -35 -15 -24 -13 11 -15 8 -14 -21 0 -26 2 -30
8 -15 14 36 21 -8 21 -129 0 -89 -3 -114 -14 -118 -15 -6 -19 17 -29 138 -2
22 -4 -8 -5 -68 -2 -105 -2 -107 18 -95 17 11 22 10 30 -2 11 -18 12 -16 34
43 10 26 15 55 12 64 -4 8 -1 30 5 48 7 18 9 40 5 50 -6 17 -7 17 -20 0 -9
-13 -15 -15 -20 -7 -4 7 -3 12 3 12 5 0 7 14 4 33 -3 17 -5 39 -5 47 1 8 2 52
4 98 2 45 2 82 1 82 -1 0 -7 -9 -13 -20z"/>
<path d="M1200 2830 c10 -6 11 -10 3 -10 -7 0 -13 -4 -13 -10 0 -5 7 -7 15 -4
21 8 19 34 -2 34 -15 0 -16 -2 -3 -10z"/>
<path d="M1235 2831 c-9 -9 -5 -22 5 -16 6 3 10 0 10 -7 0 -9 2 -10 8 -2 4 7
18 14 32 16 20 3 18 5 -13 9 -21 3 -40 3 -42 0z"/>
<path d="M2250 2830 c-25 -5 -52 -6 -61 -4 -9 2 -43 -9 -77 -26 -33 -16 -67
-30 -74 -30 -7 0 -28 -9 -46 -20 -18 -11 -39 -20 -47 -20 -7 0 -22 -11 -33
-25 -11 -14 -25 -25 -31 -25 -7 0 -26 -14 -43 -32 -28 -29 -29 -32 -12 -38 18
-7 18 -7 -1 -13 -16 -5 -20 -15 -20 -46 0 -22 4 -43 8 -47 4 -4 7 -17 7 -30 0
-12 5 -24 11 -26 7 -2 15 -47 19 -113 9 -119 13 -137 42 -193 l20 -37 -6 77
c-6 72 -5 78 19 104 14 15 23 34 21 41 -3 7 -1 13 4 13 6 0 6 9 1 23 -14 35
16 81 45 70 7 -3 26 2 41 11 57 31 133 39 133 13 0 -7 4 -6 9 2 8 12 13 11 30
-10 12 -13 27 -38 35 -54 24 -54 132 -131 112 -80 -4 11 6 9 41 -9 44 -22 48
-22 75 -7 34 19 35 28 6 58 -28 30 -20 37 19 15 17 -9 50 -27 73 -40 23 -13
53 -22 67 -20 34 4 38 -5 59 -144 13 -89 20 -115 29 -108 9 8 14 5 18 -10 3
-11 12 -20 21 -20 25 0 19 36 -9 58 -30 24 -33 63 -6 100 36 53 24 345 -17
395 -6 7 -12 26 -14 42 -2 23 -9 31 -27 33 -14 2 -47 26 -74 53 -27 27 -55 49
-63 49 -8 0 -14 4 -14 9 0 14 -79 48 -125 55 -89 13 -122 14 -165 6z m45 -80
c3 -6 -1 -7 -9 -4 -18 7 -21 14 -7 14 6 0 13 -4 16 -10z m33 -60 c10 -17 10
-20 -3 -20 -21 0 -57 37 -42 43 18 6 31 -1 45 -23z m116 14 c5 -14 4 -15 -9
-4 -17 14 -19 20 -6 20 5 0 12 -7 15 -16z m-307 -20 c-3 -3 -12 -4 -19 -1 -8
3 -5 6 6 6 11 1 17 -2 13 -5z m90 0 c-3 -3 -12 -4 -19 -1 -8 3 -5 6 6 6 11 1
17 -2 13 -5z m159 -31 c-6 -6 -36 9 -36 18 0 5 9 4 20 -3 10 -7 18 -14 16 -15z
m91 -6 c10 -16 14 -41 5 -32 -4 4 -7 10 -7 15 0 4 -11 18 -25 29 -22 20 -22
21 -3 12 12 -6 25 -17 30 -24z m-67 -37 c0 -5 -2 -10 -4 -10 -3 0 -8 5 -11 10
-3 6 -1 10 4 10 6 0 11 -4 11 -10z m-195 -18 c-3 -3 -11 0 -18 7 -9 10 -8 11
6 5 10 -3 15 -9 12 -12z m71 -4 c-18 -10 -39 -2 -31 12 3 4 15 6 26 3 19 -5
19 -7 5 -15z m-433 -73 c-3 -9 -8 -14 -10 -11 -3 3 -2 9 2 15 9 16 15 13 8 -4z
m48 -12 c-12 -20 -14 -14 -5 12 4 9 9 14 11 11 3 -2 0 -13 -6 -23z"/>
<path d="M3545 2820 c4 -6 1 -17 -5 -25 -15 -19 -1 -19 23 -1 23 18 22 36 -4
36 -11 0 -17 -4 -14 -10z"/>
<path d="M688 2813 c7 -3 16 -2 19 1 4 3 -2 6 -13 5 -11 0 -14 -3 -6 -6z"/>
<path d="M1290 2800 c0 -5 5 -10 10 -10 6 0 10 5 10 10 0 6 -4 10 -10 10 -5 0
-10 -4 -10 -10z"/>
<path d="M1211 2782 c0 -7 -6 -10 -13 -6 -7 4 -8 3 -4 -4 8 -14 -23 -64 -35
-56 -5 3 -9 -11 -9 -30 0 -20 5 -36 10 -36 6 0 10 9 10 20 0 12 12 32 26 45
19 17 24 31 21 52 -2 15 -5 22 -6 15z"/>
<path d="M931 2754 c0 -11 3 -14 6 -6 3 7 2 16 -1 19 -3 4 -6 -2 -5 -13z"/>
<path d="M865 2740 c3 -5 8 -10 11 -10 2 0 4 5 4 10 0 6 -5 10 -11 10 -5 0 -7
-4 -4 -10z"/>
<path d="M685 2730 c4 -6 11 -8 16 -5 14 9 11 15 -7 15 -8 0 -12 -5 -9 -10z"/>
<path d="M911 2728 c-1 -12 -8 -15 -26 -12 -26 4 -35 -10 -12 -20 9 -3 7 -9
-6 -19 -10 -9 -14 -18 -8 -21 5 -3 12 0 14 6 3 7 6 4 6 -7 1 -16 3 -17 10 -6
5 8 7 20 4 28 -3 8 2 20 12 27 10 7 15 19 12 27 -4 11 -6 10 -6 -3z"/>
<path d="M795 2720 c-3 -5 -1 -10 4 -10 6 0 11 5 11 10 0 6 -2 10 -4 10 -3 0
-8 -4 -11 -10z"/>
<path d="M687 2704 c-3 -3 -2 -24 1 -46 3 -24 1 -39 -4 -35 -5 3 -10 -3 -10
-13 0 -10 5 -18 10 -17 6 1 10 -48 11 -130 0 -117 2 -132 18 -137 12 -3 17 2
17 16 0 10 -4 16 -10 13 -6 -4 -10 28 -10 90 0 62 4 94 10 90 6 -3 10 5 10 19
0 13 -4 26 -10 28 -5 2 -10 29 -11 61 -2 54 -9 74 -22 61z"/>
<path d="M790 2609 c0 -5 5 -7 10 -4 6 3 10 8 10 11 0 2 -4 4 -10 4 -5 0 -10
-5 -10 -11z"/>
<path d="M857 2606 c-4 -10 -1 -13 9 -9 7 3 14 9 14 14 0 14 -17 10 -23 -5z"/>
<path d="M1500 2600 c0 -11 5 -20 10 -20 6 0 10 9 10 20 0 11 -4 20 -10 20 -5
0 -10 -9 -10 -20z"/>
<path d="M3540 2466 c0 -9 5 -16 10 -16 6 0 10 4 10 9 0 6 -4 13 -10 16 -5 3
-10 -1 -10 -9z"/>
<path d="M2167 2423 c-4 -3 -7 -14 -7 -24 0 -9 -6 -20 -12 -22 -8 -3 -6 -6 4
-6 11 -1 20 9 24 24 7 27 2 40 -9 28z"/>
<path d="M646 2364 c-9 -8 -19 -27 -22 -42 -4 -15 -13 -37 -20 -49 -8 -13 -10
-23 -4 -23 5 0 10 -7 10 -15 0 -8 5 -15 10 -15 6 0 10 7 10 15 0 9 9 15 24 15
24 0 24 3 24 65 -2 68 -6 75 -32 49z"/>
<path d="M3680 2369 c-13 -9 -13 -10 1 -6 9 3 23 0 30 -6 11 -10 11 -9 0 6 -7
9 -14 17 -15 17 0 0 -8 -5 -16 -11z"/>
<path d="M3834 2326 c-4 -13 -8 -15 -14 -6 -5 9 -9 8 -13 -4 -3 -8 -1 -17 6
-20 9 -3 8 -5 -1 -5 -7 -1 -10 -5 -7 -11 4 -6 13 -5 26 3 16 10 21 9 28 -1 6
-10 12 -7 24 12 16 23 16 25 1 19 -14 -5 -15 -3 -5 15 11 20 9 22 -14 20 -15
-2 -28 -10 -31 -22z"/>
<path d="M815 2329 c-4 -6 -5 -12 -2 -15 2 -3 7 2 10 11 7 17 1 20 -8 4z"/>
<path d="M721 2294 c0 -11 3 -14 6 -6 3 7 2 16 -1 19 -3 4 -6 -2 -5 -13z"/>
<path d="M3725 2260 c-4 -6 -11 -8 -16 -5 -5 4 -9 1 -9 -4 0 -15 11 -13 34 4
11 8 15 15 9 15 -7 0 -15 -5 -18 -10z"/>
<path d="M862 2208 c-9 -9 -9 -15 0 -26 8 -9 8 -16 1 -20 -15 -10 -12 -42 4
-42 7 0 13 -4 13 -10 0 -5 -7 -10 -15 -10 -11 0 -15 -10 -13 -37 1 -37 1 -37
5 -5 2 17 8 32 13 32 5 0 7 -7 4 -15 -4 -8 -3 -27 1 -42 5 -21 8 -24 15 -12 6
9 7 -18 4 -71 -3 -47 -5 -93 -5 -102 0 -10 -7 -18 -15 -18 -8 0 -14 -10 -14
-22 0 -21 0 -21 16 -2 15 19 15 18 11 -3 -6 -27 -1 -29 19 -8 13 12 14 42 9
187 -4 95 -12 181 -17 192 -7 13 -7 21 2 26 8 5 7 9 -5 14 -21 8 -19 8 -33 -6z"/>
<path d="M2420 2198 c-42 -11 -75 -38 -48 -38 10 0 57 9 105 20 50 12 99 18
116 14 20 -4 27 -3 23 5 -9 14 -147 13 -196 -1z"/>
<path d="M2803 2178 c2 -13 7 -30 10 -38 3 -8 7 -22 10 -30 2 -8 8 2 12 23 5
25 3 42 -5 52 -18 22 -31 18 -27 -7z"/>
<path d="M3584 2169 c-19 -22 -19 -22 4 -8 12 8 22 17 22 21 0 12 -6 9 -26
-13z"/>
<path d="M2090 2170 c8 -5 35 -10 60 -10 33 0 41 3 30 10 -8 5 -35 10 -60 10
-33 0 -41 -3 -30 -10z"/>
<path d="M2393 2142 c-45 -24 -46 -62 -2 -62 16 0 28 4 24 9 -10 17 12 21 25
6 19 -22 61 -19 67 5 5 20 23 28 23 10 0 -5 9 -10 20 -10 21 0 26 16 11 39
-15 23 -128 25 -168 3z"/>
<path d="M3608 2153 c7 -3 16 -2 19 1 4 3 -2 6 -13 5 -11 0 -14 -3 -6 -6z"/>
<path d="M3456 2135 c-3 -8 -1 -16 4 -16 6 -1 15 -3 20 -4 6 -1 15 -3 21 -4 8
-1 9 -5 0 -14 -6 -8 -8 -17 -4 -20 3 -4 -3 -7 -15 -7 -12 0 -22 -5 -22 -11 0
-7 7 -8 18 -4 9 4 26 9 37 10 11 2 22 4 25 4 2 1 -1 6 -8 13 -16 16 -15 31 1
23 6 -4 4 0 -5 8 -10 8 -18 19 -18 26 0 17 -47 13 -54 -4z"/>
<path d="M2095 2129 c-4 -6 -14 -8 -22 -5 -9 4 -11 2 -7 -6 5 -8 2 -9 -9 -5
-19 7 -33 -8 -16 -18 6 -4 16 -2 22 4 16 16 24 14 30 -9 7 -28 57 -28 64 0 4
16 8 18 19 9 8 -7 18 -9 22 -5 4 4 -4 16 -17 27 -25 21 -76 26 -86 8z"/>
<path d="M3550 2090 c0 -11 4 -20 9 -20 6 0 9 9 8 20 -1 11 -5 20 -9 20 -4 0
-8 -9 -8 -20z"/>
<path d="M3605 2080 c-3 -5 -2 -10 4 -10 5 0 13 5 16 10 3 6 2 10 -4 10 -5 0
-13 -4 -16 -10z"/>
<path d="M3670 2074 c0 -8 5 -12 10 -9 6 3 10 10 10 16 0 5 -4 9 -10 9 -5 0
-10 -7 -10 -16z"/>
<path d="M3607 2038 c-7 -4 2 -8 20 -8 17 0 34 4 37 9 7 10 -41 9 -57 -1z"/>
<path d="M3515 2030 c-3 -5 -2 -10 4 -10 5 0 13 5 16 10 3 6 2 10 -4 10 -5 0
-13 -4 -16 -10z"/>
<path d="M3480 1999 c0 -5 5 -7 10 -4 6 3 10 8 10 11 0 2 -4 4 -10 4 -5 0 -10
-5 -10 -11z"/>
<path d="M3583 1972 c-9 -15 -8 -19 3 -19 8 0 14 9 14 19 0 10 -1 18 -3 18 -1
0 -7 -8 -14 -18z"/>
<path d="M1066 1945 c4 -8 8 -15 10 -15 2 0 4 7 4 15 0 8 -4 15 -10 15 -5 0
-7 -7 -4 -15z"/>
<path d="M1416 1925 c4 -8 8 -15 10 -15 2 0 4 7 4 15 0 8 -4 15 -10 15 -5 0
-7 -7 -4 -15z"/>
<path d="M1291 1904 c0 -11 3 -14 6 -6 3 7 2 16 -1 19 -3 4 -6 -2 -5 -13z"/>
<path d="M860 1903 c0 -4 5 -15 10 -23 8 -13 10 -13 10 2 0 9 -4 20 -10 23 -5
3 -10 3 -10 -2z"/>
<path d="M930 1860 c0 -27 3 -30 30 -30 27 0 30 3 30 30 0 27 -3 30 -30 30
-27 0 -30 -3 -30 -30z"/>
<path d="M2923 1882 c-8 -5 -9 -13 -3 -22 6 -8 10 -13 11 -10 0 3 2 13 4 23 4
19 4 19 -12 9z"/>
<path d="M3630 1876 c0 -2 7 -7 16 -10 8 -3 12 -2 9 4 -6 10 -25 14 -25 6z"/>
<path d="M609 1855 c-5 -29 -3 -95 4 -95 4 0 7 -9 7 -20 0 -11 5 -20 11 -20 8
0 10 16 5 50 -7 51 -23 103 -27 85z"/>
<path d="M2328 1845 c-7 -9 -19 -22 -25 -29 -10 -11 -9 -15 3 -20 35 -13 66 4
78 42 6 19 4 22 -18 22 -14 0 -31 -7 -38 -15z"/>
<path d="M761 1834 c0 -11 3 -14 6 -6 3 7 2 16 -1 19 -3 4 -6 -2 -5 -13z"/>
<path d="M3652 1841 c-11 -7 -11 -9 2 -14 10 -4 16 -1 16 8 0 17 -1 17 -18 6z"/>
<path d="M702 1828 c3 -7 14 -14 26 -16 16 -3 22 2 21 15 0 10 -3 13 -6 6 -3
-10 -10 -10 -25 -2 -16 9 -19 8 -16 -3z"/>
<path d="M650 1822 c0 -12 19 -26 26 -19 2 2 -2 10 -11 17 -9 8 -15 8 -15 2z"/>
<path d="M803 1795 c0 -22 2 -30 4 -17 2 12 2 30 0 40 -3 9 -5 -1 -4 -23z"/>
<path d="M1540 1802 c0 -10 36 -9 46 1 4 4 -5 7 -19 7 -15 0 -27 -4 -27 -8z"/>
<path d="M3576 1795 c-3 -8 -1 -15 4 -15 6 0 10 7 10 15 0 8 -2 15 -4 15 -2 0
-6 -7 -10 -15z"/>
<path d="M2330 1770 c-11 -7 -5 -10 23 -10 41 0 49 -16 15 -30 -21 -8 -19 -9
11 -9 36 -1 121 34 121 50 0 12 -151 11 -170 -1z m90 -14 c0 -3 -4 -8 -10 -11
-5 -3 -10 -1 -10 4 0 6 5 11 10 11 6 0 10 -2 10 -4z"/>
<path d="M552 1750 c0 -14 2 -19 5 -12 2 6 2 18 0 25 -3 6 -5 1 -5 -13z"/>
<path d="M2169 1749 c25 -11 52 -18 60 -16 10 2 6 7 -11 11 -16 5 -28 12 -28
17 0 5 -15 9 -32 9 l-33 0 44 -21z"/>
<path d="M601 1734 c0 -11 3 -14 6 -6 3 7 2 16 -1 19 -3 4 -6 -2 -5 -13z"/>
<path d="M2945 1710 c-3 -5 -1 -10 4 -10 6 0 11 5 11 10 0 6 -2 10 -4 10 -3 0
-8 -4 -11 -10z"/>
<path d="M705 1680 c-3 -6 1 -7 9 -4 18 7 21 14 7 14 -6 0 -13 -4 -16 -10z"/>
<path d="M706 1633 c-16 -17 -28 -45 -32 -73 -4 -25 -12 -48 -18 -52 -8 -5 -7
-8 2 -8 6 0 12 -7 12 -15 0 -8 8 -15 18 -14 10 0 12 3 5 6 -7 2 -13 14 -13 26
0 18 2 19 10 7 7 -11 10 -5 10 25 0 22 5 47 10 55 7 11 10 8 10 -16 0 -36 25
-54 28 -21 1 17 -1 19 -8 7 -7 -11 -10 -7 -10 18 0 17 4 32 10 32 5 0 7 7 4
15 -7 18 12 20 20 3 3 -7 5 -4 3 7 -3 30 -32 29 -61 -2z"/>
<path d="M3445 1630 c-3 -5 -1 -10 4 -10 6 0 11 5 11 10 0 6 -2 10 -4 10 -3 0
-8 -4 -11 -10z"/>
<path d="M3863 1621 c1 -12 7 -21 14 -21 17 0 16 15 -1 30 -12 9 -15 8 -13 -9z"/>
<path d="M556 1586 c0 -22 2 -53 3 -68 0 -18 7 -28 16 -28 16 0 19 29 9 92 -9
53 -31 57 -28 4z"/>
<path d="M2920 1610 c-9 -6 -10 -10 -3 -10 6 0 15 5 18 10 8 12 4 12 -15 0z"/>
<path d="M2625 1600 c-3 -5 -1 -10 4 -10 6 0 11 5 11 10 0 6 -2 10 -4 10 -3 0
-8 -4 -11 -10z"/>
<path d="M618 1503 c7 -3 16 -2 19 1 4 3 -2 6 -13 5 -11 0 -14 -3 -6 -6z"/>
<path d="M2806 1498 c3 -5 10 -6 15 -3 13 9 11 12 -6 12 -8 0 -12 -4 -9 -9z"/>
<path d="M3665 1468 c-33 -5 -75 -8 -94 -8 l-34 1 7 -188 c4 -103 9 -189 11
-191 1 -2 21 3 44 10 l41 13 0 65 c0 62 -2 67 -30 83 -27 17 -30 23 -30 72 0
53 0 54 32 57 l33 3 -24 22 -25 23 -23 -22 c-13 -12 -23 -17 -23 -11 0 18 29
36 60 38 17 1 30 -3 30 -8 0 -5 11 -2 24 6 19 13 32 14 57 7 25 -8 37 -6 48 4
10 10 21 12 37 5 20 -7 24 -5 24 11 0 18 -6 20 -52 19 -29 -1 -80 -6 -113 -11z
m-98 -260 c-3 -8 -6 -5 -6 6 -1 11 2 17 5 13 3 -3 4 -12 1 -19z"/>
<path d="M980 1461 c0 -6 -7 -8 -15 -5 -11 5 -15 -1 -15 -24 0 -25 4 -29 25
-29 21 0 25 4 25 28 0 15 -4 31 -10 34 -5 3 -10 2 -10 -4z"/>
<path d="M2664 1431 c6 -40 -4 -74 -38 -124 -10 -15 -16 -30 -14 -33 10 -9 88
117 88 141 0 21 -23 55 -37 55 -3 0 -3 -18 1 -39z"/>
<path d="M3768 1429 c-16 -16 -18 -40 -18 -169 0 -164 4 -175 56 -151 21 9 23
15 17 38 -4 16 -8 45 -8 66 0 35 -8 43 -37 38 -5 0 -8 31 -8 69 l0 70 30 0
c20 0 30 5 30 15 0 8 -5 15 -11 15 -7 0 -17 6 -23 14 -9 11 -14 10 -28 -5z
m26 -198 c3 -5 0 -11 -7 -14 -8 -3 -14 1 -14 9 0 16 13 19 21 5z m-7 -98 c-3
-10 -5 -4 -5 12 0 17 2 24 5 18 2 -7 2 -21 0 -30z"/>
<path d="M3668 1418 c-15 -15 -18 -37 -18 -133 l0 -115 25 0 c21 0 25 -5 25
-30 0 -23 -5 -30 -19 -30 -11 0 -22 6 -25 13 -3 6 -4 3 -3 -8 2 -11 9 -19 17
-17 7 2 26 4 42 5 27 2 37 12 19 19 -4 2 -11 13 -15 25 -5 16 -2 23 11 26 17
4 17 5 1 6 -13 1 -18 10 -18 32 0 17 4 28 10 24 6 -3 10 -1 10 4 0 6 -3 11 -7
11 -5 0 -8 16 -9 36 0 20 -6 39 -14 44 -10 6 -8 11 9 19 29 16 28 63 -2 76
-17 8 -26 7 -39 -7z m47 -38 c4 -6 -6 -10 -22 -10 -22 0 -25 2 -13 10 19 12
27 12 35 0z m-15 -85 c0 -8 -4 -15 -9 -15 -5 0 -11 7 -15 15 -3 9 0 15 9 15 8
0 15 -7 15 -15z m-10 -99 c0 -28 -13 -11 -16 21 -2 21 -1 24 6 13 5 -8 10 -24
10 -34z"/>
<path d="M2008 1366 c-3 -14 -1 -31 3 -38 6 -9 9 -7 9 9 0 12 3 28 6 37 3 9 2
16 -4 16 -5 0 -12 -11 -14 -24z"/>
<path d="M3425 1360 c-3 -5 -1 -10 4 -10 6 0 11 5 11 10 0 6 -2 10 -4 10 -3 0
-8 -4 -11 -10z"/>
<path d="M950 1286 c0 -7 11 -12 25 -12 33 0 33 21 0 22 -14 1 -25 -3 -25 -10z"/>
<path d="M691 1264 c0 -11 3 -14 6 -6 3 7 2 16 -1 19 -3 4 -6 -2 -5 -13z"/>
<path d="M691 1214 c0 -11 3 -14 6 -6 3 7 2 16 -1 19 -3 4 -6 -2 -5 -13z"/>
<path d="M680 1152 c0 -7 -7 -12 -15 -12 -9 0 -15 -10 -15 -26 0 -21 4 -25 23
-22 25 3 36 43 18 61 -8 8 -11 8 -11 -1z"/>
<path d="M395 1090 c-3 -5 -1 -10 4 -10 6 0 11 5 11 10 0 6 -2 10 -4 10 -3 0
-8 -4 -11 -10z"/>
<path d="M800 1005 c0 -64 13 -95 38 -94 10 0 12 3 5 6 -9 3 -10 10 -2 24 7
15 6 21 -6 25 -10 4 -15 19 -15 44 0 22 -4 42 -10 45 -6 4 -10 -15 -10 -50z"/>
<path d="M550 1025 c-5 -72 11 -116 30 -85 6 9 6 16 0 18 -6 2 -10 16 -11 30
0 15 -4 36 -9 47 -7 17 -9 16 -10 -10z"/>
<path d="M761 1034 c0 -11 3 -14 6 -6 3 7 2 16 -1 19 -3 4 -6 -2 -5 -13z"/>
<path d="M1002 980 c0 -65 1 -70 8 -34 5 22 5 56 0 75 -6 27 -8 19 -8 -41z"/>
<path d="M3828 983 c7 -3 16 -2 19 1 4 3 -2 6 -13 5 -11 0 -14 -3 -6 -6z"/>
<path d="M775 931 c-3 -5 -1 -12 5 -16 5 -3 10 1 10 9 0 18 -6 21 -15 7z"/>
<path d="M1021 924 c0 -11 3 -14 6 -6 3 7 2 16 -1 19 -3 4 -6 -2 -5 -13z"/>
<path d="M570 905 c6 -8 10 -20 7 -27 -4 -8 -6 -7 -6 5 -1 9 -5 17 -11 17 -15
0 -12 -26 4 -39 11 -10 16 -8 20 7 8 23 -2 52 -16 52 -6 0 -5 -6 2 -15z"/>
<path d="M3772 898 c7 -19 38 -22 38 -4 0 10 -9 16 -21 16 -12 0 -19 -5 -17
-12z"/>
<path d="M951 840 c-2 -48 1 -60 13 -60 13 0 16 12 16 60 0 43 -4 60 -13 60
-10 0 -14 -18 -16 -60z m16 -12 c-3 -8 -6 -5 -6 6 -1 11 2 17 5 13 3 -3 4 -12
1 -19z"/>
<path d="M1016 873 c-3 -10 -9 -24 -12 -30 -3 -8 1 -13 10 -13 11 0 16 9 16
30 0 34 -5 38 -14 13z"/>
<path d="M690 852 c0 -4 9 -8 19 -8 11 0 17 4 15 8 -7 10 -34 10 -34 0z"/>
<path d="M610 815 c0 -8 9 -15 20 -15 11 0 20 7 20 15 0 8 -9 15 -20 15 -11 0
-20 -7 -20 -15z"/>
<path d="M1024 735 c0 -14 4 -25 9 -25 10 0 9 38 -2 44 -5 3 -8 -5 -7 -19z"/>
<path d="M768 743 c7 -3 16 -2 19 1 4 3 -2 6 -13 5 -11 0 -14 -3 -6 -6z"/>
<path d="M731 714 c0 -11 3 -14 6 -6 3 7 2 16 -1 19 -3 4 -6 -2 -5 -13z"/>
<path d="M926 683 c-3 -4 -1 -12 6 -20 7 -9 8 -17 1 -24 -11 -11 -57 24 -45
36 4 4 -9 5 -28 1 -19 -3 -37 -11 -38 -16 -2 -6 -8 -8 -12 -5 -5 3 -11 1 -15
-5 -3 -5 1 -10 9 -10 8 0 18 6 22 12 6 9 10 5 15 -12 7 -24 7 -24 8 -2 1 12 4
22 7 22 12 0 33 -28 26 -35 -4 -4 7 -5 25 -2 18 3 34 0 36 -6 2 -7 9 -7 23 1
18 11 18 11 -4 12 -19 0 -21 3 -12 19 5 11 10 22 10 24 0 8 -28 16 -34 10z"/>
<path d="M804 604 c3 -9 6 -18 6 -20 0 -2 7 -4 16 -4 13 0 14 -3 5 -14 -9 -11
-9 -16 1 -22 7 -4 10 -4 6 1 -4 4 -3 14 2 20 7 8 4 19 -9 33 -22 26 -36 29
-27 6z"/>
<path d="M757 596 c-3 -8 0 -13 6 -12 15 2 22 19 9 24 -5 1 -12 -4 -15 -12z"/>
<path d="M892 564 c-11 -12 -9 -14 8 -14 11 0 20 4 20 9 0 17 -15 19 -28 5z"/>
<path d="M861 461 c-40 -11 -38 -31 3 -29 27 2 36 8 36 21 0 18 -2 19 -39 8z"/>
<path d="M915 461 c-3 -5 -1 -12 5 -16 5 -3 10 1 10 9 0 18 -6 21 -15 7z"/>
<path d="M2500 151 c-58 -73 -106 -136 -108 -141 -2 -6 23 -10 57 -10 l60 0
56 69 c58 73 65 101 46 185 -6 27 -10 23 -111 -103z"/>
<path d="M940 90 c-9 -6 -10 -10 -3 -10 6 0 15 5 18 10 8 12 4 12 -15 0z"/>
<path d="M2593 56 c-18 -24 -33 -46 -33 -49 0 -4 16 -7 35 -7 l35 0 0 50 c0
28 -1 50 -2 50 -2 0 -18 -20 -35 -44z"/>
<path d="M750 81 c0 -6 5 -13 10 -16 6 -3 10 1 10 9 0 9 -4 16 -10 16 -5 0
-10 -4 -10 -9z"/>
<path d="M694 55 c4 -11 -3 -17 -24 -22 -17 -3 -33 -10 -37 -16 -4 -6 0 -8 10
-4 9 3 19 2 22 -3 8 -13 72 -13 80 0 4 6 15 8 26 5 13 -4 19 -2 19 9 0 12 -10
16 -35 16 -24 0 -35 5 -35 15 0 8 -7 15 -16 15 -10 0 -14 -5 -10 -15z"/>
<path d="M970 53 c0 -6 -3 -18 -6 -27 -3 -9 -1 -16 5 -16 17 0 25 30 12 43 -8
8 -11 8 -11 0z"/>
</g>
</svg>
